<svg width="28" height="28" viewBox="0 0 28 28" fill="none" xmlns="http://www.w3.org/2000/svg">
<path d="M27.0849 15.4331V10.737C27.0849 10.074 26.5475 9.53664 25.8846 9.53664H25.5139C25.0248 9.53664 24.5883 9.2383 24.4013 8.78635C24.3992 8.78135 24.3971 8.77635 24.3951 8.77141C24.2071 8.31913 24.3044 7.79882 24.6507 7.4525L24.9128 7.1904C25.3815 6.72165 25.3815 5.96164 24.9128 5.49289L21.5921 2.1722C21.1233 1.70344 20.3633 1.70344 19.8946 2.1722L19.6325 2.4343C19.2862 2.78062 18.7659 2.87785 18.3136 2.68992C18.3086 2.68784 18.3036 2.6858 18.2986 2.68372C17.8467 2.49667 17.5483 2.0602 17.5483 1.57107V1.20038C17.5483 0.53738 17.0109 0 16.348 0H11.6518C10.9889 0 10.4515 0.537381 10.4515 1.20032V1.57102C10.4515 2.06014 10.1532 2.49661 9.70121 2.68366C9.69621 2.68575 9.69122 2.68778 9.68627 2.68987C9.23399 2.8778 8.71369 2.78057 8.36736 2.43424L8.10526 2.17214C7.63651 1.70339 6.8765 1.70339 6.40775 2.17214L3.08706 5.49283C2.61831 5.96158 2.61831 6.72159 3.08706 7.19035L3.34916 7.45245C3.69548 7.79877 3.79271 8.31908 3.60478 8.77136C3.6027 8.77635 3.60067 8.78135 3.59858 8.78629C3.41153 9.23824 2.97506 9.53658 2.48594 9.53658H2.11524C1.4523 9.53658 0.914917 10.074 0.914917 10.7369V15.4331C0.914917 16.096 1.4523 16.6334 2.11524 16.6334H2.48594C2.97506 16.6334 3.41153 16.9317 3.59858 17.3837C3.60067 17.3887 3.6027 17.3937 3.60478 17.3986C3.79271 17.8509 3.69548 18.3712 3.34916 18.7175L3.08706 18.9796C2.61831 19.4484 2.61831 20.2084 3.08706 20.6771L6.40775 23.9978C6.8765 24.4666 7.63651 24.4666 8.10526 23.9978L8.36736 23.7357C8.71369 23.3894 9.23399 23.2922 9.68627 23.4801C9.69127 23.4822 9.69627 23.4842 9.70121 23.4863C10.1532 23.6733 10.4515 24.1098 10.4515 24.5989V24.9696C10.4515 25.6326 10.9889 26.17 11.6518 26.17H16.348C17.0109 26.17 17.5483 25.6326 17.5483 24.9696V24.5989C17.5483 24.1098 17.8466 23.6733 18.2986 23.4863C18.3036 23.4842 18.3086 23.4822 18.3135 23.4801C18.7658 23.2922 19.2861 23.3894 19.6324 23.7357L19.8945 23.9978C20.3633 24.4666 21.1233 24.4666 21.592 23.9978L24.9127 20.6771C25.3815 20.2084 25.3815 19.4484 24.9127 18.9796L24.6506 18.7175C24.3043 18.3712 24.2071 17.8509 24.395 17.3986C24.3971 17.3936 24.3991 17.3886 24.4012 17.3837C24.5883 16.9317 25.0247 16.6334 25.5139 16.6334H25.8846C26.5475 16.6334 27.0849 16.096 27.0849 15.4331Z" fill="#2D2D2D"/>
<path d="M13.9998 22.1964C19.0311 22.1964 23.1098 18.1178 23.1098 13.0865C23.1098 8.05522 19.0311 3.97656 13.9998 3.97656C8.96855 3.97656 4.88989 8.05522 4.88989 13.0865C4.88989 18.1178 8.96855 22.1964 13.9998 22.1964Z" fill="#414141"/>
<path d="M27.0784 15.5575C27.0169 16.1628 26.5057 16.6349 25.8846 16.6349H25.5138C25.0248 16.6349 24.5884 16.9332 24.4013 17.3853C24.3989 17.3906 24.3972 17.3953 24.3949 17.4006C24.2071 17.8527 24.3042 18.3727 24.6505 18.7195L24.9131 18.9816C25.3816 19.4501 25.3816 20.2098 24.9131 20.679L21.592 23.9994C21.1235 24.4685 20.3631 24.4685 19.8946 23.9994L19.6326 23.7374C19.2863 23.3911 18.7657 23.2941 18.3136 23.4818C18.3083 23.4841 18.3037 23.4859 18.2984 23.4882C17.8468 23.6748 17.5485 24.1117 17.5485 24.6007V24.9715C17.5485 25.595 17.073 26.1073 16.4647 26.1659L8.89549 18.5931C7.42093 17.2262 6.61437 15.2732 6.6103 13.1003C6.60564 10.5765 7.72981 8.45911 9.63661 7.09453C9.87291 6.92548 10.1729 6.87344 10.335 7.06878C10.3888 7.13427 16.8525 13.5869 16.9256 13.6571C17.3157 13.3401 17.5485 12.8616 17.5485 12.3499V7.39456C17.5485 6.97813 18.02 6.73245 18.3592 6.97462C18.7792 7.27526 19.167 7.61741 19.5162 7.99585L27.0784 15.5575Z" fill="url(#paint0_linear_4739_4478)"/>
<path d="M24.9127 18.9814L24.6506 18.7193C24.3042 18.373 24.207 17.8527 24.3949 17.4004C24.397 17.3954 24.399 17.3904 24.4011 17.3855C24.5882 16.9335 25.0247 16.6352 25.5138 16.6352H25.8845C26.5056 16.6352 27.0166 16.1633 27.0785 15.5585L19.5161 7.99598C19.3558 7.82227 19.1879 7.65675 19.0119 7.5C20.1998 8.82775 20.9216 10.5807 20.9216 12.5021C20.9216 15.364 19.3196 17.8521 16.9636 19.1185V26.0005C17.3134 25.7908 17.5483 25.409 17.5483 24.9715V24.6008C17.5483 24.1116 17.8466 23.6752 18.2986 23.4881C18.3036 23.486 18.3086 23.484 18.3135 23.4819C18.7658 23.294 19.2861 23.3912 19.6324 23.7375L19.8945 23.9996C20.3633 24.4684 21.1233 24.4684 21.592 23.9996L24.9127 20.6789C25.3815 20.2102 25.3815 19.4502 24.9127 18.9814Z" fill="url(#paint1_linear_4739_4478)"/>
<path d="M17.3863 26.6897C17.546 25.7958 17.6263 24.89 17.6263 23.9825V17.7852H10.3735V23.9825C10.3735 24.8901 10.4539 25.7958 10.6136 26.6898C10.749 27.4481 11.4219 28.0014 12.2087 28.0014H15.7912C16.5779 28.0014 17.2508 27.4481 17.3863 26.6897Z" fill="url(#paint2_linear_4739_4478)"/>
<path d="M10.3735 19.7051L17.404 26.5843C17.5514 25.7246 17.6263 24.8544 17.6263 23.9826V17.7852H10.3735V19.7051Z" fill="url(#paint3_linear_4739_4478)"/>
<path d="M21.5065 13.0865C21.5065 17.2323 18.1456 20.5931 13.9999 20.5932C9.85417 20.5932 6.50065 17.246 6.49324 13.1002C6.48874 10.5763 7.72979 8.34178 9.63659 6.97757C9.97737 6.73381 10.4513 6.97593 10.4513 7.39488V12.3496C10.4513 12.9522 10.7727 13.509 11.2946 13.8103L13.1565 14.8853C13.6784 15.1867 14.3214 15.1867 14.8433 14.8853L16.7052 13.8103C17.227 13.509 17.5485 12.9522 17.5485 12.3496V7.39472C17.5485 6.9779 18.02 6.73244 18.3592 6.97472C20.2647 8.33618 21.5065 10.5665 21.5065 13.0865Z" fill="url(#paint4_linear_4739_4478)"/>
<path d="M8.4447 13.7188C8.4447 14.6621 8.94793 15.5338 9.76487 16.0055L12.6796 17.6884C13.4966 18.1602 14.5032 18.1602 15.3202 17.6884L18.235 16.0055C19.0519 15.5339 19.5551 14.6622 19.5551 13.7188V8.03874C19.1957 7.6434 18.7951 7.28609 18.3592 6.97474C18.0201 6.73241 17.5485 6.97793 17.5485 7.39474V12.3496C17.5485 12.9522 17.227 13.509 16.7052 13.8103L14.8433 14.8854C14.3214 15.1867 13.6784 15.1867 13.1565 14.8854L11.2946 13.8103C10.7728 13.509 10.4513 12.9522 10.4513 12.3496V7.39491C10.4513 6.9759 9.97739 6.73378 9.63662 6.9776C9.20234 7.28829 8.80304 7.6446 8.44464 8.03874V13.7188H8.4447Z" fill="url(#paint5_linear_4739_4478)"/>
<defs>
<linearGradient id="paint0_linear_4739_4478" x1="16.8443" y1="6.87891" x2="16.8443" y2="26.1659" gradientUnits="userSpaceOnUse">
<stop stop-color="#2D2D2D"/>
<stop offset="1" stop-color="#2D2D2D" stop-opacity="0"/>
</linearGradient>
<linearGradient id="paint1_linear_4739_4478" x1="22.021" y1="7.5" x2="22.021" y2="26.0005" gradientUnits="userSpaceOnUse">
<stop stop-color="#2D2D2D"/>
<stop offset="1" stop-color="#2D2D2D" stop-opacity="0"/>
</linearGradient>
<linearGradient id="paint2_linear_4739_4478" x1="13.7366" y1="22.0529" x2="18.252" y2="26.5683" gradientUnits="userSpaceOnUse">
<stop stop-color="#FFD833"/>
<stop offset="1" stop-color="#F2B631"/>
</linearGradient>
<linearGradient id="paint3_linear_4739_4478" x1="16.1838" y1="23.6875" x2="13.2036" y2="16.9427" gradientUnits="userSpaceOnUse">
<stop stop-color="#F9A126" stop-opacity="0"/>
<stop offset="1" stop-color="#EC4437"/>
</linearGradient>
<linearGradient id="paint4_linear_4739_4478" x1="11.2498" y1="10.3385" x2="21.0519" y2="20.1406" gradientUnits="userSpaceOnUse">
<stop stop-color="#FFD833"/>
<stop offset="1" stop-color="#F2B631"/>
</linearGradient>
<linearGradient id="paint5_linear_4739_4478" x1="18.1673" y1="15.587" x2="7.054" y2="4.47371" gradientUnits="userSpaceOnUse">
<stop stop-color="#FFD833"/>
<stop offset="1" stop-color="#F2B631"/>
</linearGradient>
</defs>
</svg>
