<svg width="259" height="213" viewBox="0 0 259 213" fill="none" xmlns="http://www.w3.org/2000/svg">
<g clip-path="url(#clip0)">
<path d="M193.066 44.9551H164.514V86.2672H193.066V44.9551Z" fill="#E0E0E0"/>
<path d="M191.637 44.9551H163.085V86.2672H191.637V44.9551Z" fill="#F5F5F5"/>
<path d="M188.09 49.428H166.632V81.7946H188.09V49.428Z" fill="white"/>
<path d="M188.084 81.7887C188.084 81.7887 188.084 81.7376 188.084 81.6353V81.1749C188.084 80.7657 188.084 80.1747 188.084 79.4017C188.084 77.8502 188.084 75.5882 188.084 72.7295C188.084 67.0462 188.084 58.9417 188.05 49.4278L188.118 49.496H166.666L166.746 49.4164C166.746 61.6243 166.746 72.8829 166.746 81.7774L166.683 81.7205H182.305H186.615H188.084H187.708H186.57H182.266H166.609H166.546V81.658C166.546 72.7636 166.546 61.5049 166.546 49.2971V49.2175H188.152V49.2914C188.152 58.828 188.124 66.9097 188.118 72.6442C188.118 75.4859 188.118 77.7592 188.118 79.2937C188.118 80.061 188.118 80.6521 188.118 81.0556V81.5045C188.117 81.6002 188.106 81.6955 188.084 81.7887Z" fill="#E0E0E0"/>
<path d="M191.717 44.9551C191.57 45.216 191.401 45.4632 191.21 45.6939C190.88 46.1315 190.407 46.734 189.872 47.3989C189.337 48.0639 188.83 48.6265 188.46 49.0357C188.268 49.2669 188.056 49.4817 187.828 49.6779C188 49.4274 188.19 49.1899 188.397 48.9675L189.775 47.3023L191.147 45.6371C191.317 45.3935 191.507 45.1652 191.717 44.9551Z" fill="#E0E0E0"/>
<path d="M188.198 81.6865C189.267 83.3789 190.524 84.946 191.944 86.3582L188.198 81.6865Z" fill="white"/>
<path d="M191.944 86.3582C191.706 86.1931 191.486 86.0026 191.289 85.7899C190.792 85.2837 190.321 84.7525 189.877 84.1986C189.434 83.6526 189.019 83.0835 188.636 82.4936C188.463 82.254 188.316 81.9968 188.198 81.7263C188.395 81.9452 188.572 82.1811 188.727 82.431C189.04 82.8743 189.484 83.4768 189.997 84.136C190.509 84.7953 191.01 85.3466 191.369 85.7501C191.575 85.9384 191.767 86.1417 191.944 86.3582Z" fill="#E0E0E0"/>
<path d="M163.085 86.2334L166.82 81.6299L163.085 86.2334Z" fill="white"/>
<path d="M166.82 81.6299C166.259 82.443 165.657 83.2265 165.015 83.9771C163.979 85.2502 163.113 86.2504 163.085 86.2504C163.644 85.4347 164.247 84.6493 164.89 83.8975C165.494 83.1097 166.139 82.3528 166.82 81.6299Z" fill="#E0E0E0"/>
<path d="M163.085 44.9551C163.731 45.6422 164.337 46.3651 164.901 47.1204C165.51 47.8482 166.08 48.607 166.609 49.3938C165.963 48.7066 165.357 47.9837 164.793 47.2284C164.182 46.5029 163.612 45.744 163.085 44.9551Z" fill="#E0E0E0"/>
<path d="M181.406 55.9978H174.221V76.3612H181.406V55.9978Z" fill="#E0E0E0"/>
<path d="M136.275 160.543C134.976 160.971 133.778 161.656 132.751 162.558C131.723 163.459 130.889 164.558 130.297 165.789C129.13 168.261 128.546 170.967 128.589 173.7C128.521 178.968 130.804 184.583 133.457 189.136C138.325 185.873 140.181 179.349 140.915 175.979C142.054 170.648 140.915 160.321 136.281 160.543" fill="#F5F5F5"/>
<path d="M127.274 197.07C127.763 195.622 127.86 194.07 127.554 192.573C127.248 191.075 126.55 189.686 125.532 188.545C124.497 187.424 123.25 186.52 121.862 185.886C120.474 185.252 118.973 184.9 117.447 184.851C116.041 184.777 114.481 184.993 113.536 186.038C113.125 186.554 112.859 187.17 112.766 187.822C112.672 188.475 112.756 189.14 113.007 189.75C113.526 190.966 114.359 192.023 115.42 192.813C118.91 195.655 122.822 197.797 127.274 197.058" fill="#F5F5F5"/>
<path d="M130.923 209.732C130.989 208.57 130.935 207.405 130.764 206.254C130.625 204.989 130.334 203.744 129.898 202.548C129.411 201.078 128.827 199.64 128.151 198.246C126.904 195.685 125.042 193.471 122.731 191.801C122.016 191.314 121.253 190.9 120.453 190.568C120.168 190.431 119.862 190.343 119.548 190.306C119.503 190.403 120.772 190.875 122.463 192.136C124.624 193.856 126.375 196.034 127.587 198.513C128.25 199.886 128.837 201.294 129.346 202.73C129.791 203.887 130.116 205.087 130.314 206.311C130.667 208.419 130.832 209.743 130.923 209.732Z" fill="#E0E0E0"/>
<path d="M136.451 168.5C136.269 169.055 136.136 169.626 136.053 170.205C135.837 171.341 135.546 172.933 135.205 174.927C134.516 178.906 133.633 184.441 132.802 190.568C131.971 196.695 131.384 202.259 131.043 206.299C130.872 208.317 130.752 209.948 130.69 211.079C130.622 211.664 130.611 212.254 130.656 212.841C130.793 212.27 130.881 211.688 130.918 211.102C131.06 209.868 131.242 208.26 131.487 206.339C131.937 202.315 132.591 196.763 133.417 190.647C134.242 184.532 135.062 179.099 135.643 174.99C135.916 173.069 136.138 171.466 136.309 170.244C136.407 169.668 136.454 169.084 136.451 168.5Z" fill="#E0E0E0"/>
<path d="M133.628 199.9C134.972 196.977 136.995 194.417 139.529 192.43C142.063 190.444 145.034 189.088 148.197 188.476C149.802 188.181 151.784 188.238 152.666 189.613C153.549 190.988 152.774 192.818 151.801 194.16C149.717 196.864 146.879 198.892 143.643 199.989C140.407 201.087 136.919 201.204 133.616 200.326" fill="#F5F5F5"/>
<path d="M145.954 192.71C145.644 192.725 145.338 192.79 145.049 192.904C144.479 193.063 143.654 193.341 142.657 193.711C140.022 194.667 137.586 196.1 135.472 197.939C134.333 198.99 133.371 200.218 132.626 201.576C132.029 202.691 131.591 203.882 131.322 205.117C131.139 205.943 131.032 206.784 131.003 207.629C130.951 207.936 130.951 208.249 131.003 208.556C131.123 208.556 131.168 207.243 131.698 205.219C132.393 202.585 133.836 200.206 135.854 198.371C137.926 196.586 140.271 195.143 142.8 194.097C144.764 193.25 145.999 192.801 145.954 192.71Z" fill="#E0E0E0"/>
<path d="M244.784 60.9482C244.784 60.9482 238.817 59.192 236.403 72.8832C233.989 86.5744 233.796 94.1161 233.796 94.1161C233.796 94.1161 232.959 97.0885 230.75 95.986C228.541 94.8834 224.789 91.0017 222.141 92.718C219.391 94.4969 219.431 98.157 221.521 102.908C223.61 107.66 227.783 118.253 228.171 119.208C228.558 120.163 228.421 121.737 226.798 121.231C225.176 120.726 214.843 114.508 212.167 119.623C209.491 124.738 217.496 136.991 218.344 138.378C219.192 139.765 219.095 140.458 218.503 141.038C217.911 141.617 214.632 139.202 211.614 137.554C208.597 135.906 204.811 134.525 203.524 137.582C202.238 140.64 204.663 150.949 219.363 164.425L226.571 170.222L235.299 167.016C253.557 159.014 259.21 150.057 258.994 146.744C258.778 143.43 254.735 143.493 251.348 144.061C247.96 144.63 244.072 145.874 243.696 145.13C243.32 144.385 243.468 143.675 244.715 142.663C245.962 141.652 257.514 132.604 256.643 126.937C255.772 121.271 243.964 123.812 242.261 123.766C240.559 123.721 240.969 122.18 241.618 121.413C242.267 120.646 249.686 111.967 253.204 108.143C256.722 104.318 257.947 100.874 255.925 98.2991C253.978 95.8155 249.162 98.2991 246.719 98.606C244.277 98.9129 244.442 95.8552 244.442 95.8552C244.442 95.8552 246.719 88.6601 248.866 74.9178C251.012 61.1755 244.653 60.9368 244.653 60.9368" fill="#F5F5F5"/>
<path d="M242.603 73.2183C242.603 73.2183 242.603 73.3149 242.575 73.5081L242.455 74.3549C242.341 75.1108 242.176 76.2077 241.971 77.6058C241.544 80.4475 240.901 84.5167 240.087 89.5408C238.458 99.6287 236.101 113.542 233.431 128.904C230.761 144.266 228.364 158.173 226.685 168.249C225.848 173.279 225.17 177.343 224.703 180.184C224.47 181.582 224.288 182.674 224.134 183.429C224.071 183.788 224.026 184.066 223.986 184.271C223.946 184.475 223.923 184.555 223.923 184.555C223.923 184.555 223.923 184.458 223.957 184.265C223.992 184.072 224.026 183.782 224.071 183.418C224.185 182.662 224.35 181.565 224.555 180.167C224.982 177.326 225.626 173.256 226.44 168.232C228.068 158.144 230.425 144.226 233.101 128.864C235.777 113.502 238.185 99.6003 239.893 89.501C240.724 84.4713 241.402 80.4077 241.874 77.566L242.415 74.3208L242.563 73.4797C242.572 73.3919 242.585 73.3047 242.603 73.2183Z" fill="#E0E0E0"/>
<path d="M227.174 98.3784C227.33 98.5387 227.468 98.716 227.584 98.907C227.835 99.2593 228.154 99.7765 228.598 100.419C229.435 101.709 230.545 103.516 231.729 105.534L234.741 110.723L235.657 112.286C235.787 112.46 235.893 112.651 235.97 112.854C235.812 112.696 235.673 112.521 235.555 112.331C235.31 111.979 234.986 111.461 234.553 110.814C233.727 109.512 232.64 107.688 231.456 105.67L228.41 100.504C228.045 99.8902 227.732 99.3673 227.482 98.9411C227.355 98.7678 227.252 98.5787 227.174 98.3784Z" fill="#E0E0E0"/>
<path d="M236.836 112.803C236.785 112.729 240.423 110.285 244.96 107.335C249.498 104.386 253.204 102.061 253.255 102.129C253.307 102.198 249.663 104.653 245.131 107.597C240.599 110.541 236.882 112.865 236.836 112.803Z" fill="#E0E0E0"/>
<path d="M231.678 136.196C231.883 136.095 232.099 136.016 232.321 135.963L234.097 135.423C235.595 134.962 237.667 134.326 239.922 133.536C242.176 132.746 244.203 131.979 245.666 131.404L247.374 130.728C247.582 130.627 247.802 130.555 248.029 130.512C247.84 130.642 247.638 130.75 247.425 130.836C247.027 131.029 246.452 131.297 245.717 131.609C244.283 132.234 242.267 133.047 240.024 133.831C237.781 134.616 235.674 135.229 234.16 135.633C233.397 135.832 232.782 135.985 232.35 136.082C232.131 136.146 231.905 136.185 231.678 136.196Z" fill="#E0E0E0"/>
<path d="M220.063 125.079C220.246 125.187 220.414 125.317 220.564 125.465C220.872 125.727 221.316 126.113 221.851 126.602C222.933 127.574 224.407 128.926 226.024 130.433C227.641 131.939 229.093 133.32 230.135 134.331C230.653 134.831 231.069 135.246 231.353 135.536C231.51 135.678 231.652 135.836 231.775 136.008C231.59 135.905 231.422 135.777 231.274 135.627C230.96 135.366 230.522 134.974 229.981 134.49C228.905 133.524 227.425 132.172 225.808 130.66C224.191 129.148 222.739 127.773 221.703 126.767C221.179 126.261 220.764 125.852 220.479 125.556C220.32 125.416 220.181 125.255 220.063 125.079Z" fill="#E0E0E0"/>
<path d="M212.878 145.164C213.108 145.307 213.322 145.475 213.516 145.664L215.173 147.113C216.562 148.346 218.464 150.063 220.559 151.978C222.654 153.893 224.544 155.638 225.882 156.911L227.47 158.434C227.679 158.604 227.869 158.795 228.04 159.003C227.813 158.855 227.599 158.688 227.402 158.503L225.745 157.053C224.356 155.82 222.455 154.098 220.359 152.188C218.264 150.279 216.374 148.528 215.042 147.255L213.436 145.766C213.23 145.586 213.043 145.384 212.878 145.164Z" fill="#E0E0E0"/>
<path d="M227.755 158.588C228.013 158.46 228.281 158.356 228.558 158.275L230.789 157.508C232.668 156.86 235.264 155.956 238.105 154.882C240.946 153.808 243.491 152.774 245.324 152.012L247.505 151.109C247.767 150.985 248.039 150.886 248.319 150.813C248.08 150.976 247.824 151.113 247.556 151.222C247.055 151.467 246.326 151.791 245.416 152.211C243.599 153.029 241.06 154.098 238.213 155.172C235.367 156.246 232.759 157.133 230.858 157.701C229.907 157.997 229.15 158.224 228.58 158.372C228.313 158.471 228.036 158.543 227.755 158.588Z" fill="#E0E0E0"/>
<path d="M44.5217 182.338C57.6675 174.848 61.9375 159.116 62.7403 144.698C62.8769 142.288 63.3722 139.787 62.4214 137.576C61.4707 135.366 58.9371 133.683 56.694 134.496C54.8323 135.172 53.8473 137.173 52.7087 138.798C51.1636 140.962 49.0382 142.646 46.577 143.658C44.9715 144.311 43.0357 144.618 41.601 143.658C39.6311 142.322 39.6482 139.441 39.893 137.059C40.3447 132.604 40.7793 128.155 41.1968 123.715C41.4302 121.333 41.6636 118.895 41.1285 116.565C40.5933 114.235 39.1415 111.973 36.9268 111.132C34.7121 110.291 31.7744 111.336 31.0798 113.633C30.7951 114.587 30.8976 115.61 30.7439 116.594C30.5902 117.577 30.0208 118.634 29.0359 118.827C28.0509 119.02 27.1628 118.259 26.5138 117.492C24.2364 114.854 22.8757 111.598 21.5947 108.364C20.3137 105.13 19.084 101.84 17.0856 99.0037C15.0873 96.1677 12.1837 93.8091 8.7791 93.3203C5.3745 92.8316 1.53152 94.5934 0.358696 97.867C-0.814125 101.141 0.831241 104.744 2.72142 107.665C5.54075 111.988 8.96916 115.883 12.9011 119.231C13.607 119.833 14.3699 120.487 14.609 121.396C14.9791 123.033 13.3224 124.476 11.7055 124.857C9.86652 125.283 7.94788 124.92 6.06908 124.971C4.19029 125.022 2.08377 125.653 1.22408 127.352C0.017098 129.699 1.82757 132.467 3.68359 134.303C7.40322 138.027 11.7387 141.082 16.4992 143.334C18.2072 144.135 19.9949 144.868 21.2987 146.232C22.6025 147.596 23.2629 149.818 22.2552 151.421C21.2474 153.024 18.9929 153.365 17.1824 152.853C15.3719 152.342 13.8177 151.194 12.1211 150.375C8.9499 148.835 4.68561 148.67 2.32289 151.313C0.768614 153.052 0.409935 155.632 0.905253 157.917C1.40057 160.202 2.64171 162.248 3.98533 164.169C8.68231 170.818 14.9677 176.399 22.3519 179.735C29.7362 183.072 36.7219 184.43 44.5558 182.361" fill="#F5F5F5"/>
<path d="M43.736 193.012C43.6757 186.284 42.9723 179.578 41.6351 172.984C39.9607 164.933 37.826 156.984 35.2415 149.176L33.2261 143.032C32.5657 141.015 31.9109 139.014 31.148 137.093C29.6812 133.414 28.0105 129.818 26.1436 126.323C24.3844 122.976 22.5967 119.861 20.9001 116.963C19.2035 114.064 17.5581 111.393 15.964 109.006C13.4621 105.261 10.6675 101.718 7.60622 98.4126C6.52449 97.2418 5.65911 96.3609 5.06131 95.7698L4.37811 95.1049C4.30253 95.0264 4.22066 94.9541 4.1333 94.8889C4.19743 94.9754 4.26784 95.0571 4.34395 95.1333L4.99868 95.8324C5.56801 96.4405 6.42201 97.3441 7.48096 98.5319C10.487 101.879 13.237 105.447 15.7078 109.205C17.2848 111.575 18.9017 114.252 20.587 117.162C22.2722 120.072 24.0485 123.186 25.7906 126.528C27.6435 130.007 29.3064 133.583 30.7723 137.241C31.5238 139.151 32.1728 141.134 32.8276 143.157C33.4823 145.181 34.1484 147.227 34.8259 149.307C37.4014 157.095 39.5416 165.021 41.2366 173.046C42.5867 179.613 43.3186 186.292 43.4228 192.995" fill="#E0E0E0"/>
<path d="M31.0459 137.065C31.1971 136.748 31.308 136.414 31.3761 136.07C31.564 135.422 31.7974 134.479 32.0764 133.303C32.6457 130.955 33.2891 127.693 34.0007 124.09C34.7124 120.487 35.4127 117.241 36.0048 114.911C36.2951 113.775 36.5399 112.803 36.7221 112.155C36.8333 111.823 36.9096 111.48 36.9499 111.132C36.7811 111.439 36.6493 111.765 36.557 112.104C36.3293 112.74 36.0332 113.672 35.703 114.832C35.0312 117.145 34.2797 120.396 33.568 124.005L31.769 133.263C31.5469 134.371 31.359 135.309 31.1996 136.059C31.1167 136.389 31.0653 136.726 31.0459 137.065Z" fill="#E0E0E0"/>
<path d="M0.836914 128.523C1.23299 128.643 1.63873 128.729 2.04959 128.779C2.83526 128.921 3.96823 129.12 5.3574 129.415C8.14712 129.984 11.9673 130.882 16.1405 132.069C20.3137 133.257 24.0428 134.508 26.7187 135.479C28.0566 135.957 29.1327 136.372 29.8728 136.656C30.2496 136.828 30.6424 136.963 31.0456 137.059C30.6971 136.834 30.3271 136.644 29.9411 136.491C29.2181 136.156 28.1591 135.695 26.8269 135.178C24.1738 134.121 20.4504 132.831 16.2601 131.632C12.691 130.599 9.07096 129.751 5.41433 129.091C4.01378 128.841 2.86943 128.688 2.07806 128.597C1.66792 128.53 1.25207 128.506 0.836914 128.523Z" fill="#E0E0E0"/>
<path d="M41.3052 172.387C41.4042 172.28 41.4867 172.16 41.55 172.029L42.1819 170.966C42.7513 170.045 43.4686 168.693 44.3682 166.988C46.173 163.612 48.5243 158.866 51.0407 153.592C53.5572 148.318 55.8573 143.555 57.5937 140.145L59.6547 136.11L60.224 135.007C60.2941 134.882 60.3496 134.748 60.3891 134.61C60.293 134.716 60.2108 134.835 60.1443 134.962L59.5181 136.025C58.9772 136.951 58.2314 138.298 57.3261 140.003C55.5214 143.385 53.1757 148.13 50.6536 153.404C48.1315 158.679 45.837 163.436 44.1063 166.851L42.0396 170.886L41.4703 171.989C41.3971 172.113 41.3415 172.247 41.3052 172.387Z" fill="#E0E0E0"/>
<path d="M1.66846 155.507C1.78882 155.594 1.92114 155.663 2.0613 155.712L3.19996 156.218L7.44147 158.036C11.0283 159.565 15.9814 161.742 21.3901 164.152C26.7987 166.561 31.7747 168.698 35.3956 170.153C37.2004 170.886 38.6693 171.46 39.6941 171.858L40.8726 172.29C41.008 172.346 41.1493 172.386 41.2939 172.41C41.1762 172.322 41.0456 172.253 40.9067 172.205L39.7681 171.699L35.5038 169.863C31.917 168.329 26.9638 166.152 21.5552 163.742C16.1465 161.333 11.1649 159.196 7.54965 157.741C5.74487 157.013 4.27599 156.434 3.2512 156.036L2.07268 155.61C1.94242 155.56 1.80675 155.526 1.66846 155.507Z" fill="#E0E0E0"/>
<path d="M84.9386 10.9006V57.8109H17.4501L15.019 11.2303L84.9386 10.9006Z" fill="#E0E0E0"/>
<path d="M15.019 11.236L15.019 57.7144L82.5075 57.7144V11.236L15.019 11.236Z" fill="white"/>
<path d="M82.832 58.0326H14.7002V10.9121H82.832V58.0326ZM15.3435 57.3904H82.1887V11.5486H15.3435V57.3904Z" fill="#E0E0E0"/>
<path d="M75.1972 17.0046H22.3291V51.9344H75.1972V17.0046Z" fill="white"/>
<path d="M75.2031 17.0045H74.9412H74.2181H71.3145L60.4175 17.0443L22.3578 17.1182L22.5115 16.9647C22.5115 27.638 22.5115 39.4651 22.5115 51.8945L22.3407 51.7297L75.2145 51.7638L75.0778 51.8945C75.112 41.2667 75.1347 32.5712 75.1518 26.4843C75.1518 23.4494 75.1518 21.0795 75.186 19.454C75.186 18.6527 75.186 18.0332 75.186 17.6069C75.186 17.1807 75.186 16.9647 75.186 16.9647C75.186 16.9647 75.186 17.1693 75.186 17.5785C75.186 17.9877 75.186 18.6072 75.186 19.4029C75.186 21.017 75.186 23.3812 75.2201 26.3991C75.2201 32.4859 75.26 41.2326 75.2885 51.8945V52.0309H75.1575L22.2838 52.065H22.1187V51.8945C22.1187 39.4651 22.1187 27.638 22.1187 16.9647V16.8113H22.2667L60.4118 16.8908L71.2747 16.9306H74.1213H74.8558L75.2031 17.0045Z" fill="#E0E0E0"/>
<path d="M15.0073 11.0996C15.4146 11.305 15.7967 11.5567 16.1459 11.8498C16.8405 12.3499 17.7799 13.0547 18.7933 13.8674C19.8067 14.6801 20.7006 15.4417 21.3326 16.0157C21.6943 16.3029 22.0177 16.6352 22.2947 17.0046C22.2321 17.0785 20.5867 15.7429 18.5827 14.1231C16.5786 12.5034 14.9617 11.1792 15.0073 11.0996Z" fill="#E0E0E0"/>
<path d="M82.5133 11.2302C81.403 12.3197 80.2157 13.3283 78.9607 14.2481C77.7762 15.2558 76.5204 16.177 75.2031 17.0045C76.3208 15.9164 77.5137 14.908 78.7728 13.9866C79.9525 12.9803 81.2025 12.0591 82.5133 11.2302Z" fill="#E0E0E0"/>
<path d="M82.4559 57.72L74.9351 51.6274L82.4559 57.72Z" fill="white"/>
<path d="M74.9353 51.6274C76.2865 52.5137 77.5779 53.4876 78.8011 54.543C80.0919 55.5159 81.3133 56.5775 82.4562 57.72C81.1034 56.836 79.8119 55.862 78.5904 54.8044C76.4953 53.1278 74.8727 51.7013 74.9353 51.6274Z" fill="#E0E0E0"/>
<path d="M15.0078 57.7143C16.1076 56.6352 17.2834 55.6361 18.5263 54.7248C19.6995 53.7291 20.9419 52.8175 22.244 51.9968C21.1471 53.0768 19.9731 54.0759 18.7312 54.9863C17.5561 55.9822 16.3119 56.8938 15.0078 57.7143Z" fill="#E0E0E0"/>
<path d="M33.0669 27.8938V39.5901H66.3329V27.8938H33.0669Z" fill="#E0E0E0"/>
<path d="M240.781 0H204.697V52.2128H240.781V0Z" fill="#E0E0E0"/>
<path d="M238.977 0H202.893V52.2128H238.977V0Z" fill="#F5F5F5"/>
<path d="M234.49 5.65503H207.373V46.558H234.49V5.65503Z" fill="white"/>
<path d="M234.496 46.5579C234.496 46.5579 234.496 46.4897 234.496 46.359V45.7907C234.496 45.2735 234.496 44.5233 234.496 43.5458C234.496 41.585 234.496 38.732 234.496 35.1231C234.496 27.9109 234.467 17.6923 234.45 5.66633L234.541 5.75727H207.373L207.475 5.66065C207.475 21.0909 207.475 35.3163 207.475 46.5807L207.396 46.5011L227.134 46.5466H232.589H234.023H234.519H234.04H232.623H227.186L207.396 46.5863H207.322V46.5068C207.322 35.2595 207.322 21.0341 207.322 5.58676V5.55835H234.65V5.64928C234.65 17.7036 234.621 27.9336 234.61 35.1628C234.61 38.7604 234.61 41.6134 234.581 43.5685C234.581 44.5347 234.581 45.2735 234.581 45.7907V46.359C234.496 46.4954 234.496 46.5579 234.496 46.5579Z" fill="#E0E0E0"/>
<path d="M239.079 0C238.896 0.331069 238.681 0.643274 238.436 0.932069C238.015 1.5004 237.423 2.25628 236.728 3.08037C236.033 3.90445 235.413 4.63192 234.94 5.1491C234.706 5.44033 234.447 5.71039 234.166 5.95613C234.369 5.63724 234.599 5.33676 234.855 5.05817L236.591 2.95533C237.246 2.15398 237.844 1.4322 238.328 0.846818C238.554 0.543764 238.805 0.260467 239.079 0Z" fill="#E0E0E0"/>
<path d="M234.632 46.4272C235.983 48.5662 237.57 50.547 239.363 52.3322L234.632 46.4272Z" fill="white"/>
<path d="M239.364 52.3322C239.064 52.1111 238.787 51.8597 238.538 51.582C238.054 51.0933 237.4 50.3942 236.751 49.5758C236.193 48.8749 235.67 48.1465 235.185 47.3934C234.963 47.0915 234.772 46.7678 234.616 46.4272C234.861 46.7068 235.083 47.0052 235.282 47.3195C235.68 47.8879 236.238 48.6381 236.887 49.4508C237.536 50.2635 238.163 50.9796 238.624 51.4854C238.891 51.7495 239.138 52.0326 239.364 52.3322Z" fill="#E0E0E0"/>
<path d="M202.887 52.173L207.612 46.3533L202.887 52.173Z" fill="white"/>
<path d="M207.612 46.3533C206.907 47.384 206.147 48.3762 205.335 49.3257C204.026 50.9284 202.932 52.2071 202.893 52.1673C203.599 51.1376 204.359 50.1454 205.17 49.1949C205.934 48.2061 206.749 47.2576 207.612 46.3533Z" fill="#E0E0E0"/>
<path d="M202.887 0C203.695 0.871669 204.455 1.78611 205.164 2.73936C205.928 3.64801 206.642 4.59657 207.305 5.58103C206.495 4.71104 205.735 3.79648 205.027 2.84166C204.264 1.93302 203.549 0.984459 202.887 0Z" fill="#E0E0E0"/>
<path d="M226.041 13.9583H216.96V39.6924H226.041V13.9583Z" fill="#E0E0E0"/>
<path d="M248.393 212.829C248.393 212.915 192.929 212.977 124.535 212.977C56.1416 212.977 0.666016 212.937 0.666016 212.829C0.666016 212.721 56.1132 212.682 124.535 212.682C192.958 212.682 248.393 212.773 248.393 212.829Z" fill="#263238"/>
<path d="M178.804 114.508C179.227 116.224 179.178 118.022 178.662 119.713C178.146 121.403 177.182 122.923 175.872 124.113C174.136 125.647 171.887 126.534 170.293 128.222C169.306 129.344 168.627 130.703 168.323 132.165C168.019 133.627 168.099 135.143 168.556 136.565C169.04 137.976 169.806 139.275 170.807 140.383C171.808 141.491 173.024 142.384 174.381 143.01C176.228 143.872 178.254 144.285 180.292 144.216C182.331 144.146 184.324 143.597 186.109 142.612C190.51 140.128 193.072 135.144 193.721 130.137C194.37 125.13 193.351 120.06 192.013 115.19" fill="#263238"/>
<path d="M234.308 202.798C238.863 202.054 243.133 203.441 247.642 204.435C248.841 204.79 250.107 204.858 251.337 204.634C253.29 204.134 254.679 202.236 254.981 200.247C255.225 198.504 254.819 196.732 253.842 195.268C253.45 194.637 252.916 194.106 252.282 193.716C251.603 193.377 250.86 193.183 250.101 193.148C247.338 192.926 244.566 193.448 242.074 194.66C239.589 195.866 237.334 197.497 235.413 199.479C234.456 200.434 234.741 201.531 234.319 202.815" fill="#263238"/>
<path d="M141.968 129.415C141.238 125.08 141.327 120.646 142.23 116.344C142.612 114.24 143.384 112.225 144.507 110.405C144.89 109.725 145.472 109.18 146.176 108.842C146.686 108.672 147.234 108.648 147.758 108.771C148.282 108.895 148.761 109.161 149.142 109.541C149.628 110.046 150.002 110.649 150.237 111.309C150.473 111.97 150.565 112.673 150.508 113.371C150.407 114.768 150.064 116.137 149.495 117.418C147.736 121.908 144.94 125.636 141.951 129.41" fill="#263238"/>
<path d="M230.215 145.846C231.245 146.579 254.127 195.779 254.127 195.779C252.287 194.995 250.249 194.796 248.291 195.211L247.05 195.541C244.829 196.137 242.722 197.097 240.816 198.382L234.286 202.793C234.027 202.644 233.808 202.436 233.647 202.186C233.485 201.936 233.386 201.651 233.358 201.355V201.167L215.617 170.773L230.215 145.846Z" fill="#FECE3E"/>
<path d="M144.297 67.5181L150.4 102.147C152.364 106.807 175.269 135.042 175.269 135.042L167.697 159.332L137.613 118.27C134.82 115.289 133.3 111.338 133.377 107.256L134.55 70.2574L144.297 67.5181Z" fill="#FFBE9D"/>
<path d="M176.777 129.614L192.485 130.802L206.183 132.922C206.183 132.922 230.215 139.225 230.215 141.85C230.215 142.725 223.656 163.578 219.967 176.07C219.062 179.104 218.325 182.185 217.758 185.299L230.215 212.829H171.101V187.59C171.101 187.59 167.116 154.439 167.816 149.909C168.516 145.38 176.777 129.614 176.777 129.614Z" fill="#FECE3E"/>
<path d="M136.845 53.5255C136.937 49.9985 137.299 46.4836 137.926 43.0114C138.012 42.5169 138.217 41.9202 138.712 41.8747C139.327 41.7951 139.64 42.5851 139.72 43.1989C140.266 47.3864 140.091 51.6362 139.202 55.7648" fill="#EB996E"/>
<path d="M143.847 126.852C150.588 120.839 150.816 110.421 150.241 102.129C150.128 101.524 150.22 100.898 150.503 100.351C151.146 99.4355 152.712 99.7822 153.349 100.703C153.987 101.624 153.919 102.834 153.885 103.948C154.232 103.005 155.712 103.01 156.407 103.738C157.101 104.465 157.221 105.562 157.3 106.58L157.523 109.353L177.216 128.108C177.216 128.108 177.757 126.403 179.203 127.386C180.649 128.369 181.582 130.444 181.582 130.444L167.708 160.673L141.957 129.415C142.452 128.469 143.09 127.605 143.847 126.852Z" fill="#FECE3E"/>
<path d="M170.572 147.772C168.517 150.388 166.983 153.373 166.051 156.564C165.123 159.777 165.225 163.199 166.342 166.351C167.206 168.532 168.621 170.452 170.45 171.924C172.279 173.396 174.459 174.37 176.777 174.751" fill="#FECE3E"/>
<path d="M234.308 202.798L233.562 212.83H248.154L251.57 195.069C247.125 194.821 242.742 196.193 239.233 198.928L234.308 202.798Z" fill="#FFBE9D"/>
<path d="M150.708 124.63C150.79 124.354 150.897 124.086 151.026 123.829C151.254 123.328 151.562 122.59 151.909 121.669C152.256 120.748 152.626 119.634 152.973 118.384C153.334 117.019 153.621 115.636 153.833 114.241C154.03 112.845 154.15 111.439 154.192 110.029C154.192 108.728 154.192 107.557 154.112 106.574C154.032 105.591 153.958 104.801 153.884 104.255C153.835 103.972 153.809 103.685 153.805 103.397C153.897 103.67 153.962 103.952 153.998 104.238C154.146 105.005 154.254 105.779 154.323 106.557C154.434 107.713 154.481 108.874 154.465 110.035C154.422 112.882 154.008 115.711 153.235 118.452C152.917 119.569 152.537 120.668 152.097 121.743C151.721 122.663 151.385 123.391 151.123 123.88C151.004 124.14 150.865 124.391 150.708 124.63Z" fill="#263238"/>
<path d="M154.995 119.35C155.18 118.861 155.393 118.383 155.632 117.918C156.629 115.611 157.207 113.146 157.34 110.637C157.339 110.115 157.368 109.593 157.426 109.074C157.538 109.589 157.58 110.117 157.551 110.643C157.531 113.192 156.948 115.705 155.843 118.003C155.625 118.49 155.34 118.943 154.995 119.35Z" fill="#263238"/>
<path d="M178.121 135.07C178.075 135.042 178.314 134.672 178.451 134.002C178.611 133.125 178.56 132.223 178.303 131.37C178.032 130.512 177.703 129.672 177.318 128.858C177.138 128.521 177.004 128.162 176.919 127.79C177.145 128.094 177.336 128.421 177.489 128.767C177.939 129.568 178.304 130.414 178.576 131.291C178.848 132.189 178.87 133.144 178.639 134.053C178.567 134.434 178.387 134.788 178.121 135.07Z" fill="#263238"/>
<path d="M174.699 175.103C174.61 175.067 174.526 175.019 174.449 174.961L173.777 174.518C173.208 174.126 172.359 173.552 171.369 172.773C170.198 171.873 169.127 170.85 168.175 169.721C167.003 168.324 166.159 166.683 165.704 164.919C165.269 163.154 165.157 161.325 165.374 159.52C165.548 158.056 165.875 156.614 166.347 155.217C166.661 154.276 167.024 153.352 167.435 152.45C167.583 152.131 167.697 151.881 167.782 151.722C167.82 151.634 167.867 151.55 167.924 151.472C167.817 151.82 167.689 152.162 167.543 152.495C167.287 153.143 166.917 154.086 166.547 155.28C166.109 156.67 165.808 158.1 165.647 159.548C165.449 161.32 165.564 163.113 165.989 164.845C166.432 166.57 167.25 168.177 168.386 169.551C169.318 170.672 170.361 171.697 171.5 172.608C172.468 173.404 173.282 174.001 173.845 174.427L174.483 174.916C174.631 175.03 174.705 175.092 174.699 175.103Z" fill="#263238"/>
<path d="M206.952 180.724C206.873 180.766 206.788 180.797 206.701 180.815C206.53 180.861 206.286 180.946 205.961 181.009C205.044 181.207 204.11 181.319 203.171 181.344C200.043 181.44 196.957 180.598 194.312 178.928C191.666 177.258 189.583 174.835 188.329 171.972C187.947 171.116 187.647 170.225 187.435 169.312C187.355 168.988 187.327 168.744 187.293 168.562C187.273 168.474 187.264 168.385 187.264 168.295C187.381 168.616 187.476 168.944 187.549 169.278C188.455 172.71 190.484 175.74 193.314 177.888C196.143 180.036 199.611 181.179 203.166 181.134C204.095 181.129 205.022 181.049 205.938 180.895C206.273 180.82 206.611 180.763 206.952 180.724Z" fill="#263238"/>
<path d="M216.01 191.801C215.93 191.801 216.682 188.636 217.718 184.782C218.754 180.929 219.608 177.82 219.682 177.843C219.756 177.866 219.011 181.003 218.003 184.856C216.995 188.709 216.09 191.801 216.01 191.801Z" fill="#263238"/>
<path d="M223.952 185.1C223.884 185.14 221.595 181.406 218.828 176.757C216.061 172.108 213.898 168.306 213.972 168.266C214.046 168.227 216.329 171.955 219.096 176.604C221.862 181.253 224.049 185.055 223.952 185.1Z" fill="#263238"/>
<path d="M245.809 194.302C245.809 194.359 244.977 194.427 243.679 194.756C242.921 194.949 242.177 195.194 241.453 195.49C240.57 195.863 239.718 196.303 238.903 196.808C238.099 197.325 237.337 197.904 236.625 198.541C236.045 199.071 235.503 199.641 235.003 200.246C234.149 201.275 233.728 201.997 233.676 201.951C233.745 201.767 233.835 201.592 233.944 201.429C234.208 200.963 234.506 200.519 234.838 200.099C235.324 199.471 235.859 198.882 236.438 198.337C237.154 197.675 237.927 197.078 238.749 196.552C239.578 196.038 240.451 195.597 241.357 195.234C242.095 194.943 242.857 194.713 243.634 194.546C244.154 194.426 244.684 194.346 245.217 194.307C245.413 194.277 245.612 194.275 245.809 194.302Z" fill="#263238"/>
<path d="M248.598 190.881C248.598 190.943 247.682 190.829 246.219 190.954C245.365 191.031 244.519 191.18 243.691 191.398C241.659 191.936 239.76 192.886 238.111 194.188C237.441 194.721 236.816 195.308 236.244 195.944C235.27 197.036 234.815 197.831 234.764 197.803C234.84 197.602 234.942 197.411 235.065 197.235C235.187 197.015 235.324 196.804 235.475 196.604C235.665 196.328 235.868 196.063 236.085 195.808C236.644 195.141 237.266 194.528 237.941 193.978C238.776 193.31 239.676 192.727 240.628 192.239C241.586 191.771 242.589 191.401 243.622 191.136C244.47 190.924 245.335 190.793 246.207 190.744C246.539 190.728 246.872 190.728 247.204 190.744C247.457 190.745 247.709 190.76 247.961 190.79C248.176 190.793 248.391 190.823 248.598 190.881Z" fill="#263238"/>
<g opacity="0.3">
<path opacity="0.3" d="M187.874 169.505C186.536 172.04 187.652 175.132 188.876 177.729C189.826 179.741 190.885 181.781 192.616 183.185C193.467 183.879 194.452 184.39 195.509 184.686C196.567 184.982 197.674 185.057 198.762 184.905C199.85 184.754 200.895 184.379 201.831 183.805C202.767 183.232 203.574 182.471 204.202 181.571C200.573 181.517 197.045 180.369 194.082 178.276C191.119 176.183 188.859 173.245 187.6 169.846" fill="black"/>
</g>
<g opacity="0.3">
<path opacity="0.3" d="M214.012 168.267C212.987 170.705 213.761 174.041 214.831 176.456C215.902 178.872 217.04 181.571 216.181 184.078C215.959 184.523 215.844 185.013 215.845 185.51C215.902 185.999 216.414 186.47 216.875 186.243C217.114 186.076 217.279 185.823 217.336 185.538C218.145 183.106 218.955 180.675 219.767 178.247" fill="black"/>
</g>
<path d="M160.153 136.161C160.245 134.635 160.435 133.116 160.722 131.615C160.916 130.105 161.207 128.609 161.593 127.136C161.507 128.663 161.317 130.182 161.024 131.683C160.832 133.193 160.541 134.689 160.153 136.161Z" fill="#FAFAFA"/>
<path d="M154.158 134.905C154.084 134.951 153.105 133.587 151.75 132.018C150.395 130.45 149.199 129.273 149.256 129.211C150.277 129.956 151.192 130.835 151.977 131.825C152.835 132.753 153.568 133.789 154.158 134.905Z" fill="#FAFAFA"/>
<path d="M159.305 120.265C159.133 120.631 158.917 120.975 158.661 121.288C158.229 121.896 157.597 122.709 156.862 123.561C156.128 124.414 155.422 125.181 154.892 125.704C154.627 126.008 154.323 126.275 153.987 126.5C153.924 126.443 155.171 125.096 156.635 123.368C158.098 121.64 159.236 120.191 159.305 120.265Z" fill="#FAFAFA"/>
<path d="M157.295 113.11C157.209 113.144 156.885 112.422 156.259 111.7C155.632 110.978 154.961 110.564 155.006 110.478C155.598 110.648 156.117 111.01 156.481 111.507C156.919 111.939 157.204 112.502 157.295 113.11Z" fill="#FAFAFA"/>
<path d="M152.103 117.52C151.638 117.739 151.136 117.868 150.623 117.901C150.125 118.03 149.606 118.061 149.097 117.992C150.059 117.643 151.08 117.483 152.103 117.52Z" fill="#FAFAFA"/>
<path d="M165.203 123.834C165.216 122.949 165.153 122.065 165.015 121.191C164.779 120.338 164.469 119.507 164.087 118.708C164.733 119.37 165.156 120.216 165.3 121.129C165.543 122.019 165.509 122.963 165.203 123.834Z" fill="#FAFAFA"/>
<path d="M172.2 131.348C171.15 129.674 169.74 128.255 168.072 127.193C169.014 127.558 169.868 128.116 170.579 128.832C171.29 129.548 171.842 130.405 172.2 131.348Z" fill="#FAFAFA"/>
<path d="M160.967 144.385C159.272 145.019 157.394 144.956 155.746 144.209C155.775 144.124 156.885 144.482 158.348 144.521C159.811 144.561 160.944 144.3 160.967 144.385Z" fill="#FAFAFA"/>
<path d="M166.239 147.085C166.16 147.051 166.604 145.743 166.974 144.084C167.344 142.424 167.509 141.049 167.594 141.06C167.653 142.1 167.541 143.142 167.264 144.146C167.083 145.175 166.737 146.167 166.239 147.085Z" fill="#FAFAFA"/>
<path d="M177.757 147.522C176.856 146.763 176.023 145.926 175.269 145.022C174.435 144.185 173.674 143.28 172.991 142.316C173.888 143.08 174.719 143.919 175.474 144.823C176.306 145.66 177.069 146.563 177.757 147.522Z" fill="#FAFAFA"/>
<path d="M183.12 160.804C182.437 160.31 181.814 159.738 181.264 159.099C180.646 158.527 180.096 157.886 179.624 157.19C180.307 157.684 180.93 158.256 181.48 158.895C182.103 159.462 182.653 160.103 183.12 160.804Z" fill="#FAFAFA"/>
<path d="M173.151 162.072C172.496 162.767 171.726 163.344 170.873 163.777C170.072 164.31 169.181 164.695 168.243 164.913C168.243 164.834 169.382 164.345 170.725 163.544C172.069 162.742 173.094 162.004 173.151 162.072Z" fill="#FAFAFA"/>
<path d="M177.74 174.706C177.654 174.706 177.996 173.194 178.167 171.324C178.337 169.454 178.286 167.914 178.372 167.914C178.581 169.039 178.611 170.19 178.463 171.324C178.406 172.483 178.162 173.625 177.74 174.706Z" fill="#FAFAFA"/>
<path d="M194.996 164.436C194.055 163.861 193.221 163.129 192.531 162.27C191.769 161.477 191.154 160.555 190.714 159.548C190.788 159.497 191.568 160.73 192.753 162.077C193.937 163.424 195.053 164.362 194.996 164.436Z" fill="#FAFAFA"/>
<path d="M201.299 169.795C201.23 169.744 202.096 168.562 203.064 167.045C204.032 165.527 204.743 164.254 204.817 164.294C204.448 165.327 203.94 166.306 203.308 167.204C202.762 168.156 202.086 169.029 201.299 169.795Z" fill="#FAFAFA"/>
<path d="M200.376 156.678C198.432 156.356 196.525 155.842 194.683 155.144C195.664 155.26 196.633 155.47 197.575 155.769C198.537 155.977 199.475 156.281 200.376 156.678Z" fill="#FAFAFA"/>
<path d="M195.782 179.764C195.681 178.869 195.681 177.965 195.782 177.07C195.789 176.169 195.892 175.272 196.089 174.393C196.192 175.288 196.192 176.192 196.089 177.087C196.084 177.988 195.98 178.885 195.782 179.764Z" fill="#FAFAFA"/>
<path d="M199.755 187.669C200.054 186.751 200.293 185.816 200.473 184.867C200.552 183.905 200.567 182.939 200.518 181.975C200.812 182.92 200.896 183.919 200.764 184.9C200.633 185.882 200.288 186.823 199.755 187.658V187.669Z" fill="#FAFAFA"/>
<path d="M189.457 185.925C189.166 183.961 189.552 181.958 190.55 180.241C190.629 180.275 190.106 181.474 189.809 183.049C189.513 184.623 189.542 185.919 189.457 185.925Z" fill="#FAFAFA"/>
<path d="M180.062 189.931C179.134 189.288 178.241 188.595 177.386 187.857C176.472 187.196 175.592 186.488 174.75 185.737C175.774 186.246 176.73 186.88 177.597 187.624C178.506 188.294 179.334 189.069 180.062 189.931Z" fill="#FAFAFA"/>
<path d="M186.422 178.781C184.243 180.161 181.959 181.368 179.59 182.39C180.662 181.653 181.789 181 182.96 180.435C184.07 179.795 185.227 179.242 186.422 178.781Z" fill="#FAFAFA"/>
<path d="M206.183 203.804C206.062 203.844 205.939 203.874 205.813 203.895C205.568 203.941 205.21 204.032 204.743 204.094C203.424 204.295 202.091 204.381 200.757 204.35C197.313 204.3 193.918 203.521 190.798 202.066C187.677 200.61 184.901 198.51 182.653 195.905C181.347 194.405 180.228 192.752 179.322 190.983C178.704 189.797 178.194 188.559 177.796 187.283C177.643 186.834 177.569 186.476 177.5 186.237C177.462 186.115 177.438 185.989 177.426 185.862C177.481 185.977 177.525 186.097 177.557 186.22C177.643 186.453 177.734 186.788 177.905 187.249C178.996 190.364 180.678 193.241 182.858 195.723C185.111 198.268 187.862 200.328 190.941 201.775C194.02 203.222 197.362 204.027 200.763 204.14C202.094 204.189 203.426 204.136 204.748 203.981C205.221 203.935 205.58 203.861 205.824 203.838C205.942 203.814 206.063 203.802 206.183 203.804Z" fill="#263238"/>
<path d="M189.172 200.86C188.977 199.958 189.071 199.018 189.439 198.172C189.717 197.292 190.267 196.522 191.011 195.973C190.508 196.699 190.075 197.472 189.718 198.28C189.457 199.122 189.274 199.985 189.172 200.86Z" fill="#FAFAFA"/>
<path d="M184.486 198.905C183.946 199.323 183.45 199.795 183.006 200.315C182.636 200.887 182.323 201.494 182.072 202.128C182.091 201.407 182.334 200.711 182.766 200.133C183.198 199.556 183.799 199.127 184.486 198.905Z" fill="#FAFAFA"/>
<path d="M202.505 209.613C201.574 209.538 200.673 209.241 199.881 208.747C199.088 208.252 198.426 207.574 197.951 206.771C199.189 208.106 200.761 209.087 202.505 209.613Z" fill="#FAFAFA"/>
<path d="M205.307 193.87C205.187 194.705 204.834 195.49 204.287 196.134C203.74 196.777 203.022 197.253 202.215 197.507C202.881 197.049 203.499 196.525 204.06 195.944C204.546 195.297 204.964 194.602 205.307 193.87Z" fill="#FAFAFA"/>
<path d="M213.272 205.606C213.203 205.549 213.955 204.6 214.649 203.293C215.344 201.986 215.714 200.832 215.788 200.86C215.466 202.668 214.581 204.328 213.26 205.606H213.272Z" fill="#FAFAFA"/>
<path d="M223.798 207.146C223.832 207.231 222.796 207.64 221.754 208.499C220.713 209.357 220.086 210.278 220.012 210.204C220.339 209.42 220.877 208.741 221.566 208.243C222.194 207.678 222.967 207.298 223.798 207.146Z" fill="#FAFAFA"/>
<path d="M215.771 193.694C215.68 193.722 215.201 192.063 214.137 190.221C213.072 188.38 211.933 187.084 212.007 187.027C212.32 187.247 212.595 187.516 212.821 187.823C214.02 189.22 214.932 190.838 215.509 192.585C215.652 192.939 215.74 193.313 215.771 193.694Z" fill="#FAFAFA"/>
<path d="M217.342 176.774C215.57 177.385 213.738 177.806 211.876 178.03C213.649 177.421 215.481 177 217.342 176.774Z" fill="#FAFAFA"/>
<path d="M212.497 171.716C211.847 171.113 211.263 170.442 210.755 169.716C210.175 169.046 209.669 168.316 209.246 167.539C209.902 168.134 210.487 168.804 210.988 169.534C211.573 170.201 212.08 170.933 212.497 171.716Z" fill="#FAFAFA"/>
<path d="M224.521 168.681C222.676 168.636 220.861 168.206 219.192 167.42C220.094 167.573 220.985 167.78 221.863 168.039C222.761 168.199 223.649 168.414 224.521 168.681Z" fill="#FAFAFA"/>
<path d="M233.062 168.528C233.306 167.724 233.597 166.935 233.933 166.164C234.173 165.356 234.464 164.565 234.804 163.794C234.757 164.644 234.565 165.481 234.234 166.266C233.98 167.083 233.583 167.849 233.062 168.528Z" fill="#FAFAFA"/>
<path d="M231.114 180.076C229.348 179.683 227.754 178.739 226.56 177.383C226.617 177.314 227.516 178.099 228.763 178.832C230.01 179.565 231.143 179.991 231.114 180.076Z" fill="#FAFAFA"/>
<path d="M236.66 179.724C236.774 178.583 236.983 177.454 237.286 176.348C237.492 175.224 237.793 174.12 238.185 173.046C237.866 175.314 237.35 177.551 236.643 179.73L236.66 179.724Z" fill="#FAFAFA"/>
<path d="M232.031 192.637C230.61 191.031 229.341 189.298 228.239 187.459C228.985 188.23 229.66 189.067 230.255 189.96C230.928 190.795 231.523 191.692 232.031 192.637Z" fill="#FAFAFA"/>
<path d="M239.933 187.698C239.853 187.738 239.335 186.709 238.515 185.561C237.696 184.413 236.904 183.577 236.967 183.515C237.683 184.016 238.292 184.653 238.76 185.39C239.304 186.072 239.703 186.857 239.933 187.698Z" fill="#FAFAFA"/>
<path d="M247.346 186.589C246.697 185.828 246.089 185.034 245.524 184.208C244.877 183.447 244.269 182.655 243.702 181.833C245.217 183.165 246.455 184.781 247.346 186.589Z" fill="#FAFAFA"/>
<path d="M245.587 191.494C245.485 190.811 245.255 190.154 244.909 189.556C244.493 189.004 243.977 188.534 243.389 188.17C243.389 188.135 243.651 188.17 244.01 188.346C244.472 188.592 244.864 188.952 245.148 189.391C245.438 189.83 245.613 190.334 245.655 190.858C245.712 191.233 245.638 191.494 245.587 191.494Z" fill="#FAFAFA"/>
<path d="M239.825 198.218C239.779 198.218 239.796 198.064 239.751 197.865C239.697 197.61 239.559 197.379 239.358 197.212C239.148 197.057 238.89 196.978 238.629 196.99C238.424 196.99 238.293 197.041 238.271 196.99C238.248 196.939 238.356 196.837 238.601 196.768C238.762 196.726 238.93 196.722 239.093 196.756C239.256 196.789 239.409 196.86 239.54 196.962C239.671 197.065 239.777 197.196 239.849 197.345C239.921 197.495 239.958 197.659 239.956 197.826C239.95 198.098 239.859 198.229 239.825 198.218Z" fill="#FAFAFA"/>
<path d="M180.592 208.965C179.528 208.556 178.562 207.93 177.754 207.128C176.947 206.325 176.315 205.364 175.9 204.304C177.062 206.221 178.671 207.828 180.592 208.988V208.965Z" fill="#FAFAFA"/>
<path d="M144.354 67.9044C143.438 59.2601 141.781 51.1272 141.331 42.6534C141.349 42.4409 141.322 42.227 141.252 42.0255C141.183 41.8239 141.072 41.639 140.927 41.4826C140.803 41.4103 140.665 41.3639 140.523 41.3462C140.38 41.3285 140.236 41.34 140.098 41.3799C139.96 41.4197 139.832 41.4872 139.721 41.5781C139.61 41.6691 139.518 41.7816 139.452 41.9088C139.204 42.4408 139.105 43.0302 139.168 43.6138C139.177 48.1203 138.407 52.5945 136.89 56.839C135.917 59.5954 134.613 62.2381 133.884 65.0627C133.155 67.8874 134.527 68.8478 135.803 71.4792" fill="#FFBE9D"/>
<path d="M115.278 33.6679C115.227 33.7305 112.027 31.1332 108.127 27.8653C104.228 24.5973 101.113 21.8693 101.17 21.8296C101.227 21.7898 104.421 24.3643 108.321 27.6379C112.221 30.9115 115.335 33.6054 115.278 33.6679Z" fill="#263238"/>
<path d="M131.515 29.775C131.436 29.775 131.111 24.7282 130.798 18.4935C130.485 12.2589 130.291 7.20076 130.371 7.19507C130.451 7.18939 130.775 12.2419 131.094 18.4822C131.413 24.7225 131.595 29.775 131.515 29.775Z" fill="#263238"/>
<path d="M121.177 26.166C121.097 26.166 120.101 23.3243 118.945 19.7268C117.789 16.1292 116.918 13.225 116.998 13.2023C117.077 13.1795 118.074 16.0439 119.23 19.6358C120.385 23.2277 121.251 26.1432 121.177 26.166Z" fill="#263238"/>
<path d="M111.959 38.9989C110.46 38.4725 108.994 37.8556 107.569 37.1519C106.103 36.5348 104.677 35.8268 103.299 35.032C104.799 35.5585 106.264 36.1753 107.689 36.8791C109.154 37.4974 110.581 38.2054 111.959 38.9989Z" fill="#263238"/>
<path d="M96.9914 32.4689C96.9914 32.5485 96.5074 32.5598 95.9324 32.4689C95.3574 32.378 94.9019 32.2757 94.9133 32.1961C94.9247 32.1165 95.3972 32.1052 95.9666 32.1961C96.5359 32.287 96.9914 32.3893 96.9914 32.4689Z" fill="#263238"/>
<path d="M117.368 9.53096C117.282 9.53096 117.22 9.07061 117.22 8.49659C117.22 7.92258 117.282 7.45654 117.368 7.45654C117.453 7.45654 117.516 7.92258 117.516 8.49659C117.516 9.07061 117.447 9.53096 117.368 9.53096Z" fill="#263238"/>
<path d="M151.647 17.5558C151.71 17.6127 149.079 20.6192 145.783 24.2735C142.486 27.9279 139.765 30.8492 139.691 30.7923C139.617 30.7355 142.259 27.7347 145.555 24.0746C148.852 20.4146 151.59 17.5047 151.647 17.5558Z" fill="#263238"/>
<path d="M155.832 13.424C155.888 13.4809 155.587 13.8787 155.154 14.3106C154.721 14.7425 154.328 15.0381 154.272 14.9812C154.215 14.9244 154.516 14.5266 154.949 14.1003C155.382 13.6741 155.775 13.3445 155.832 13.424Z" fill="#263238"/>
<path d="M165.977 27.9734C165.733 28.149 165.474 28.303 165.203 28.4337C164.696 28.7122 163.956 29.1044 163.034 29.5704C161.184 30.5025 158.593 31.7187 155.678 32.9293C152.763 34.1398 150.07 35.106 148.1 35.7709C147.121 36.0949 146.324 36.3393 145.766 36.5041C145.484 36.6064 145.192 36.6807 144.895 36.7257C145.164 36.5927 145.444 36.4825 145.732 36.3961L148.009 35.572C149.956 34.873 152.627 33.867 155.541 32.6735C158.456 31.48 161.047 30.2808 162.943 29.3999L165.152 28.3542C165.417 28.2071 165.693 28.0798 165.977 27.9734Z" fill="#263238"/>
<path d="M157.653 41.9658C157.167 42.1821 156.66 42.3478 156.139 42.4603C155.194 42.7217 153.862 43.0286 152.393 43.2843C150.924 43.5401 149.546 43.6822 148.584 43.7504C148.057 43.8173 147.525 43.8269 146.996 43.7788C147.513 43.6599 148.038 43.5801 148.567 43.5401C149.535 43.4208 150.873 43.2389 152.342 42.9718C153.811 42.7047 155.137 42.4489 156.094 42.2443C156.604 42.1037 157.126 42.0105 157.653 41.9658Z" fill="#263238"/>
<path d="M165.22 40.5677C164.136 40.7647 163.025 40.7647 161.94 40.5677C163.025 40.3707 164.136 40.3707 165.22 40.5677Z" fill="#263238"/>
<path d="M135.82 71.4679C134.692 70.6043 133.817 69.4539 133.287 68.1371C132.757 66.8203 132.592 65.3856 132.808 63.983C133.098 62.278 133.947 60.7321 134.618 59.1408C135.29 57.5495 135.808 55.7819 135.398 54.1054C135.172 53.4831 135.019 52.8365 134.943 52.1787C134.943 51.5194 135.37 50.7806 136.03 50.7522C136.28 50.7723 136.522 50.85 136.736 50.9792C136.95 51.1084 137.132 51.2856 137.266 51.4967C138.376 52.8664 139.264 56.8675 138.706 59.8569" fill="#FFBE9D"/>
<path d="M138.706 59.8567C138.706 59.8567 138.763 59.3964 138.797 58.5666C138.833 57.3962 138.736 56.2255 138.507 55.0771C138.354 54.286 138.125 53.5115 137.824 52.7639C137.665 52.3572 137.451 51.9747 137.186 51.6273C137.067 51.4408 136.912 51.2806 136.729 51.1565C136.545 51.0324 136.339 50.947 136.121 50.9055C135.898 50.9161 135.683 50.9997 135.512 51.1434C135.34 51.2871 135.22 51.483 135.171 51.7012C135.049 52.1857 135.08 52.6961 135.262 53.1618C135.453 53.6817 135.587 54.2211 135.66 54.7702C135.715 55.3387 135.694 55.9121 135.598 56.4752C135.199 58.7826 133.969 60.6467 133.32 62.4938C133 63.3568 132.829 64.2676 132.814 65.1877C132.81 65.9891 132.929 66.7864 133.167 67.552C133.511 68.669 134.094 69.6985 134.875 70.5698C135.444 71.1779 135.814 71.4451 135.797 71.4735C135.695 71.4219 135.6 71.359 135.512 71.2859C135.255 71.0906 135.014 70.8759 134.789 70.6437C133.957 69.7869 133.334 68.7504 132.967 67.6145C132.708 66.8314 132.573 66.0125 132.569 65.1877C132.574 64.238 132.741 63.2962 133.064 62.4029C133.69 60.516 134.903 58.6519 135.279 56.4297C135.376 55.8897 135.397 55.3387 135.341 54.7929C135.273 54.2593 135.145 53.7351 134.96 53.23C134.763 52.708 134.735 52.1375 134.88 51.5989C134.965 51.33 135.12 51.0886 135.33 50.8998C135.435 50.8022 135.559 50.7271 135.694 50.6792C135.829 50.6313 135.973 50.6116 136.116 50.6213C136.377 50.6558 136.627 50.745 136.851 50.8831C137.075 51.0212 137.266 51.2051 137.414 51.4227C137.691 51.7989 137.913 52.2121 138.074 52.6503C138.375 53.4136 138.597 54.2059 138.735 55.0145C138.95 56.1798 139.017 57.3676 138.934 58.5496C138.914 58.8703 138.872 59.1893 138.809 59.5044C138.792 59.6261 138.757 59.7448 138.706 59.8567Z" fill="#EB996E"/>
<path d="M213.135 106.011C213.321 106.824 213.762 107.557 214.393 108.103C215.025 108.648 215.815 108.979 216.647 109.046C217.482 109.087 218.313 108.915 219.063 108.548C219.813 108.18 220.457 107.628 220.934 106.943C221.88 105.551 222.26 103.853 221.999 102.192C221.675 99.7993 220.08 97.4976 217.769 96.7871C215.458 96.0767 212.582 97.3555 211.945 99.6743L209.28 103.385L213.135 106.011Z" fill="#263238"/>
<path d="M209.987 98.7196C210.245 96.6629 210.087 94.5754 209.522 92.5808C208.957 90.5863 207.996 88.7255 206.696 87.1087C205.397 85.4919 203.786 84.1522 201.958 83.1691C200.13 82.1859 198.122 81.5793 196.055 81.3854C187.794 80.6011 180.444 86.7448 179.209 94.9401C178.121 102.124 177.187 109.376 177.222 111.99C177.324 119.947 181.976 123.027 183.866 123.925C184.544 124.169 185.246 124.343 185.961 124.442C185.968 124.444 185.974 124.446 185.98 124.45C185.986 124.454 185.99 124.459 185.994 124.465C185.998 124.471 186 124.477 186.002 124.484C186.003 124.491 186.002 124.498 186.001 124.505L184.236 133.598C183.433 139.571 186.775 144.902 192.747 145.772C198.72 146.641 203.428 142.055 204.345 136.076L209.987 98.7196Z" fill="#FFBE9D"/>
<path d="M180.58 99.5834C180.711 99.7709 181.759 99.2082 183.108 99.4072C184.458 99.6061 185.34 100.424 185.511 100.277C185.596 100.214 185.477 99.9016 185.095 99.5265C184.571 99.0378 183.909 98.7222 183.199 98.6229C182.498 98.5212 181.783 98.6425 181.155 98.9696C180.683 99.2253 180.512 99.4981 180.58 99.5834Z" fill="#263238"/>
<path d="M192.559 102.175C192.69 102.362 193.744 101.8 195.087 101.999C196.431 102.198 197.325 103.016 197.495 102.868C197.575 102.806 197.461 102.493 197.074 102.112C196.551 101.626 195.891 101.313 195.184 101.214C194.483 101.112 193.768 101.234 193.14 101.561C192.679 101.817 192.497 102.09 192.559 102.175Z" fill="#263238"/>
<path d="M187.902 108.529C187.225 108.205 186.51 107.966 185.773 107.818C185.431 107.733 185.118 107.614 185.096 107.375C185.118 107.017 185.249 106.674 185.471 106.392L186.872 103.925C188.825 100.407 190.288 97.4975 190.151 97.4179C190.015 97.3384 188.307 100.129 186.354 103.67L184.993 106.153C184.72 106.539 184.588 107.006 184.617 107.477C184.653 107.602 184.716 107.718 184.802 107.816C184.887 107.915 184.994 107.993 185.113 108.046C185.295 108.123 185.486 108.179 185.682 108.211C186.406 108.41 187.152 108.517 187.902 108.529Z" fill="#263238"/>
<path d="M186.012 124.499C186.012 124.499 191.136 125.681 198.224 122.726C198.224 122.726 195.173 129.29 185.54 126.954L186.012 124.499Z" fill="#EB996E"/>
<path d="M187.999 111.854C188.301 111.576 188.667 111.379 189.065 111.28C189.463 111.181 189.879 111.182 190.276 111.285C190.569 111.357 190.845 111.487 191.087 111.667C191.33 111.846 191.534 112.072 191.688 112.331C191.836 112.581 191.903 112.87 191.879 113.159C191.856 113.448 191.743 113.722 191.557 113.945C191.307 114.156 190.998 114.287 190.672 114.321C190.346 114.354 190.018 114.289 189.73 114.133C189.125 113.818 188.591 113.385 188.158 112.86C188.019 112.731 187.907 112.577 187.828 112.405C187.788 112.323 187.775 112.232 187.789 112.142C187.803 112.053 187.845 111.97 187.908 111.905" fill="#EB996E"/>
<path d="M191.728 110.035C191.512 109.99 191.296 111.45 189.895 112.308C188.494 113.166 186.957 112.774 186.917 112.979C186.883 113.07 187.225 113.314 187.88 113.428C188.734 113.563 189.608 113.394 190.35 112.951C191.063 112.523 191.581 111.836 191.797 111.035C191.939 110.427 191.831 110.041 191.728 110.035Z" fill="#263238"/>
<path d="M193.487 97.7987C193.567 98.1852 194.939 98.2079 196.487 98.6285C198.036 99.049 199.26 99.6628 199.516 99.3673C199.63 99.2252 199.459 98.8501 198.998 98.4182C198.373 97.8843 197.635 97.4993 196.839 97.2925C196.043 97.0858 195.21 97.0626 194.404 97.2247C193.777 97.3724 193.459 97.6168 193.487 97.7987Z" fill="#263238"/>
<path d="M181.941 95.4401C182.129 95.7811 183.109 95.5992 184.219 95.747C185.329 95.8948 186.251 96.2471 186.496 95.963C186.616 95.8209 186.496 95.4912 186.137 95.1446C185.634 94.7161 185.014 94.4472 184.357 94.3723C183.7 94.2973 183.035 94.4198 182.448 94.724C182.032 94.9797 181.856 95.2753 181.941 95.4401Z" fill="#263238"/>
<path d="M177.649 93.1611C179.294 95.6674 184.521 94.1159 187.675 92.3938C189.322 93.443 191.315 93.809 193.229 93.4142C195.143 93.0194 196.827 91.8948 197.923 90.2796C199.727 92.553 203.4 91.8141 204.755 89.2282C206.11 86.6423 205.324 83.0789 203.502 80.8169C201.68 78.5549 198.982 77.4069 196.328 76.9238C190.037 75.7871 183.188 78.1969 179.425 83.8745C177.689 86.4945 176.647 90.0239 177.677 93.1611" fill="#263238"/>
<path d="M195.036 77.8161C195.036 77.9298 193.55 77.6456 191.216 78.0321C188.184 78.5355 185.405 80.0286 183.313 82.2775C181.345 84.6321 180.044 87.4696 179.545 90.4956C179.371 91.7571 179.305 93.0308 179.345 94.3035C179.224 93.975 179.153 93.6301 179.135 93.2804C179.035 92.3349 179.05 91.3807 179.18 90.4388C179.593 87.2955 180.901 84.3366 182.949 81.9138C185.114 79.5739 188.03 78.0639 191.193 77.6456C192.137 77.5189 193.092 77.5036 194.04 77.6001C194.381 77.6208 194.717 77.6937 195.036 77.8161Z" fill="#455A64"/>
<path d="M186.53 89.5011C186.436 89.2133 186.394 88.9113 186.405 88.6088C186.375 87.7844 186.461 86.9598 186.661 86.1593C186.965 84.8168 187.542 83.5507 188.355 82.4389C189.168 81.3271 190.201 80.3933 191.389 79.6948C192.577 78.9963 193.896 78.5479 195.265 78.3773C196.633 78.2067 198.022 78.3175 199.346 78.7028C200.145 78.9215 200.911 79.2465 201.623 79.669C201.897 79.8115 202.143 80.0043 202.346 80.2373C201.353 79.7682 200.32 79.3878 199.26 79.1006C196.682 78.4449 193.948 78.8333 191.655 80.1811C189.362 81.5289 187.696 83.7268 187.02 86.2957C186.462 88.194 186.638 89.5011 186.53 89.5011Z" fill="#455A64"/>
<path d="M201.623 86.7732C201.006 88.9978 200.65 91.2866 200.564 93.5932C200.479 95.9128 201.201 98.1902 202.608 100.038C204.805 102.681 208.472 103.488 211.854 104.13C213.663 99.625 214.208 94.713 213.431 89.9218C213.044 87.5973 212.292 85.2274 210.652 83.5337C209.433 82.3333 207.85 81.5704 206.15 81.3647C204.45 81.159 202.73 81.5221 201.258 82.3971" fill="#263238"/>
<path d="M203.502 97.7759C202.613 99.6968 202.676 101.919 202.983 104.028C203.291 106.136 203.826 108.199 203.803 110.313C203.78 112.428 203.109 114.672 201.446 115.997C200.942 116.332 200.47 116.713 200.034 117.133C199.819 117.347 199.676 117.621 199.623 117.919C199.57 118.217 199.61 118.524 199.738 118.799C200.057 119.31 201.019 119.299 201.156 118.713L201.07 118.861C200.987 119.003 200.941 119.164 200.94 119.328C200.938 119.493 200.979 119.655 201.06 119.798C201.141 119.941 201.258 120.061 201.4 120.145C201.541 120.229 201.703 120.274 201.868 120.276C202.449 120.248 203.019 120.102 203.542 119.846C204.065 119.59 204.53 119.229 204.908 118.787C205.995 117.531 206.428 115.843 206.713 114.241C207.589 109.222 207.419 104.011 208.808 99.1171" fill="#263238"/>
<path d="M184.196 130.734C184.588 132.443 185.344 134.049 186.412 135.441C187.481 136.833 188.837 137.979 190.389 138.802C191.94 139.624 193.651 140.104 195.405 140.209C197.158 140.313 198.914 140.039 200.553 139.406C203.502 138.27 205.882 136.053 208.176 133.888C208.587 136.353 208.474 138.877 207.844 141.295C207.215 143.714 206.083 145.973 204.522 147.927C202.962 149.881 201.007 151.486 198.786 152.637C196.564 153.788 194.124 154.46 191.625 154.609C187.851 154.837 183.797 153.689 181.423 150.75C179.766 148.704 179.1 145.993 179.146 143.362C179.261 140.727 179.763 138.122 180.637 135.633C181.309 133.484 182.374 131.086 184.549 130.489" fill="#FECE3E"/>
<path d="M211.205 104.278C213.482 105.5 214.7 108.057 215.139 110.581C215.577 113.104 215.355 115.696 215.463 118.247C215.571 120.799 216.061 123.482 217.684 125.465C219.392 127.579 222.096 128.58 224.516 129.87C229.822 132.712 234.194 137.559 235.788 143.368C237.383 149.176 235.936 155.871 231.581 160.048C227.596 163.833 221.846 165.163 216.357 165.163C212.446 165.163 208.147 164.322 205.705 161.27C203.263 158.218 203.428 153.939 204.282 150.176C205.136 146.414 206.701 142.76 206.764 138.901C206.179 141.29 205.161 143.551 203.758 145.573C203.354 146.141 202.665 146.766 202.05 146.437C201.435 146.107 201.623 145.044 201.942 144.334C206.656 133.86 205.016 112.746 207.811 101.18" fill="#263238"/>
<path d="M207.322 103.09C207.464 103.045 212.97 102.005 212.258 107.438C211.547 112.871 206.235 111.041 206.246 110.888C206.257 110.734 207.322 103.09 207.322 103.09Z" fill="#FFBE9D"/>
<path d="M208.176 109.046C208.176 109.046 208.261 109.12 208.415 109.217C208.628 109.342 208.881 109.38 209.121 109.325C209.725 109.188 210.328 108.336 210.482 107.364C210.554 106.899 210.523 106.423 210.391 105.971C210.362 105.795 210.29 105.628 210.182 105.485C210.074 105.343 209.933 105.229 209.77 105.153C209.668 105.117 209.556 105.116 209.453 105.15C209.35 105.184 209.262 105.251 209.201 105.341C209.11 105.483 209.127 105.596 209.098 105.602C209.07 105.608 208.996 105.494 209.064 105.278C209.113 105.147 209.205 105.037 209.326 104.966C209.411 104.915 209.505 104.882 209.603 104.869C209.701 104.857 209.801 104.864 209.895 104.892C210.113 104.965 210.309 105.093 210.463 105.263C210.618 105.433 210.726 105.64 210.778 105.863C210.946 106.364 210.991 106.899 210.909 107.421C210.732 108.512 210.038 109.461 209.201 109.586C209.049 109.61 208.894 109.6 208.747 109.556C208.6 109.511 208.465 109.434 208.353 109.33C208.17 109.177 208.159 109.052 208.176 109.046Z" fill="#EB996E"/>
<path d="M178.571 142.441C178.838 141.861 179.146 141.301 179.493 140.765C180.287 139.454 180.945 138.066 181.457 136.622C181.955 135.177 182.123 133.639 181.947 132.121C181.836 131.498 181.692 130.881 181.514 130.273C181.622 130.412 181.704 130.568 181.759 130.734C181.945 131.169 182.079 131.625 182.158 132.092C182.397 133.643 182.254 135.229 181.742 136.713C181.225 138.178 180.531 139.575 179.675 140.873C179.356 141.373 179.106 141.771 178.895 142.038C178.685 142.305 178.588 142.453 178.571 142.441Z" fill="#263238"/>
<path d="M181.343 136.173C181.264 136.173 181.11 135.707 180.62 135.383C180.131 135.059 179.641 135.059 179.63 134.973C179.618 134.888 179.749 134.877 179.971 134.871C180.266 134.874 180.552 134.967 180.791 135.138C181.032 135.306 181.218 135.542 181.326 135.815C181.4 136.025 181.383 136.161 181.343 136.173Z" fill="#FAFAFA"/>
<path d="M184.862 136.161C184.435 135.683 183.966 135.243 183.461 134.848C182.9 134.535 182.309 134.28 181.696 134.087C182.035 134.04 182.38 134.062 182.711 134.15C183.042 134.239 183.351 134.394 183.621 134.604C184.222 134.941 184.668 135.5 184.862 136.161Z" fill="#FAFAFA"/>
<path d="M187.071 147.693C187.084 146.909 187.195 146.13 187.401 145.374C187.511 144.593 187.719 143.829 188.022 143.101C188.009 143.886 187.898 144.667 187.691 145.425C187.581 146.204 187.373 146.966 187.071 147.693Z" fill="#FAFAFA"/>
<path d="M195.952 149.432C195.81 147.8 195.862 146.158 196.106 144.539C196.256 146.17 196.205 147.813 195.952 149.432Z" fill="#FAFAFA"/>
<path d="M14.6092 174.689L5.83008 212.852L24.396 212.909L32.9758 179.349L14.6092 174.689Z" fill="#B78876"/>
<path d="M105.787 127.801C104.022 125.443 101.996 123.175 101.068 120.379C100.618 119.026 100.441 117.594 99.9631 116.253C99.4849 114.911 98.6138 113.604 97.2815 113.098C95.9493 112.593 94.9359 113.098 94.0705 114.053L87.6997 132.655L91.3719 146.943C95.0384 146.119 99.6272 145.141 103.055 143.601C106.482 142.061 108.748 139.594 108.987 135.849C109.152 132.911 107.552 130.166 105.787 127.801Z" fill="#263238"/>
<path d="M47.8126 124.516C47.8126 124.516 25.6657 134.138 22.8987 138.48C20.1318 142.822 11.0225 173.779 11.0225 173.779L34.365 180.599L33.9665 212.83H91.1842L90.7117 155.996L83.5381 124.59C83.5381 124.59 70.9047 123.777 69.7319 123.203C68.559 122.629 47.8126 124.516 47.8126 124.516Z" fill="#FECE3E"/>
<path d="M126.517 45.7395C126.699 44.4381 125.782 43.0059 126.443 41.8635C126.88 41.2748 127.504 40.8519 128.214 40.6643C128.557 40.5075 128.929 40.4205 129.307 40.4086C129.495 40.4055 129.68 40.4578 129.839 40.5588C129.998 40.6599 130.124 40.8052 130.201 40.9769C130.242 41.1943 130.222 41.4187 130.145 41.6259C130.068 41.8332 129.935 42.0156 129.762 42.1534C129.415 42.4255 129.123 42.7611 128.902 43.1423C128.748 44.0777 128.82 45.0366 129.113 45.9385C129.872 47.923 130.501 49.9542 130.998 52.0196" fill="#B78876"/>
<path d="M121.843 46.1828C121.922 44.2107 123.551 36.4416 123.608 34.4695C124.946 34.8787 125.72 36.2995 125.97 37.6749C126.221 39.0502 126.09 40.4654 126.329 41.8408C126.648 43.6878 127.61 45.3531 128.578 46.9558C129.546 48.5585 130.559 50.1896 130.998 52.0082C131.436 53.8269 133.087 58.5554 131.8 59.9194" fill="#B78876"/>
<path d="M121.473 59.4819L113.553 97.0374C113.274 98.7424 83.5381 124.63 83.5381 124.63L89.4079 148.04L128.122 110.228C130.918 107.245 132.439 103.293 132.364 99.2084L131.703 63.9718L121.473 59.4819Z" fill="#B78876"/>
<path d="M120.117 46.4215L121.472 59.4932L131.72 63.9944C131.72 63.9944 131.846 63.068 132.29 58.5384C132.774 53.5484 127.399 51.4058 125.002 47.7401C123.978 46.1658 124.245 43.2673 123.454 39.6754C123.363 39.2605 122.793 36.7485 122.486 35.4015C122.324 34.653 121.885 33.9932 121.256 33.5545C120.789 33.2476 120.266 33.0941 119.884 33.5545C119.503 34.0148 120.117 46.4215 120.117 46.4215Z" fill="#B78876"/>
<path d="M126.517 61.653C127.655 60.6698 127.929 58.908 127.502 57.4473C126.979 56.0091 126.154 54.6991 125.082 53.6054C124.012 52.5145 123.112 51.2692 122.412 49.9112C121.979 48.9337 121.774 47.8539 121.273 46.8934C120.772 45.9329 119.924 45.052 118.854 45.0122C119.713 50.4171 119.69 53.5372 121.45 59.4592" fill="#B78876"/>
<path d="M119.918 51.1842C119.918 51.1842 119.878 51.0365 119.816 50.7523C119.753 50.4682 119.645 49.9964 119.542 49.5133C119.298 48.3767 118.973 46.9274 118.637 45.2622L118.603 45.1031H118.768C119.119 45.0903 119.468 45.147 119.796 45.2699C120.125 45.3929 120.425 45.5795 120.681 45.8192C121.463 46.5618 122.019 47.5092 122.287 48.5529C122.514 49.364 122.813 50.1533 123.18 50.9115C123.459 51.4094 123.795 51.873 124.182 52.2925C124.324 52.4537 124.439 52.6358 124.524 52.8324C124.368 52.6882 124.224 52.5324 124.091 52.3664C123.668 51.9667 123.3 51.5117 122.998 51.0137C122.596 50.2532 122.268 49.4557 122.019 48.6324C121.754 47.641 121.223 46.7408 120.482 46.0295C120.02 45.5969 119.407 45.3622 118.774 45.3759L118.91 45.2054C119.599 48.6267 120.043 51.1899 119.918 51.1842Z" fill="#7C5142"/>
<path d="M124.524 47.8593C124.111 46.101 123.795 44.3213 123.579 42.5283C123.263 40.7494 123.044 38.9546 122.924 37.1519C123.34 38.9114 123.656 40.6932 123.869 42.4885C124.186 44.2655 124.404 46.0584 124.524 47.8593Z" fill="#7C5142"/>
<path d="M127.787 48.3028C127.787 48.3028 127.826 48.3597 127.861 48.5018H127.775C127.352 47.2858 127.006 46.0444 126.739 44.7849C126.494 43.688 126.318 42.6877 126.21 41.9432C126.122 41.5537 126.087 41.1541 126.107 40.7554C126.192 40.7554 126.54 42.5229 127.029 44.7337C127.422 46.5012 127.787 47.9903 127.861 48.4904H127.775C127.77 48.371 127.769 48.3028 127.787 48.3028Z" fill="#7C5142"/>
<path d="M129.808 55.5034C129.762 55.5034 129.557 55.2079 129.147 54.7703C128.064 53.6216 126.594 52.9132 125.02 52.7811C124.69 52.784 124.361 52.7631 124.035 52.7186C124.35 52.5965 124.688 52.5461 125.025 52.5708C125.846 52.5811 126.654 52.7712 127.393 53.1277C128.132 53.4842 128.783 53.9984 129.301 54.6339C129.534 54.8814 129.707 55.1788 129.808 55.5034Z" fill="#7C5142"/>
<path d="M122.401 60.5161C122.119 60.0271 121.892 59.5087 121.723 58.9703C121.255 57.695 120.864 56.3932 120.55 55.0715C120.232 53.7609 119.992 52.4324 119.833 51.0932C119.74 50.5299 119.706 49.9585 119.731 49.3882C119.873 49.9312 119.976 50.484 120.038 51.042C120.209 52.0594 120.471 53.4688 120.835 55.0204C121.199 56.5719 121.609 57.9302 121.922 58.9191C122.119 59.4397 122.279 59.9734 122.401 60.5161Z" fill="#7C5142"/>
<path d="M76.5864 125.306C77.0937 124.531 77.8806 123.98 78.7838 123.768C79.687 123.557 80.6372 123.7 81.4371 124.169C85.616 120.759 89.8917 117.452 94.0706 114.059C92.7042 120.879 91.7933 130.387 94.8506 136.627C94.8506 136.627 98.7049 143.777 104.842 142.686L99.3653 148.04L90.7286 156.036" fill="#FECE3E"/>
<path d="M75.2314 128.489C75.2379 127.574 75.5174 126.681 76.0342 125.926C76.4706 125.119 77.1361 124.458 77.9472 124.027C76.6608 125.247 75.7233 126.787 75.2314 128.489Z" fill="#263238"/>
<path d="M79.7463 132.694C79.5093 132.316 79.347 131.895 79.2681 131.455C79.0223 130.401 78.993 129.309 79.1818 128.243C79.3707 127.177 79.7738 126.161 80.3669 125.255C80.593 124.867 80.8905 124.526 81.2436 124.249C81.2835 124.283 80.9533 124.67 80.5491 125.386C80.0232 126.292 79.6591 127.282 79.473 128.313C79.2948 129.345 79.2948 130.4 79.473 131.433C79.6154 132.172 79.7919 132.649 79.7463 132.694Z" fill="#263238"/>
<path d="M100.664 147.289C100.243 147.55 99.784 147.742 99.3029 147.858C97.9877 148.174 96.6115 148.133 95.3176 147.738C93.4014 147.131 91.7246 145.938 90.5238 144.328C89.0816 142.354 88.1081 140.078 87.6772 137.673C86.8731 133.342 86.6434 128.924 86.994 124.533C87.1249 122.828 87.3128 121.498 87.4722 120.555C87.5462 120.089 87.6146 119.731 87.6658 119.486C87.6835 119.36 87.714 119.237 87.7569 119.117C87.7609 119.245 87.7494 119.373 87.7227 119.498L87.5861 120.572C87.4665 121.504 87.3071 122.845 87.2046 124.55C86.9134 128.922 87.1697 133.313 87.9675 137.622C88.3938 139.965 89.337 142.184 90.7288 144.118C91.88 145.711 93.5029 146.904 95.3688 147.528C96.6288 147.933 97.9724 148.006 99.2688 147.738C99.7432 147.62 100.209 147.47 100.664 147.289Z" fill="#FAFAFA"/>
<path d="M34.4732 190.193C34.3935 190.193 34.3252 182.111 34.3252 172.148C34.3252 162.185 34.3935 154.104 34.4732 154.104C34.5529 154.104 34.6212 162.18 34.6212 172.148C34.6212 182.117 34.5586 190.193 34.4732 190.193Z" fill="#263238"/>
<path d="M34.0175 147.869C33.9549 147.869 33.972 147.062 33.693 145.806C33.5268 145.072 33.2884 144.356 32.9813 143.669C32.5987 142.833 32.1273 142.04 31.5751 141.305C31.0075 140.579 30.3644 139.916 29.6564 139.327C29.0736 138.851 28.4463 138.433 27.7833 138.077C26.6447 137.48 25.8533 137.281 25.8704 137.224C26.0647 137.234 26.2565 137.272 26.4397 137.338C26.6555 137.391 26.8668 137.462 27.0717 137.548C27.351 137.644 27.623 137.76 27.8858 137.895C28.5698 138.229 29.215 138.637 29.8102 139.111C30.541 139.707 31.2036 140.382 31.7857 141.123C32.3539 141.877 32.8316 142.696 33.2091 143.561C33.5191 144.269 33.7501 145.008 33.898 145.766C33.9564 146.055 33.9963 146.347 34.0175 146.641C34.0441 146.862 34.0555 147.084 34.0517 147.306C34.062 147.495 34.0505 147.683 34.0175 147.869Z" fill="#263238"/>
<path d="M73.0112 124.266C73.0585 124.424 73.0909 124.585 73.108 124.749C73.1848 125.21 73.2342 125.675 73.256 126.142C73.3241 127.866 73.0831 129.588 72.5444 131.228C71.7421 133.673 70.3202 135.87 68.4167 137.605C66.0292 139.688 63.0309 140.944 59.8695 141.185C56.708 141.427 53.553 140.642 50.8756 138.946C48.7353 137.516 47.0016 135.559 45.8427 133.263C45.0665 131.722 44.5711 130.055 44.3796 128.341C44.3333 127.877 44.3124 127.41 44.3169 126.943C44.3032 126.78 44.3032 126.617 44.3169 126.454C44.3437 126.614 44.357 126.775 44.3568 126.937C44.3714 127.401 44.4094 127.864 44.4707 128.324C44.7039 130.014 45.2237 131.651 46.0078 133.166C47.1695 135.416 48.8883 137.331 51.0009 138.73C53.6298 140.38 56.7195 141.146 59.8163 140.913C62.913 140.681 65.8536 139.464 68.2061 137.44C70.0888 135.741 71.504 133.589 72.3166 131.188C72.8622 129.572 73.1317 127.876 73.1137 126.17C73.1137 125.568 73.0625 125.102 73.0169 124.783C72.9714 124.465 73.0055 124.272 73.0112 124.266Z" fill="#263238"/>
<path d="M33.9834 173.575C33.9834 173.654 29.2523 172.171 23.4793 170.267C17.7063 168.363 13.0434 166.755 13.0719 166.675C13.1004 166.596 17.7974 168.079 23.5761 169.983C29.3548 171.887 34.0062 173.495 33.9834 173.575Z" fill="#FAFAFA"/>
<path d="M90.1595 165.686C90.1595 165.772 77.6057 165.891 62.1199 165.953C46.6341 166.016 34.0747 166.005 34.0747 165.953C34.0747 165.902 46.6285 165.749 62.1199 165.686C77.6114 165.624 90.1595 165.607 90.1595 165.686Z" fill="#FAFAFA"/>
<path d="M90.4442 170.637C90.4442 170.716 77.8221 170.784 62.2623 170.784C46.7025 170.784 34.0747 170.716 34.0747 170.637C34.0747 170.557 46.6911 170.489 62.2623 170.489C77.8335 170.489 90.4442 170.551 90.4442 170.637Z" fill="#FAFAFA"/>
<path d="M82.7127 176.649C82.6742 176.808 82.6208 176.962 82.5533 177.11C82.428 177.428 82.2572 177.86 82.0466 178.406L81.6708 179.338C81.5228 179.679 81.3463 180.037 81.1641 180.429C80.7883 181.202 80.4012 182.1 79.8603 183.043L79.0405 184.532C78.7558 185.049 78.4142 185.561 78.084 186.106C77.435 187.203 76.6379 188.306 75.8067 189.482C73.958 191.982 71.9215 194.338 69.7148 196.53C67.4768 198.691 65.0767 200.678 62.5356 202.474C61.34 203.27 60.2184 204.049 59.1196 204.674C58.5503 204.992 58.0493 205.322 57.5255 205.6L55.9997 206.385C55.0489 206.902 54.138 207.277 53.358 207.635C52.9651 207.805 52.6008 207.976 52.2592 208.118L51.3141 208.476L50.0103 208.959C49.8599 209.024 49.7035 209.073 49.5435 209.107C49.6856 209.027 49.8341 208.958 49.9875 208.902L51.2742 208.368L52.2022 207.987C52.5438 207.84 52.9025 207.663 53.2897 207.482C54.0639 207.112 54.9635 206.726 55.9029 206.197L57.4002 205.401C57.9183 205.117 58.4364 204.782 58.983 204.464C60.0818 203.833 61.192 203.049 62.3989 202.253C67.4702 198.681 71.9304 194.315 75.6074 189.323C76.433 188.158 77.2357 187.05 77.8847 185.976C78.2207 185.436 78.5679 184.93 78.8583 184.419L79.6838 182.941C80.2532 182.014 80.6346 181.122 81.0218 180.355C81.2096 179.968 81.3975 179.616 81.5512 179.281C81.705 178.945 81.8302 178.639 81.9498 178.36C82.1832 177.826 82.3711 177.405 82.5191 177.087C82.5761 176.938 82.6407 176.792 82.7127 176.649Z" fill="#263238"/>
<g opacity="0.3">
<path opacity="0.3" d="M80.401 181.571C76.5751 186.22 72.5671 189.59 66.9478 191.761C64.2548 192.796 61.4366 193.506 58.8291 194.74C56.2216 195.973 53.762 197.831 52.5665 200.463C51.6612 202.497 52.0996 205.578 54.2744 206.021C55.1194 206.124 55.9765 205.993 56.751 205.64C67.8815 201.611 75.1974 191.432 80.3669 181.571" fill="black"/>
</g>
<path d="M40.5878 80.4534C38.1853 82.3346 38.0258 85.8525 38.1454 88.8988C38.265 91.9451 38.2991 95.4119 36.073 97.5147C34.2512 99.2482 31.0629 99.8904 30.5391 102.351C30.4066 102.931 30.4596 103.538 30.6907 104.086C30.9218 104.634 31.3194 105.096 31.8274 105.407C32.3354 105.717 32.9282 105.861 33.5224 105.818C34.1166 105.774 34.6821 105.546 35.1393 105.164C34.365 107.091 34.718 109.558 36.3634 110.848C38.0088 112.138 40.8839 111.524 41.4874 109.546C41.3941 109.874 41.3684 110.216 41.4117 110.554C41.4551 110.891 41.5667 111.216 41.7397 111.509C41.9128 111.802 42.1436 112.057 42.4183 112.259C42.693 112.46 43.0058 112.604 43.3377 112.681C43.6696 112.758 44.0138 112.767 44.3493 112.707C44.6848 112.647 45.0047 112.52 45.2895 112.333C45.5743 112.147 45.8181 111.904 46.0062 111.62C46.1943 111.337 46.3227 111.018 46.3836 110.683" fill="#263238"/>
<path d="M75.4535 102.51C75.568 102.91 75.7636 103.281 76.0279 103.602C76.2923 103.922 76.6199 104.185 76.9903 104.374C77.3608 104.563 77.7662 104.674 78.1813 104.7C78.5965 104.726 79.0126 104.666 79.4037 104.525C79.7948 104.384 80.1527 104.163 80.455 103.878C80.7574 103.593 80.9977 103.249 81.1612 102.867C81.3247 102.485 81.4077 102.074 81.4053 101.659C81.4028 101.243 81.3148 100.833 81.1468 100.453C80.6743 99.271 79.4388 98.3787 79.4104 97.1113C79.3364 95.5768 80.9533 94.5595 82.3709 93.9627C83.7885 93.366 85.451 92.5703 85.673 91.0529C85.895 89.5354 84.6254 88.3703 83.5665 87.3303C82.5075 86.2902 81.4884 84.7103 82.2342 83.4258C82.6157 82.7722 83.3729 82.4199 83.8625 81.8459C84.967 80.5728 84.523 78.4359 83.2477 77.3503C81.9724 76.2648 80.1448 76.0148 78.4767 76.2137C76.8085 76.4126 75.2144 77.0378 73.5804 77.4413C70.8709 78.0941 68.0552 78.1786 65.3112 77.6895C62.5673 77.2004 59.9549 76.1482 57.6392 74.5996" fill="#263238"/>
<path d="M42.2214 92.1725L48.0798 126.068C48.3225 127.487 48.8441 128.843 49.6145 130.06C50.385 131.276 51.3889 132.328 52.5686 133.156C53.7483 133.983 55.0803 134.569 56.4879 134.88C57.8956 135.191 59.3509 135.221 60.7702 134.968C63.4592 134.487 65.8705 133.019 67.5291 130.852C69.1877 128.685 69.9734 125.977 69.7314 123.26C69.4638 120.254 69.2361 117.765 69.2361 117.765C69.2361 117.765 77.7419 115.582 77.0075 106.966C76.6488 102.795 75.2198 94.264 73.8306 86.5574C73.1104 82.5686 70.9122 78.9968 67.6735 76.5525C64.4348 74.1082 60.3929 72.9708 56.3522 73.3664L55.5209 73.4459C53.4034 73.7772 51.3738 74.5286 49.5519 75.6556C47.73 76.7826 46.1527 78.2626 44.9131 80.008C43.6734 81.7535 42.7966 83.7292 42.3343 85.8184C41.872 87.9077 41.8336 90.0682 42.2214 92.1725Z" fill="#B78876"/>
<path d="M72.015 92.1213C72.0521 92.442 71.9611 92.7643 71.7619 93.0186C71.5626 93.2728 71.2711 93.4384 70.9504 93.4797C70.7949 93.5081 70.6354 93.505 70.4812 93.4706C70.327 93.4362 70.1813 93.3712 70.0528 93.2795C69.9242 93.1878 69.8155 93.0712 69.733 92.9367C69.6505 92.8021 69.5959 92.6524 69.5726 92.4964C69.5355 92.1758 69.6264 91.8534 69.8257 91.5992C70.025 91.345 70.3165 91.1793 70.6372 91.1381C70.7926 91.1097 70.9522 91.1128 71.1064 91.1472C71.2606 91.1816 71.4063 91.2466 71.5348 91.3383C71.6634 91.43 71.7721 91.5466 71.8546 91.6811C71.9371 91.8157 71.9916 91.9654 72.015 92.1213Z" fill="#263238"/>
<path d="M72.3906 90.9449C72.2539 91.1154 71.2519 90.5186 69.9254 90.6494C68.5988 90.7801 67.6879 91.5416 67.5285 91.3939C67.4545 91.3257 67.5797 91.0245 67.9726 90.6721C68.5087 90.2178 69.1734 89.9417 69.8741 89.8821C70.5637 89.8135 71.2573 89.9647 71.8554 90.314C72.2938 90.5868 72.4589 90.8653 72.3906 90.9449Z" fill="#263238"/>
<path d="M59.0342 93.6387C59.0666 93.9587 58.973 94.2788 58.7733 94.5313C58.5735 94.7837 58.2832 94.9487 57.9638 94.9913C57.8085 95.0189 57.6492 95.0152 57.4953 94.9805C57.3414 94.9458 57.196 94.8807 57.0677 94.7891C56.9393 94.6975 56.8306 94.5813 56.7479 94.4471C56.6652 94.313 56.6102 94.1637 56.5861 94.0081C56.552 93.688 56.644 93.3672 56.8428 93.1137C57.0415 92.8601 57.3312 92.6938 57.6507 92.6498C57.8068 92.6222 57.9668 92.626 58.1214 92.661C58.276 92.696 58.422 92.7615 58.5509 92.8536C58.6798 92.9458 58.7889 93.0627 58.8719 93.1975C58.9549 93.3323 59.0101 93.4823 59.0342 93.6387Z" fill="#263238"/>
<path d="M59.3701 92.4567C59.2334 92.6329 58.2314 92.0361 56.9049 92.1668C55.5783 92.2976 54.6731 93.0591 54.508 92.9114C54.434 92.8432 54.5592 92.5419 54.9521 92.1896C55.4894 91.7372 56.1535 91.4613 56.8536 91.3996C57.5433 91.3282 58.2378 91.4796 58.8349 91.8315C59.2733 92.1043 59.4156 92.3828 59.3701 92.4567Z" fill="#263238"/>
<path d="M65.1485 101.817C65.1485 101.738 65.9456 101.516 67.2607 101.215C67.5966 101.146 67.9155 101.05 67.9496 100.811C67.94 100.461 67.8272 100.121 67.6251 99.8336L66.3669 97.3557C64.6191 93.8207 63.321 90.9051 63.4633 90.8369C63.6056 90.7687 65.1371 93.5763 66.8793 97.0886L68.092 99.5892C68.3443 99.9756 68.4512 100.439 68.3937 100.896C68.3595 101.024 68.2959 101.142 68.2079 101.241C68.1199 101.339 68.01 101.416 67.887 101.465C67.7031 101.532 67.5121 101.578 67.3177 101.601C66.6061 101.761 65.8777 101.833 65.1485 101.817Z" fill="#263238"/>
<path d="M59.2047 87.2279C59.1079 87.603 57.77 87.5575 56.2328 87.8985C54.6956 88.2395 53.4715 88.7851 53.2381 88.4668C53.1299 88.3247 53.3121 87.961 53.8074 87.5632C54.4397 87.0646 55.181 86.7219 55.9709 86.5629C56.7587 86.3897 57.5767 86.4073 58.3564 86.6141C58.9314 86.8016 59.2445 87.0574 59.2047 87.2279Z" fill="#263238"/>
<path d="M71.5308 87.154C71.3258 87.4779 70.3921 87.2563 69.2535 87.3472C68.1148 87.4382 67.2437 87.7507 66.9762 87.4552C66.868 87.3131 66.9762 86.9949 67.3633 86.6709C67.8733 86.2684 68.496 86.0341 69.1453 86.0003C69.7922 85.9475 70.4393 86.0986 70.9956 86.4322C71.4568 86.705 71.6162 87.0005 71.5308 87.154Z" fill="#263238"/>
<path d="M50.6708 81.8059L50.6252 81.8514C49.3565 83.0668 48.606 84.7238 48.5301 86.4776C48.5301 86.5401 48.5301 86.6026 48.5301 86.6538C48.4333 89.1488 48.7351 91.6437 48.6155 94.133C48.4959 96.6223 47.8868 99.2026 46.23 101.072C45.5525 101.84 44.2772 102.448 43.5826 101.692C43.3409 101.373 43.1948 100.993 43.1613 100.595C42.1251 94.7071 39.9845 89.5978 39.3923 83.3859C39.3074 82.5552 39.4228 81.7163 39.7288 80.9392C40.0348 80.1621 40.5227 79.4693 41.1516 78.9188C42.3586 77.856 43.8559 76.7364 45.3703 77.282C46.8847 77.8276 49.0197 80.3453 50.2552 81.3797" fill="#263238"/>
<path d="M45.5123 95.7869C45.3586 95.7415 39.4091 94.6162 40.172 100.487C40.9349 106.358 46.6852 104.386 46.6738 104.215C46.6624 104.045 45.5123 95.7869 45.5123 95.7869Z" fill="#B78876"/>
<path d="M44.6132 102.226C44.6132 102.226 44.5221 102.311 44.357 102.408C44.244 102.477 44.1184 102.523 43.9875 102.543C43.8566 102.564 43.7229 102.558 43.5941 102.527C42.9451 102.38 42.2903 101.459 42.1252 100.407C42.0444 99.9045 42.0775 99.3899 42.222 98.9013C42.2544 98.7106 42.3324 98.5304 42.4494 98.3761C42.5663 98.2218 42.7188 98.0978 42.8938 98.0147C43.0075 97.9703 43.133 97.9663 43.2492 98.0036C43.3654 98.0409 43.4651 98.1171 43.5315 98.2193C43.634 98.3728 43.6112 98.4978 43.6453 98.5035C43.6795 98.5092 43.7592 98.3898 43.6795 98.1511C43.628 98.0092 43.5296 97.8889 43.4005 97.8101C43.2269 97.7147 43.0235 97.6883 42.8312 97.7363C42.5953 97.8158 42.3837 97.9541 42.2163 98.1381C42.0489 98.3221 41.9314 98.5457 41.8747 98.7877C41.6897 99.3361 41.6409 99.9212 41.7324 100.493C41.926 101.669 42.6775 102.698 43.5599 102.834C43.7239 102.861 43.8918 102.849 44.0506 102.801C44.2095 102.753 44.3552 102.669 44.4766 102.556C44.6132 102.368 44.6132 102.232 44.6132 102.226Z" fill="#7C5142"/>
<path d="M45.2503 78.2142C43.5423 75.9977 47.2202 72.2239 50.0441 71.0247C52.8679 69.8256 56.8476 70.8656 59.8422 71.5419C61.7267 71.9738 63.634 72.6388 65.5355 72.3717C66.8106 72.1174 68.0405 71.6749 69.185 71.0588C70.3282 70.4325 71.5874 70.0457 72.8856 69.9222C73.5358 69.8728 74.1872 70.0018 74.7692 70.2953C75.3512 70.5888 75.8418 71.0356 76.1877 71.5874C76.7912 72.724 76.2504 74.429 74.9864 74.7416C75.3752 74.4746 75.823 74.3058 76.2915 74.2497C76.76 74.1936 77.2352 74.2518 77.6762 74.4195C78.1171 74.5871 78.5107 74.8591 78.8232 75.2121C79.1356 75.5651 79.3576 75.9885 79.4699 76.446C79.5823 76.9035 79.5817 77.3813 79.4682 77.8386C79.3548 78.2958 79.1318 78.7187 78.8185 79.0709C78.5052 79.4231 78.1109 79.6941 77.6695 79.8607C77.2282 80.0273 76.7529 80.0844 76.2845 80.0271C77.0645 79.311 78.4537 80.2374 78.4537 81.2888C78.4537 82.3403 77.5712 83.2041 76.6489 83.7213C74.2919 85.0398 71.3883 84.9716 68.758 84.3635C66.1276 83.7554 63.634 82.6585 61.0151 81.9765C58.3961 81.2945 54.0066 80.0669 51.5585 81.2093C49.7594 82.0447 48.6777 84.4147 47.5732 84.0509C47.0505 83.8344 46.5861 83.4984 46.2172 83.07C45.8484 82.6416 45.5854 82.1327 45.4496 81.5844C45.1952 80.482 45.1221 79.3456 45.2332 78.2198" fill="#263238"/>
<path d="M45.5864 96.7931C45.6598 99.9146 46.0181 103.023 46.6568 106.08C47.2951 109.147 48.7528 111.985 50.8755 114.292C53.7222 117.208 57.457 119.975 61.4992 120.663C65.9115 121.391 71.3088 120.47 74.9013 117.821C76.6093 116.565 77.8447 113.843 77.3152 111.786C78.0384 111.445 78.6572 110.918 79.1077 110.258C79.5581 109.599 79.8238 108.831 79.8772 108.035C79.9683 106.443 78.9948 104.454 77.7365 104.244C78.6816 104.085 78.9549 102.584 78.5962 101.738C78.2376 100.891 76.9907 100.635 76.0456 100.817C75.1115 101.061 74.2427 101.507 73.5007 102.124C72.7631 102.742 71.9307 103.237 71.0355 103.59C67.9839 104.579 64.8924 101.885 61.6871 102.016C58.7892 102.13 56.2101 104.534 53.335 104.13C52.5369 103.978 51.7797 103.661 51.1127 103.197C50.4457 102.734 49.8838 102.136 49.4636 101.442C48.5754 100.084 48.9626 95.0653 48.6153 93.4854" fill="#263238"/>
<g opacity="0.6">
<path opacity="0.6" d="M68.8434 110.325C68.6034 110.269 68.3676 110.197 68.1374 110.109C67.5798 109.95 66.993 109.921 66.4223 110.024C65.8517 110.128 65.3126 110.361 64.8467 110.706C64.4823 110.967 64.2773 111.177 64.2773 111.149C64.2773 111.12 64.3912 110.87 64.7385 110.581C65.2061 110.17 65.7774 109.894 66.3905 109.784C67.0037 109.674 67.6353 109.733 68.2171 109.955C68.6384 110.097 68.8605 110.296 68.8434 110.325Z" fill="#455A64"/>
</g>
<path d="M62.6094 103.795C62.8258 103.761 62.9681 105.199 64.3174 106.068C65.6667 106.938 67.164 106.665 67.1982 106.864C67.2267 106.949 66.8851 107.176 66.236 107.256C65.3949 107.354 64.546 107.153 63.8392 106.688C63.1621 106.236 62.6882 105.539 62.5183 104.744C62.3874 104.164 62.5126 103.795 62.6094 103.795Z" fill="white"/>
<path d="M58.3281 119.702C58.4569 119.732 58.5813 119.778 58.6982 119.839C58.943 119.93 59.3017 120.055 59.7742 120.185C61.1134 120.547 62.4878 120.762 63.8734 120.828C64.8223 120.883 65.7742 120.864 66.7201 120.771C67.811 120.673 68.8889 120.464 69.9368 120.146C71.0937 119.801 72.1973 119.298 73.2161 118.651C74.324 117.984 75.291 117.107 76.0628 116.071C76.9797 114.85 77.3878 113.323 77.2015 111.808V111.689L77.3039 111.643C78.0121 111.315 78.6252 110.812 79.0859 110.183C79.3094 109.886 79.5003 109.566 79.6553 109.228C79.7913 108.9 79.8758 108.553 79.9058 108.199C79.9677 107.559 79.8761 106.913 79.6385 106.315C79.4009 105.718 79.0242 105.185 78.5394 104.761L78.454 104.693L78.5223 104.607C78.7791 104.282 78.9467 103.896 79.0085 103.486C79.0704 103.077 79.0245 102.658 78.8753 102.272C78.7582 101.979 78.5814 101.713 78.356 101.492C78.1305 101.271 77.8614 101.099 77.5658 100.987C77.1885 100.837 76.7801 100.78 76.3759 100.822C76.0969 100.856 75.9603 100.908 75.9546 100.891C76.086 100.828 76.2262 100.786 76.3702 100.766C76.911 100.678 77.4657 100.772 77.9476 101.032C78.4296 101.292 78.8118 101.704 79.0347 102.203C79.2033 102.62 79.2604 103.073 79.2005 103.519C79.1407 103.964 78.9658 104.386 78.6931 104.744V104.59C79.2132 105.034 79.6198 105.594 79.8793 106.226C80.1387 106.858 80.2434 107.542 80.1847 108.222C80.1556 108.613 80.0653 108.996 79.9172 109.359C79.7521 109.715 79.5518 110.054 79.3194 110.37C78.8347 111.045 78.1836 111.584 77.4292 111.933L77.5146 111.763C77.7431 113.354 77.334 114.972 76.3759 116.264C75.5813 117.331 74.5852 118.233 73.4439 118.918C72.4044 119.578 71.275 120.086 70.0905 120.424C69.0242 120.744 67.9268 120.95 66.8169 121.038C65.8524 121.114 64.8834 121.114 63.919 121.038C62.5225 120.951 61.141 120.701 59.8027 120.293C59.4399 120.181 59.0843 120.046 58.738 119.89C58.5951 119.842 58.4576 119.779 58.3281 119.702Z" fill="#455A64"/>
<path d="M32.5202 104.704C32.4112 104.674 32.3088 104.624 32.2184 104.556C31.9619 104.365 31.7646 104.105 31.6491 103.806C31.4567 103.326 31.415 102.799 31.5296 102.294C31.7092 101.627 32.1107 101.039 32.6682 100.629C33.3233 100.136 34.0538 99.7524 34.8317 99.4924C35.7034 99.219 36.5462 98.8611 37.3481 98.424C38.192 97.8907 38.8533 97.1136 39.244 96.1961C39.6726 95.2087 39.9009 94.1463 39.9158 93.0703C39.9613 90.8481 39.4489 88.7396 39.392 86.7788C39.3351 84.8181 39.6767 82.988 40.5705 81.7604C41.24 80.7763 42.2564 80.0803 43.4172 79.8111C43.732 79.7484 44.0543 79.7331 44.3737 79.7656C44.4851 79.7785 44.5955 79.7994 44.7039 79.8281C44.2821 79.808 43.8594 79.8405 43.4457 79.9247C42.3268 80.2197 41.356 80.9157 40.7186 81.8798C39.8873 83.0733 39.54 84.8465 39.6425 86.7675C39.745 88.6884 40.2119 90.7969 40.2119 93.0816C40.1882 94.1986 39.9424 95.2998 39.4888 96.3211C39.0703 97.2893 38.365 98.1064 37.4677 98.6627C36.6438 99.1079 35.7756 99.466 34.8772 99.7311C34.1215 99.9697 33.4086 100.326 32.765 100.788C32.2363 101.162 31.8492 101.702 31.6662 102.323C31.5421 102.796 31.5639 103.295 31.7288 103.755C31.8789 104.151 32.1575 104.485 32.5202 104.704Z" fill="#455A64"/>
<path d="M75.203 74.645C75.2838 74.596 75.3697 74.556 75.4592 74.5256C75.5674 74.4774 75.6798 74.4394 75.7951 74.412C75.9496 74.3665 76.1077 74.3342 76.2676 74.3154C76.7989 74.2576 77.3364 74.3212 77.8395 74.5014C78.3425 74.6816 78.7979 74.9736 79.1712 75.3554C79.5445 75.8552 79.8148 76.4241 79.9663 77.0289C80.1177 77.6338 80.1475 78.2627 80.0537 78.8791C79.9419 79.6436 79.6778 80.378 79.2769 81.0389C78.8759 81.6997 78.3464 82.2736 77.7194 82.7267C76.2759 83.7758 74.5508 84.3697 72.7662 84.4317C70.8317 84.5077 68.8963 84.3009 67.0217 83.8179C64.0438 83.0883 61.2183 81.8396 58.6753 80.1294C57.5882 79.3834 56.4463 78.7204 55.2593 78.1459C54.2196 77.6657 53.1003 77.3806 51.9572 77.3048C50.2921 77.19 48.625 77.4989 47.1122 78.2028C46.0475 78.7029 45.5408 79.1348 45.5181 79.1007C45.9856 78.6989 46.5045 78.3607 47.061 78.0948C48.5827 77.3435 50.2736 76.9989 51.9686 77.0945C53.1487 77.1549 54.3071 77.4344 55.3846 77.9186C56.5887 78.4917 57.7477 79.1547 58.8518 79.9021C61.3768 81.5785 64.1737 82.8053 67.1185 83.528C68.9642 84.0116 70.8704 84.226 72.7776 84.1646C74.5078 84.1041 76.1814 83.5347 77.5885 82.5278C78.1924 82.0966 78.7047 81.55 79.0956 80.9198C79.4865 80.2896 79.7483 79.5883 79.8658 78.8563C79.9661 78.264 79.9478 77.6576 79.812 77.0723C79.6762 76.487 79.4255 75.9344 79.0744 75.4463C78.7212 75.0768 78.2905 74.7899 77.8131 74.6061C77.3357 74.4224 76.8235 74.3464 76.3132 74.3836C75.9369 74.4421 75.5657 74.5295 75.203 74.645Z" fill="#455A64"/>
<path d="M72.1855 69.6379C72.1849 70.0853 72.0939 70.528 71.9179 70.9394C71.4242 72.0702 70.5667 73.0042 69.4812 73.5935C68.7482 74.0193 67.9437 74.3082 67.107 74.446C66.148 74.5856 65.1738 74.5856 64.2148 74.446C62.1823 74.1903 60.0815 73.3946 57.8725 72.7069C55.6635 72.0193 53.4374 71.6101 51.4789 72.0306C49.7435 72.409 48.1717 73.3238 46.9869 74.645C46.1798 75.5262 45.5618 76.5628 45.1707 77.6912C44.9088 78.4983 44.8576 78.97 44.8234 78.9643C44.8095 78.8511 44.8095 78.7365 44.8234 78.6233C44.869 78.2964 44.9394 77.9734 45.0341 77.6571C45.3878 76.4898 45.992 75.4134 46.8047 74.5029C48.0012 73.123 49.6096 72.1628 51.3935 71.7635C53.4203 71.3145 55.709 71.7294 57.9294 72.4228C60.1498 73.1161 62.2336 73.9118 64.2205 74.1732C65.155 74.3094 66.1043 74.3094 67.0387 74.1732C67.8505 74.0507 68.6335 73.7831 69.3502 73.3833C70.4113 72.8276 71.264 71.9445 71.7813 70.8655C71.9485 70.4677 72.0837 70.0572 72.1855 69.6379Z" fill="#455A64"/>
<path d="M122.429 181.571C123.23 181.707 123.996 182.003 124.681 182.44C125.365 182.878 125.955 183.448 126.414 184.117C127.321 185.47 127.906 187.011 128.122 188.624C128.641 191.716 127.804 195.228 126.654 198.15C123.494 196.666 121.809 192.995 121.074 191.074C119.935 188.045 119.645 181.855 122.401 181.571" fill="#FECE3E"/>
<path d="M131.339 202.52C130.863 201.745 130.601 200.859 130.58 199.95C130.559 199.042 130.78 198.144 131.219 197.348C131.67 196.56 132.274 195.869 132.995 195.317C133.717 194.764 134.542 194.361 135.421 194.131C135.814 193.981 136.236 193.919 136.656 193.949C137.075 193.978 137.484 194.099 137.852 194.302C138.159 194.547 138.395 194.87 138.535 195.237C138.675 195.603 138.714 196.001 138.649 196.388C138.508 197.161 138.167 197.884 137.659 198.485C136.008 200.61 134.026 202.361 131.339 202.52Z" fill="#FECE3E"/>
<path d="M130.542 212.318C130.476 212.108 130.44 211.89 130.434 211.67C130.394 211.25 130.337 210.636 130.297 209.88C130.153 207.902 130.274 205.915 130.656 203.969C131.064 202.004 131.994 200.184 133.349 198.701C133.766 198.265 134.237 197.883 134.749 197.564C134.92 197.433 135.113 197.333 135.319 197.269C134.671 197.753 134.066 198.291 133.508 198.877C132.245 200.363 131.376 202.141 130.98 204.049C130.603 205.968 130.451 207.925 130.525 209.88C130.579 210.692 130.585 211.506 130.542 212.318Z" fill="#263238"/>
<path d="M123.181 186.283C123.34 186.609 123.474 186.947 123.579 187.294C123.813 187.954 124.149 188.908 124.524 190.096C125.304 192.472 126.323 195.78 127.371 199.445C128.419 203.111 129.261 206.464 129.842 208.897C130.132 210.113 130.354 211.096 130.497 211.784C130.591 212.134 130.656 212.491 130.69 212.852C130.551 212.518 130.442 212.172 130.366 211.818C130.166 211.079 129.91 210.113 129.603 208.976C128.959 206.561 128.066 203.225 127.029 199.559C125.993 195.893 125.014 192.58 124.297 190.187L123.46 187.345C123.337 187 123.244 186.644 123.181 186.283Z" fill="#263238"/>
<path d="M127.132 205.441C126.337 203.703 125.14 202.179 123.64 200.993C122.139 199.807 120.378 198.994 118.501 198.621C117.544 198.439 116.366 198.462 115.831 199.281C115.295 200.099 115.757 201.19 116.332 201.975C117.558 203.601 119.241 204.828 121.167 205.5C123.092 206.171 125.174 206.258 127.149 205.748" fill="#FECE3E"/>
<path d="M119.548 201.344C119.761 201.336 119.974 201.358 120.18 201.412C120.424 201.445 120.666 201.497 120.903 201.565C121.223 201.64 121.539 201.733 121.848 201.844C122.657 202.127 123.435 202.49 124.171 202.929C125.987 204.002 127.524 205.488 128.657 207.266C129.112 207.983 129.494 208.745 129.796 209.539C129.919 209.843 130.024 210.154 130.109 210.471C130.188 210.707 130.249 210.948 130.291 211.193C130.351 211.396 130.378 211.607 130.371 211.818C130.308 211.818 130.132 210.948 129.568 209.636C129.233 208.869 128.831 208.133 128.367 207.436C127.792 206.589 127.134 205.801 126.403 205.083C125.662 204.377 124.853 203.745 123.989 203.196C123.275 202.753 122.525 202.373 121.746 202.06C120.425 201.56 119.537 201.412 119.548 201.344Z" fill="#263238"/>
</g>
<defs>
<clipPath id="clip0">
<rect width="259" height="213" fill="white"/>
</clipPath>
</defs>
</svg>
