<svg width="146" height="124" viewBox="0 0 146 124" fill="none" xmlns="http://www.w3.org/2000/svg">
<g clip-path="url(#clip0)">
<path d="M107.207 99.6046C126.469 80.8317 126.469 50.3949 107.207 31.622C87.9451 12.8491 56.7151 12.8491 37.453 31.622C18.1908 50.3949 18.1908 80.8317 37.453 99.6046C56.7151 118.377 87.9451 118.377 107.207 99.6046Z" fill="#F2F2F2"/>
<path d="M2.13904 3.93359L16.6052 37.0338L27.1893 29.9768L33.3212 38.663L34.4224 24.0161L47.2248 16.4108L2.13904 3.93359Z" fill="#FFB031"/>
<path d="M29.5343 28.4171L16.6051 37.0338L27.1893 29.9768L33.3212 38.663L34.4224 24.0161L14.0225 12.1797L29.5343 28.4171Z" fill="#FF9433"/>
<path d="M34.153 27.6064L14.0225 12.1797L34.4224 24.0161L34.153 27.6064Z" fill="#FF7733"/>
<path d="M33.5748 42.7867C33.4639 42.1381 33.3133 41.4973 33.147 40.8719L34.1373 40.6094C34.3195 41.2657 34.47 41.9374 34.5888 42.6091L33.5748 42.7867Z" fill="#FECE3E"/>
<path d="M21.5962 65.2724C20.1068 65.172 18.6808 64.7088 17.4687 63.9289L18.0391 63.0951C19.1007 63.7822 20.3524 64.1837 21.6675 64.2687L21.5962 65.2724ZM25.8584 64.454L25.4068 63.5583C26.4763 63.0487 27.5062 62.2535 28.4807 61.2034L29.2491 61.8751C28.1875 63.0178 27.0467 63.8903 25.8584 64.454ZM14.6087 60.7324C14.0304 59.5897 13.7214 58.3312 13.7214 57.0958C13.7214 56.9954 13.7214 56.895 13.7294 56.7947L13.7452 56.5785L14.7672 56.648L14.7593 56.8333C14.7593 56.9259 14.7513 57.0108 14.7513 57.0958C14.7513 58.1767 15.0207 59.2808 15.5277 60.2923L14.6087 60.7324ZM54.3549 60.5085L54.347 59.5048C55.6858 59.497 57.0643 59.443 58.4428 59.3426L58.522 60.3386C57.1198 60.4467 55.7175 60.5008 54.3549 60.5085ZM50.1878 60.3772L49.5302 60.3309C48.2706 60.2305 47.1218 60.0916 46.0286 59.9063L46.2029 58.918C47.2644 59.0955 48.3815 59.2345 49.6094 59.3349L50.2511 59.3812L50.1878 60.3772ZM62.6575 59.9217L62.5228 58.9257C63.8458 58.7481 65.2084 58.5319 66.5711 58.2771L66.7691 59.2577C65.3827 59.5202 63.9963 59.7441 62.6575 59.9217ZM41.9565 58.9102C40.7523 58.5087 39.6194 58.0223 38.5895 57.4587C38.4311 57.3737 38.2647 57.2811 38.1063 57.1884L38.6371 56.3314C38.7876 56.4163 38.9381 56.509 39.0886 56.5862C40.0631 57.1189 41.1326 57.5822 42.2813 57.9683L41.9565 58.9102ZM31.6971 58.5087L30.8098 58.0069C31.4753 56.8796 32.0457 55.6751 32.5052 54.4397L33.4717 54.7795C32.9885 56.0766 32.3943 57.3274 31.6971 58.5087ZM70.8254 58.3929L70.5798 57.4201C71.8632 57.1189 73.202 56.7715 74.5568 56.3932L74.842 57.3583C73.4714 57.7443 72.1246 58.0918 70.8254 58.3929ZM78.811 56.177L78.4941 55.2273C79.8013 54.8181 81.1006 54.3857 82.3919 53.9379L82.7326 54.8798C81.4333 55.3277 80.1261 55.7678 78.811 56.177ZM34.6759 54.8567C33.7332 54.1849 32.7191 53.4823 31.6179 52.8955L31.2772 52.7179L31.7447 51.83C31.8635 51.8918 31.9903 51.9535 32.1091 52.023C33.2657 52.6407 34.3511 53.3897 35.278 54.0537L34.6759 54.8567ZM16.2011 53.3511L15.4802 52.633C16.3833 51.7682 17.6192 51.1197 19.2591 50.6564L19.6077 51.5984C18.1025 52.0385 16.9775 52.6176 16.2011 53.3511ZM27.5221 51.3976C26.3575 51.1428 25.1533 51.0116 23.965 51.0116L23.5451 51.0193L23.5213 50.0156C24.9394 49.9847 26.3654 50.1159 27.7518 50.4171L27.5221 51.3976ZM34.5571 50.8108L33.543 50.6332C33.7807 49.3361 33.8995 48.0235 33.9074 46.7109L34.9373 46.7187C34.9294 48.0853 34.8027 49.4596 34.5571 50.8108Z" fill="#FECE3E"/>
<path d="M86.662 53.4648L86.2976 52.5306C86.9393 52.2912 87.5731 52.0519 88.2148 51.8125L88.5872 52.7468C87.9534 52.9861 87.3117 53.2255 86.662 53.4648Z" fill="#FECE3E"/>
<path d="M106.492 77.1674L70.6986 97.7363L34.9056 77.1674C34.9056 77.1519 34.9056 77.1288 34.9136 77.1133C34.9452 76.9821 36.9179 75.3761 39.9284 72.9903C39.9601 72.9671 39.9838 72.944 40.0076 72.9208C49.8946 65.0916 70.6986 49.0781 70.6986 49.0781C70.6986 49.0781 91.5025 65.0916 101.39 72.9131C104.448 75.3298 106.46 76.9666 106.492 77.1056C106.492 77.1211 106.492 77.1442 106.492 77.1674Z" fill="#7A4C08"/>
<path d="M85.4182 32.0469H46.797C43.4855 32.0469 40.7998 34.6643 40.7998 37.8917V94.796C40.7998 98.0234 43.4855 100.641 46.797 100.641H95.1864C98.4979 100.641 101.184 98.0234 101.184 94.796V47.4118L85.4182 32.0469Z" fill="white"/>
<path d="M85.4182 41.5669C85.4182 44.7943 88.1039 47.4117 91.4154 47.4117H101.184L85.4182 32.0391V41.5669Z" fill="#E6E8E8"/>
<path d="M65.3906 41.6602H52.0732C50.8928 41.6602 49.9342 42.5944 49.9342 43.7448V56.7317C49.9342 57.8821 50.8928 58.8164 52.0732 58.8164H65.3985C66.579 58.8164 67.5376 57.8821 67.5376 56.7317V43.7448C67.5296 42.5944 66.571 41.6602 65.3906 41.6602Z" fill="#FECE3E"/>
<path d="M83.6436 63.582H51.6771C50.7265 63.582 49.958 64.331 49.958 65.2575C49.958 66.184 50.7265 66.933 51.6771 66.933H83.6436C84.5943 66.933 85.3628 66.184 85.3628 65.2575C85.3628 64.331 84.5943 63.582 83.6436 63.582Z" fill="#D9DBDB"/>
<path d="M83.6436 71.9336H51.6771C50.7265 71.9336 49.958 72.6825 49.958 73.6091C49.958 74.5356 50.7265 75.2845 51.6771 75.2845H83.6436C84.5943 75.2845 85.3628 74.5356 85.3628 73.6091C85.3628 72.6825 84.5943 71.9336 83.6436 71.9336Z" fill="#D9DBDB"/>
<path d="M69.13 80.0391H51.6771C50.7265 80.0391 49.958 80.788 49.958 81.7145C49.958 82.6411 50.7265 83.39 51.6771 83.39H69.13C70.0807 83.39 70.8491 82.6411 70.8491 81.7145C70.8491 80.7957 70.0807 80.0391 69.13 80.0391Z" fill="#D9DBDB"/>
<path d="M106.492 77.1602V110.623C106.492 112.963 104.527 114.878 102.126 114.878H39.255C36.8545 114.878 34.9056 112.963 34.9056 110.623V77.1602L70.6986 97.7291L106.492 77.1602Z" fill="#FFB031"/>
<path d="M105.279 113.55L82.2414 91.0976L70.6986 97.73L59.1479 91.0898L36.1099 113.543C36.9021 114.361 38.0191 114.878 39.255 114.878H102.126C103.37 114.878 104.487 114.361 105.279 113.55Z" fill="#FF9433"/>
<path d="M3.35906 13.754L8.05699 24.2546C8.29465 24.7874 8.04114 25.4128 7.4945 25.6444L7.32813 25.7139C6.77357 25.9455 6.13187 25.6985 5.90212 25.158L1.37057 14.5801C1.1329 14.0242 1.4181 13.3911 1.99643 13.1826C2.53514 12.9896 3.13724 13.2366 3.35906 13.754Z" fill="#FFB031"/>
<path d="M21.7547 87.6367C19.8454 87.6367 18.3005 89.1423 18.3005 91.0031C18.3005 92.8639 19.8454 94.3695 21.7547 94.3695C23.6639 94.3695 25.2088 92.8639 25.2088 91.0031C25.2088 89.1423 23.656 87.6367 21.7547 87.6367ZM21.7547 92.362C20.9862 92.362 20.3603 91.752 20.3603 91.0031C20.3603 90.2542 20.9862 89.6442 21.7547 89.6442C22.5231 89.6442 23.149 90.2542 23.149 91.0031C23.149 91.752 22.5231 92.362 21.7547 92.362Z" fill="#F2F2F2"/>
<path d="M114.247 101.25C112.338 101.25 110.793 102.756 110.793 104.616C110.793 106.477 112.338 107.983 114.247 107.983C116.157 107.983 117.702 106.477 117.702 104.616C117.702 102.756 116.149 101.25 114.247 101.25ZM114.247 105.975C113.479 105.975 112.853 105.365 112.853 104.616C112.853 103.867 113.479 103.257 114.247 103.257C115.016 103.257 115.642 103.867 115.642 104.616C115.642 105.365 115.016 105.975 114.247 105.975Z" fill="#F2F2F2"/>
<path d="M142.482 49C141.025 49 139.836 50.1504 139.836 51.5788C139.836 52.9995 141.017 54.1577 142.482 54.1577C143.94 54.1577 145.129 53.0072 145.129 51.5788C145.121 50.1582 143.94 49 142.482 49ZM142.482 52.6212C141.888 52.6212 141.413 52.1579 141.413 51.5788C141.413 50.9998 141.888 50.5365 142.482 50.5365C143.077 50.5365 143.552 50.9998 143.552 51.5788C143.552 52.1579 143.069 52.6212 142.482 52.6212Z" fill="#F2F2F2"/>
<path d="M95.947 7.80078C94.4021 7.80078 93.1504 9.02071 93.1504 10.5263C93.1504 12.0319 94.4021 13.2519 95.947 13.2519C97.4918 13.2519 98.7435 12.0319 98.7435 10.5263C98.7435 9.02071 97.4918 7.80078 95.947 7.80078ZM95.947 11.6304C95.3211 11.6304 94.8141 11.1363 94.8141 10.5263C94.8141 9.91636 95.3211 9.42221 95.947 9.42221C96.5728 9.42221 97.0798 9.91636 97.0798 10.5263C97.0798 11.1363 96.5728 11.6304 95.947 11.6304Z" fill="#F2F2F2"/>
<path d="M6.56759 71.2539C4.94352 71.2539 3.62842 72.5356 3.62842 74.1184C3.62842 75.7012 4.94352 76.9829 6.56759 76.9829C8.19166 76.9829 9.50676 75.7012 9.50676 74.1184C9.50676 72.5356 8.19166 71.2539 6.56759 71.2539Z" fill="#F2F2F2"/>
<path d="M124.436 80.7344C123.255 80.7344 122.297 81.6686 122.297 82.8191C122.297 83.9695 123.255 84.9037 124.436 84.9037C125.616 84.9037 126.575 83.9695 126.575 82.8191C126.575 81.6609 125.616 80.7344 124.436 80.7344Z" fill="#F2F2F2"/>
<path d="M53.6735 8.65625C51.9464 8.65625 50.5521 10.0152 50.5521 11.6984C50.5521 13.3815 51.9464 14.7405 53.6735 14.7405C55.4006 14.7405 56.7949 13.3815 56.7949 11.6984C56.7949 10.0152 55.4006 8.65625 53.6735 8.65625Z" fill="#F2F2F2"/>
<path d="M70.3975 118.906C69.1378 118.906 68.1238 119.902 68.1238 121.122C68.1238 122.35 69.1458 123.338 70.3975 123.338C71.6571 123.338 72.6712 122.342 72.6712 121.122C72.6712 119.902 71.6492 118.906 70.3975 118.906Z" fill="#F2F2F2"/>
<path d="M114.445 20.4023C112.972 20.4023 111.776 21.5682 111.776 23.0043C111.776 24.4405 112.972 25.6063 114.445 25.6063C115.919 25.6063 117.115 24.4405 117.115 23.0043C117.115 21.5605 115.919 20.4023 114.445 20.4023Z" fill="#F2F2F2"/>
<path d="M19.8374 43.6016C20.6774 43.6016 21.3584 42.9379 21.3584 42.1192C21.3584 41.3004 20.6774 40.6367 19.8374 40.6367C18.9973 40.6367 18.3163 41.3004 18.3163 42.1192C18.3163 42.9379 18.9973 43.6016 19.8374 43.6016Z" fill="#F2F2F2"/>
<path d="M143.401 36.0195C141.968 36.0195 140.811 37.1545 140.811 38.5443C140.811 39.9418 141.975 41.0691 143.401 41.0691C144.835 41.0691 145.992 39.9341 145.992 38.5443C146 37.1545 144.835 36.0195 143.401 36.0195Z" fill="#F2F2F2"/>
<path d="M5.10986 52.6298C6.02431 52.6298 6.76562 51.9073 6.76562 51.016C6.76562 50.1248 6.02431 49.4023 5.10986 49.4023C4.19541 49.4023 3.4541 50.1248 3.4541 51.016C3.4541 51.9073 4.19541 52.6298 5.10986 52.6298Z" fill="#F2F2F2"/>
<path d="M74.6835 3.25305L75.7292 2.24159C76.0857 1.89415 76.0857 1.31507 75.7292 0.967617C75.3727 0.620169 74.7786 0.620169 74.4221 0.967617L73.3842 1.97908L72.3464 0.967617C71.9899 0.620169 71.3957 0.620169 71.0392 0.967617C70.6827 1.31507 70.6827 1.89415 71.0392 2.24159L72.0771 3.25305L71.0392 4.26451C70.6827 4.61196 70.6827 5.19104 71.0392 5.53849C71.3957 5.88594 71.9899 5.88594 72.3464 5.53849L73.3842 4.52703L74.4221 5.53849C74.7786 5.88594 75.3727 5.88594 75.7292 5.53849C76.0857 5.19104 76.0857 4.61196 75.7292 4.26451L74.6835 3.25305Z" fill="#F2F2F2"/>
<path d="M3.92944 33.8662L4.96726 32.8548C5.32377 32.5073 5.32377 31.9283 4.96726 31.5808C4.61076 31.2334 4.01659 31.2334 3.66009 31.5808L2.62226 32.5845L1.58444 31.5731C1.22794 31.2256 0.633768 31.2256 0.277265 31.5731C-0.0792381 31.9205 -0.0792381 32.4996 0.277265 32.8471L1.31509 33.8585L0.277265 34.87C-0.0792381 35.2174 -0.0792381 35.7965 0.277265 36.144C0.633768 36.4914 1.22794 36.4914 1.58444 36.144L2.62226 35.1325L3.66009 36.144C4.01659 36.4914 4.61076 36.4914 4.96726 36.144C5.32377 35.7965 5.32377 35.2174 4.96726 34.87L3.92944 33.8662Z" fill="#F2F2F2"/>
<path d="M126.527 95.7224L127.406 94.8654C127.715 94.5643 127.715 94.0778 127.406 93.7844C127.097 93.4833 126.598 93.4833 126.297 93.7844L125.418 94.6415L124.538 93.7844C124.23 93.4833 123.73 93.4833 123.429 93.7844C123.12 94.0856 123.12 94.572 123.429 94.8654L124.309 95.7224L123.429 96.5795C123.12 96.8806 123.12 97.367 123.429 97.6604C123.738 97.9615 124.237 97.9615 124.538 97.6604L125.418 96.8034L126.297 97.6604C126.606 97.9615 127.105 97.9615 127.406 97.6604C127.715 97.3593 127.715 96.8729 127.406 96.5795L126.527 95.7224Z" fill="#F2F2F2"/>
</g>
<defs>
<clipPath id="clip0">
<rect width="146" height="122.642" fill="white" transform="translate(0 0.699219)"/>
</clipPath>
</defs>
</svg>
