<svg width="79" height="79" viewBox="0 0 79 79" fill="none" xmlns="http://www.w3.org/2000/svg">
<path d="M39.4384 78.9394C61.2197 78.9394 78.8769 61.2822 78.8769 39.5009C78.8769 17.7197 61.2197 0.0625 39.4384 0.0625C17.6572 0.0625 0 17.7197 0 39.5009C0 61.2822 17.6572 78.9394 39.4384 78.9394Z" fill="#F7F7F7"/>
<path d="M23.7863 68.0925L14.0499 62.793L4.31353 68.0925C2.46492 69.0786 1.35559 71.0505 1.35559 73.1455V77.7056H26.8672V73.1455C26.7441 71.0505 25.6349 69.0786 23.7863 68.0925Z" fill="#C2C2C2"/>
<path d="M26.7441 78.9393H1.23246C0.493016 78.9393 0 78.4463 0 77.7068V73.1467C0 70.5585 1.35575 68.2168 3.57409 66.9844L13.3105 61.6848C13.6802 61.4384 14.1732 61.4384 14.5429 61.6848L24.2793 66.9844C26.4977 68.2168 27.8534 70.5585 27.8534 73.1467V77.7068C27.9766 78.4463 27.3604 78.9393 26.7441 78.9393ZM2.46492 76.4744H25.5116V73.1467C25.5116 71.5445 24.6489 69.9423 23.17 69.2029L13.9266 64.1499L4.68326 69.2029C3.20437 69.9423 2.34163 71.5445 2.34163 73.1467V76.4744H2.46492V76.4744Z" fill="#183651"/>
<path d="M49.1747 68.0925L39.4383 62.793L29.7021 68.0925C27.8535 69.0786 26.7441 71.0505 26.7441 73.1455V77.7056H52.2558V73.1455C52.1326 71.0505 51.0235 69.0786 49.1747 68.0925Z" fill="#C2C2C2"/>
<path d="M52.1326 78.9393H26.7441C26.0046 78.9393 25.5116 78.4463 25.5116 77.7068V73.1467C25.5116 70.5585 26.8674 68.2168 29.0857 66.9844L38.8221 61.6848C39.1918 61.4384 39.6848 61.4384 40.0545 61.6848L49.7909 66.9844C52.0093 68.2168 53.365 70.5585 53.365 73.1467V77.7068C53.365 78.4463 52.872 78.9393 52.1326 78.9393ZM27.9765 76.4744H51.0232V73.1467C51.0232 71.5445 50.1605 69.9423 48.6816 69.2029L39.4382 64.1499L30.1949 69.2029C28.716 69.9423 27.8532 71.5445 27.8532 73.1467V76.4744H27.9765V76.4744Z" fill="#183651"/>
<path d="M26.128 70.6807C25.635 69.5716 24.7722 68.7088 23.7863 68.0925L14.0499 62.793L4.31355 68.0925C3.20438 68.7087 2.46494 69.5714 1.97192 70.6807" fill="white"/>
<path d="M26.128 71.912C25.6349 71.912 25.2652 71.6656 25.0188 71.1726C24.6491 70.3098 23.9096 69.5704 23.1702 69.2007L13.9268 64.1477L4.68342 69.2007C3.82068 69.6937 3.20453 70.3098 2.83481 71.1726C2.58838 71.7887 1.84877 72.1586 1.23262 71.7887C0.616471 71.5423 0.369885 70.8027 0.616471 70.1866C1.23262 68.8308 2.21865 67.7216 3.57441 67.1055L13.3108 61.8059C13.6805 61.5595 14.1735 61.5595 14.5433 61.8059L24.2797 67.1055C25.5121 67.8449 26.6213 68.831 27.2376 70.1866C27.484 70.8027 27.2376 71.5423 26.6214 71.7887C26.4977 71.912 26.3744 71.912 26.128 71.912Z" fill="#183651"/>
<path d="M51.6395 70.6807C51.1465 69.5716 50.2838 68.7088 49.2979 68.0925L39.5615 62.793L29.8253 68.0925C28.7161 68.7087 27.9767 69.5714 27.4836 70.6807" fill="white"/>
<path d="M27.237 71.912C27.1137 71.912 26.8673 71.912 26.744 71.7887C26.1278 71.5423 25.8812 70.8027 26.1278 70.1866C26.744 68.8308 27.73 67.7216 29.0858 67.1055L38.8221 61.8059C39.1919 61.5595 39.6849 61.5595 40.0546 61.8059L49.791 67.1055C51.0235 67.8449 52.1326 68.831 52.7489 70.1866C52.9954 70.8027 52.7489 71.5423 52.1328 71.7887C51.5166 72.0352 50.777 71.7887 50.5306 71.1726C50.1609 70.3098 49.4214 69.5704 48.682 69.2007L39.4386 64.1477L30.1952 69.2007C29.3325 69.6937 28.7163 70.3098 28.3466 71.1726C28.0997 71.6656 27.73 71.912 27.237 71.912Z" fill="#183651"/>
<path d="M47.5723 42.457H45.1074V44.922H47.5723V42.457Z" fill="#183651"/>
<path d="M53.4882 42.457H51.0233V44.922H53.4882V42.457Z" fill="#183651"/>
<path d="M59.2806 42.457H56.8157V44.922H59.2806V42.457Z" fill="#183651"/>
<path d="M22.0607 42.457H19.5958V44.922H22.0607V42.457Z" fill="#183651"/>
<path d="M27.8533 42.457H25.3884V44.922H27.8533V42.457Z" fill="#183651"/>
<path d="M33.769 42.457H31.3041V44.922H33.769V42.457Z" fill="#183651"/>
<path d="M20.4586 57.0008C20.4586 61.3143 17.6239 66.2442 14.0498 66.2442C10.4758 66.2442 7.64111 61.4376 7.64111 57.0008C7.64111 52.564 10.4758 50.4688 14.0498 50.4688C17.6239 50.4688 20.4586 52.6871 20.4586 57.0008Z" fill="white"/>
<path d="M13.9266 67.4747C9.48977 67.4747 6.2854 61.9287 6.2854 56.9989C6.2854 52.3156 9.36647 49.2344 13.9266 49.2344C18.4867 49.2344 21.5678 52.3154 21.5678 56.9989C21.6911 61.9285 18.3634 67.4747 13.9266 67.4747ZM13.9266 51.6993C10.7222 51.6993 8.75032 53.6712 8.75032 56.9989C8.75032 60.9427 11.3385 65.0098 13.9266 65.0098C16.5147 65.0098 19.1029 60.9427 19.1029 56.9989C19.2262 53.6712 17.2543 51.6993 13.9266 51.6993Z" fill="#183651"/>
<path d="M45.8471 57.0008C45.8471 61.3143 43.0125 66.2442 39.4384 66.2442C35.8643 66.2442 33.0297 61.4376 33.0297 57.0008C33.0297 52.564 35.8643 50.4688 39.4384 50.4688C43.0125 50.4688 45.8471 52.6871 45.8471 57.0008Z" fill="white"/>
<path d="M39.4384 67.4747C35.0016 67.4747 31.7972 61.9287 31.7972 56.9989C31.7972 52.3156 34.8783 49.2344 39.4384 49.2344C43.9986 49.2344 47.0796 52.3154 47.0796 56.9989C47.0795 61.9285 43.8751 67.4747 39.4384 67.4747ZM39.4384 51.6993C36.2341 51.6993 34.2622 53.6712 34.2622 56.9989C34.2622 60.9427 36.8504 65.0098 39.4384 65.0098C42.0265 65.0098 44.6147 60.9427 44.6147 56.9989C44.6147 53.6712 42.6428 51.6993 39.4384 51.6993Z" fill="#183651"/>
<path d="M74.6865 68.0925L64.9501 62.793L55.2137 68.0925C53.3651 69.0786 52.2557 71.0505 52.2557 73.1455V77.7056H77.7674V73.1455C77.6442 71.0505 76.5351 69.0786 74.6865 68.0925Z" fill="#C2C2C2"/>
<path d="M77.6443 78.9393H52.1326C51.3932 78.9393 50.9001 78.4463 50.9001 77.7068V73.1467C50.9001 70.5585 52.2559 68.2168 54.4742 66.9844L64.3338 61.6848C64.7035 61.4384 65.1965 61.4384 65.5662 61.6848L75.4258 66.9844C77.6441 68.2168 78.9998 70.5585 78.9998 73.1467V77.7068C78.8767 78.4463 78.3837 78.9393 77.6443 78.9393ZM53.3651 76.4744H76.4118V73.1467C76.4118 71.5445 75.5491 69.9423 74.0702 69.2029L64.8268 64.1499L55.5834 69.2029C54.1045 69.9423 53.2418 71.5445 53.2418 73.1467V76.4744H53.3651V76.4744Z" fill="#183651"/>
<path d="M77.1512 70.6807C76.6582 69.5716 75.7955 68.7088 74.8096 68.0925L65.0732 62.793L55.337 68.0925C54.2278 68.7087 53.4884 69.5714 52.9954 70.6807" fill="white"/>
<path d="M77.1511 71.912C76.6581 71.912 76.2884 71.6656 76.042 71.1726C75.6722 70.3098 74.9328 69.5704 74.1934 69.2007L64.95 64.1477L55.7066 69.2007C54.8439 69.6937 54.2277 70.3098 53.858 71.1726C53.6116 71.7887 52.872 72.0353 52.2558 71.7887C51.6397 71.5423 51.3931 70.8027 51.6397 70.1866C52.2558 68.8308 53.2418 67.7216 54.5976 67.1055L64.4571 61.8059C64.8268 61.5595 65.3199 61.5595 65.6896 61.8059L75.5491 67.1055C76.7816 67.8449 77.8907 68.831 78.507 70.1866C78.7535 70.8027 78.507 71.5423 77.8909 71.7887C77.3977 71.912 77.2744 71.912 77.1511 71.912Z" fill="#183651"/>
<path d="M71.3587 57.0008C71.3587 61.3143 68.5241 66.2442 64.95 66.2442C61.3759 66.2442 58.5413 61.4376 58.5413 57.0008C58.5413 52.564 61.3759 50.4688 64.95 50.4688C68.4008 50.4688 71.3587 52.6871 71.3587 57.0008Z" fill="white"/>
<path d="M64.9502 67.4747C60.5133 67.4747 57.309 61.9287 57.309 56.9989C57.309 52.3156 60.39 49.2344 64.9502 49.2344C69.5103 49.2344 72.5913 52.3154 72.5913 56.9989C72.5913 61.9285 69.2637 67.4747 64.9502 67.4747ZM64.9502 51.6993C61.7458 51.6993 59.7739 53.6712 59.7739 56.9989C59.7739 60.9427 62.3621 65.0098 64.9502 65.0098C67.5384 65.0098 70.1264 60.9427 70.1264 56.9989C70.1264 53.6712 68.1545 51.6993 64.9502 51.6993Z" fill="#183651"/>
<path d="M48.7863 18.9168L39.0499 13.6172L29.1904 18.9168C27.3417 19.9028 26.2324 21.8747 26.2324 23.9697V28.5299H51.7441V23.9697C51.7441 21.8745 50.6349 19.9026 48.7863 18.9168Z" fill="#FECE3E"/>
<path d="M51.7441 29.7635H26.2325C25.493 29.7635 25 29.2705 25 28.531V23.9709C25 21.3827 26.3558 19.0411 28.5741 17.8086L38.4336 12.509C38.8033 12.2626 39.2964 12.2626 39.6661 12.509L49.5256 17.8086C51.7439 19.0411 53.0997 21.3827 53.0997 23.9709V28.531C52.9766 29.1472 52.3604 29.7635 51.7441 29.7635ZM27.4649 27.2986H50.5116V23.9709C50.5116 22.3687 49.6489 20.7665 48.17 20.0271L38.9266 14.9741L29.6833 20.0271C28.2044 20.7665 27.3416 22.3687 27.3416 23.9709V27.2986H27.4649Z" fill="#183651"/>
<path d="M51.1279 21.5048C50.6349 20.3956 49.7722 19.5329 48.7863 18.9166L39.0499 13.6172L29.1904 18.9168C28.0812 19.5329 27.3418 20.3957 26.8488 21.505" fill="white"/>
<path d="M26.7254 22.7402C26.6021 22.7402 26.3557 22.7402 26.2324 22.6169C25.6162 22.3704 25.3696 21.6308 25.6162 21.0147C26.2324 19.6589 27.2184 18.5498 28.5742 17.9336L38.4337 12.634C38.8034 12.3876 39.2964 12.3876 39.6662 12.634L49.5257 17.9336C50.7582 18.6731 51.8673 19.6591 52.4836 21.0147C52.7301 21.6308 52.4836 22.3704 51.8675 22.6169C51.2513 22.8633 50.5117 22.6169 50.2653 22.0007C49.8956 21.138 49.1561 20.3985 48.4167 20.0288L39.1733 14.9758L29.9298 20.0288C29.067 20.5218 28.4509 21.138 28.0811 22.0007C27.7113 22.4937 27.2183 22.7402 26.7254 22.7402Z" fill="#183651"/>
<path d="M45.4586 7.825C45.4586 12.1385 42.6239 17.0684 39.0498 17.0684C35.4758 17.0684 32.6411 12.2618 32.6411 7.825C32.6411 3.38817 35.4758 1.29297 39.0498 1.29297C42.5006 1.29313 45.4586 3.51146 45.4586 7.825Z" fill="white"/>
<path d="M38.9266 18.3028C34.4898 18.3028 31.2854 12.7568 31.2854 7.82699C31.2854 3.14373 34.3665 0.0625 38.9266 0.0625C43.4867 0.0625 46.5678 3.14357 46.5678 7.82699C46.6911 12.7568 43.3634 18.3028 38.9266 18.3028ZM38.9266 2.52758C35.7222 2.52758 33.7503 4.49948 33.7503 7.82714C33.7503 11.771 36.3385 15.8381 38.9266 15.8381C41.5148 15.8381 44.1029 11.771 44.1029 7.82714C44.2262 4.49948 42.2543 2.52758 38.9266 2.52758Z" fill="#183651"/>
<path d="M38.9265 39.4982C38.1871 39.4982 37.6941 39.0052 37.6941 38.2657V28.5293C37.6941 27.7899 38.1871 27.2969 38.9265 27.2969C39.666 27.2969 40.159 27.7899 40.159 28.5293V38.2657C40.159 39.0053 39.666 39.4982 38.9265 39.4982Z" fill="#183651"/>
<path d="M64.9501 51.7014C64.2107 51.7014 63.7176 51.2084 63.7176 50.4689V39.5001H15.1591V50.4689C15.1591 51.2084 14.6661 51.7014 13.9267 51.7014C13.1872 51.7014 12.6942 51.2084 12.6942 50.4689V38.2676C12.6942 37.5282 13.1872 37.0352 13.9267 37.0352H64.8268C65.5663 37.0352 66.0593 37.5282 66.0593 38.2676V50.4689C66.1826 51.2084 65.5663 51.7014 64.9501 51.7014Z" fill="#183651"/>
<path d="M39.4384 51.7014C38.6989 51.7014 38.2059 51.2084 38.2059 50.4689V38.2676C38.2059 37.5282 38.6989 37.0352 39.4384 37.0352C40.1778 37.0352 40.6709 37.5282 40.6709 38.2676V50.4689C40.6707 51.2084 40.1778 51.7014 39.4384 51.7014Z" fill="#183651"/>
</svg>
