<svg width="22" height="17" viewBox="0 0 22 17" fill="none" xmlns="http://www.w3.org/2000/svg">
<path d="M2.196 0.832031H19.6088C20.8176 0.832031 21.8053 1.8011 21.8053 2.9871V13.9295C21.8053 15.1155 20.8176 16.0846 19.6088 16.0846H2.196C0.987186 16.0846 0 15.1155 0 13.9295V2.9871C0 1.8011 0.987186 0.832031 2.196 0.832031V0.832031ZM19.9093 15.1272L13.8559 10.3048L12.0969 11.89C11.4108 12.5087 10.3945 12.5087 9.70785 11.89L7.95718 10.3119L1.90846 15.1303C2.00136 15.1516 2.09738 15.1628 2.196 15.1628H19.6088C19.7126 15.1628 19.8133 15.1506 19.9093 15.1272ZM20.8441 2.75693C20.7314 2.17946 20.2103 1.75374 19.6088 1.75374H2.196C1.59445 1.75374 1.07386 2.17946 0.961235 2.75693L10.3426 11.2137C10.6675 11.5066 11.1372 11.5066 11.4622 11.2137C14.5914 8.39311 17.7091 5.58317 20.8441 2.75693ZM14.5524 9.67638L20.6863 14.563C20.8005 14.3771 20.8664 14.1607 20.8664 13.9295V3.98571L14.5524 9.67638ZM1.12473 14.5721L7.26064 9.68402L0.938917 3.98571V13.9295C0.938917 14.1642 1.00691 14.3842 1.12473 14.5721Z" fill="black"/>
</svg>
