<svg width="234" height="201" viewBox="0 0 234 201" fill="none" xmlns="http://www.w3.org/2000/svg">
<g clip-path="url(#clip0_4739_5236)">
<path d="M171.826 162.096C202.698 131.329 202.698 81.4449 171.826 50.6776C140.954 19.9103 90.9001 19.9103 60.0279 50.6776C29.1557 81.4449 29.1557 131.329 60.0279 162.096C90.9001 192.863 140.954 192.863 171.826 162.096Z" fill="#F2F2F2"/>
<path d="M3.42871 5.30469L26.6141 59.5534L43.5778 47.9875L53.4056 62.2235L55.1705 38.2184L75.6895 25.7539L3.42871 5.30469Z" fill="#FFB031"/>
<path d="M47.3361 45.4322L26.614 59.5543L43.5777 47.9883L53.4054 62.2244L55.1704 38.2193L22.4746 18.8203L47.3361 45.4322Z" fill="#FF9433"/>
<path d="M54.7387 44.1035L22.4746 18.8203L55.1704 38.2193L54.7387 44.1035Z" fill="#FF7733"/>
<path d="M53.8116 68.9826C53.6339 67.9196 53.3926 66.8693 53.126 65.8443L54.7132 65.4141C55.0052 66.4897 55.2464 67.5906 55.4369 68.6915L53.8116 68.9826Z" fill="#FECE3E"/>
<path d="M34.6134 105.831C32.2263 105.666 29.9407 104.907 27.998 103.629L28.9123 102.262C30.6137 103.389 32.6199 104.047 34.7277 104.186L34.6134 105.831ZM41.4446 104.49L40.7208 103.022C42.435 102.187 44.0856 100.883 45.6474 99.1622L46.879 100.263C45.1776 102.136 43.3492 103.566 41.4446 104.49ZM23.4143 98.3903C22.4874 96.5174 21.9922 94.4548 21.9922 92.4301C21.9922 92.2656 21.9922 92.1011 22.0049 91.9366L22.0303 91.5823L23.6682 91.6962L23.6555 91.9999C23.6555 92.1517 23.6428 92.2909 23.6428 92.4301C23.6428 94.2017 24.0746 96.0113 24.8872 97.669L23.4143 98.3903ZM87.117 98.0233L87.1043 96.3782C89.2502 96.3656 91.4595 96.277 93.6689 96.1125L93.7959 97.7449C91.5484 97.9221 89.301 98.0106 87.117 98.0233ZM80.4382 97.8082L79.3843 97.7322C77.3655 97.5677 75.5243 97.34 73.7721 97.0363L74.0514 95.4165C75.7529 95.7076 77.5432 95.9353 79.5113 96.0998L80.5398 96.1758L80.4382 97.8082ZM100.424 97.0616L100.208 95.4292C102.329 95.1381 104.512 94.7838 106.696 94.3662L107.014 95.9733C104.792 96.4035 102.57 96.7705 100.424 97.0616ZM67.2456 95.4039C65.3156 94.7458 63.4999 93.9486 61.8493 93.0249C61.5953 92.8857 61.3287 92.7338 61.0747 92.582L61.9254 91.1773C62.1667 91.3165 62.4079 91.4684 62.6492 91.5949C64.211 92.4681 65.9251 93.2273 67.7662 93.86L67.2456 95.4039ZM50.8025 94.7458L49.3804 93.9233C50.447 92.0758 51.3612 90.1017 52.0977 88.0771L53.6468 88.6338C52.8722 90.7598 51.9199 92.8097 50.8025 94.7458ZM113.515 94.556L113.121 92.9616C115.178 92.4681 117.324 91.8986 119.495 91.2786L119.952 92.8604C117.756 93.4931 115.597 94.0625 113.515 94.556ZM126.314 90.9243L125.806 89.3678C127.901 88.6971 129.983 87.9885 132.053 87.2545L132.599 88.7983C130.517 89.5323 128.422 90.2536 126.314 90.9243ZM55.5768 88.7604C54.0658 87.6595 52.4405 86.5079 50.6756 85.5462L50.1296 85.2552L50.8787 83.7999C51.0692 83.9012 51.2723 84.0024 51.4628 84.1163C53.3166 85.1286 55.0562 86.3561 56.5418 87.4443L55.5768 88.7604ZM25.9665 86.2928L24.811 85.116C26.2585 83.6987 28.2393 82.6357 30.8677 81.8765L31.4263 83.4203C29.0138 84.1416 27.2108 85.0907 25.9665 86.2928ZM44.111 83.0913C42.2445 82.6737 40.3145 82.4586 38.4099 82.4586L37.7369 82.4712L37.6988 80.8262C39.9717 80.7756 42.2572 80.9907 44.4792 81.4842L44.111 83.0913ZM55.3863 82.1296L53.761 81.8385C54.142 79.7126 54.3324 77.5614 54.3451 75.4102L55.9958 75.4228C55.9831 77.6626 55.7799 79.9151 55.3863 82.1296Z" fill="#FECE3E"/>
<path d="M138.897 86.4814L138.313 84.9503C139.341 84.558 140.357 84.1657 141.386 83.7734L141.983 85.3046C140.967 85.6969 139.938 86.0892 138.897 86.4814Z" fill="#FECE3E"/>
<path d="M190.74 126.481C189.902 126.481 189.191 125.848 189.102 125C189.013 124.102 189.674 123.292 190.588 123.203C200.543 122.241 209.697 117.509 216.364 109.878C216.96 109.195 218.001 109.119 218.687 109.714C219.373 110.309 219.449 111.346 218.852 112.029C211.627 120.305 201.698 125.43 190.905 126.468C190.842 126.468 190.791 126.481 190.74 126.481Z" fill="#FECE3E"/>
<path d="M170.678 125.333L113.312 159.044L55.9448 125.333C55.9448 125.308 55.9448 125.27 55.9575 125.244C56.0083 125.029 59.17 122.397 63.995 118.487C64.0458 118.449 64.0838 118.411 64.1219 118.373C79.9683 105.542 113.312 79.2969 113.312 79.2969C113.312 79.2969 146.655 105.542 162.501 118.361C167.402 122.321 170.628 125.004 170.678 125.232C170.678 125.257 170.678 125.295 170.678 125.333Z" fill="#7A4C08"/>
<path d="M136.903 51.3789H75.0035C69.696 51.3789 65.3916 55.6687 65.3916 60.9582V154.22C65.3916 159.509 69.696 163.799 75.0035 163.799H152.559C157.867 163.799 162.171 159.509 162.171 154.22V76.5609L136.903 51.3789Z" fill="white"/>
<path d="M136.903 66.9825C136.903 72.272 141.208 76.5618 146.515 76.5618H162.171L136.903 51.3672V66.9825Z" fill="#E6E8E8"/>
<path d="M104.804 67.1328H83.46C81.5681 67.1328 80.0317 68.664 80.0317 70.5495V91.8339C80.0317 93.7194 81.5681 95.2505 83.46 95.2505H104.817C106.709 95.2505 108.245 93.7194 108.245 91.8339V70.5495C108.233 68.664 106.696 67.1328 104.804 67.1328Z" fill="#FECE3E"/>
<path d="M134.059 103.059H82.8252C81.3015 103.059 80.0698 104.286 80.0698 105.805C80.0698 107.323 81.3015 108.551 82.8252 108.551H134.059C135.583 108.551 136.814 107.323 136.814 105.805C136.814 104.286 135.583 103.059 134.059 103.059Z" fill="#D9DBDB"/>
<path d="M134.059 116.75H82.8252C81.3015 116.75 80.0698 117.977 80.0698 119.496C80.0698 121.014 81.3015 122.242 82.8252 122.242H134.059C135.583 122.242 136.814 121.014 136.814 119.496C136.814 117.977 135.583 116.75 134.059 116.75Z" fill="#D9DBDB"/>
<path d="M110.798 130.039H82.8252C81.3015 130.039 80.0698 131.267 80.0698 132.785C80.0698 134.304 81.3015 135.531 82.8252 135.531H110.798C112.321 135.531 113.553 134.304 113.553 132.785C113.553 131.279 112.321 130.039 110.798 130.039Z" fill="#D9DBDB"/>
<path d="M170.678 125.32V180.164C170.678 183.998 167.529 187.136 163.682 187.136H62.9157C59.0684 187.136 55.9448 183.998 55.9448 180.164V125.32L113.312 159.031L170.678 125.32Z" fill="#FFB031"/>
<path d="M168.736 184.96L131.812 148.161L113.312 159.031L94.799 148.148L57.875 184.947C59.1447 186.288 60.9351 187.136 62.9159 187.136H163.682C165.676 187.136 167.466 186.288 168.736 184.96Z" fill="#FF9433"/>
<path d="M182.271 50.026C165.752 51.6458 152.559 65.2111 151.379 81.6996C150.795 89.9122 153.131 97.53 157.423 103.705C159.048 106.034 159.302 109.033 158.223 111.64L155.505 118.169L166.641 115.297C168.457 114.828 170.374 114.98 172.088 115.714C177.243 117.941 183.059 118.966 189.166 118.372C205.381 116.802 218.484 103.756 220.059 87.6091C222.141 65.9451 204.022 47.9001 182.271 50.026Z" fill="#FECE3E"/>
<path d="M186.601 101.563L188.493 99.6775C188.493 99.6775 186.995 96.147 193.293 90.1868C197.051 86.6436 197.889 83.2017 197.584 80.3924C197.102 75.9255 193.432 72.2684 188.95 71.7876C186.131 71.4839 182.69 72.319 179.122 76.0647C173.142 82.3538 169.599 80.848 169.599 80.848L167.708 82.7335L186.601 101.563Z" fill="white"/>
<path d="M171.986 90.0234C170.488 92.0608 170.653 94.9333 172.507 96.7808C174.361 98.6283 177.243 98.7928 179.287 97.2996L171.986 90.0234Z" fill="white"/>
<path d="M198.918 74.0798L197.737 75.2567C196.823 73.8014 195.566 72.5613 194.105 71.6502L195.299 70.4607C196.302 69.461 197.927 69.461 198.931 70.4607C199.921 71.4604 199.921 73.0801 198.918 74.0798Z" fill="white"/>
<path d="M184.823 49.8874C197.102 53.5445 206.053 64.8827 206.053 78.3088C206.053 94.6961 192.721 107.983 176.278 107.983C167.618 107.983 159.835 104.275 154.4 98.3911C155.264 100.264 156.267 102.048 157.422 103.719C159.048 106.047 159.302 109.046 158.222 111.653L155.505 118.182L166.641 115.31C168.456 114.842 170.374 114.993 172.088 115.727C177.243 117.955 183.058 118.98 189.166 118.385C205.38 116.816 218.484 103.782 220.059 87.6223C222.065 66.8061 205.418 49.3433 184.823 49.8874Z" fill="#FECE3E"/>
<path d="M5.38409 21.3991L12.9136 38.6089C13.2946 39.482 12.8882 40.507 12.0121 40.8866L11.7455 41.0005C10.8567 41.3801 9.82817 40.9752 9.45994 40.0894L2.19704 22.7531C1.81612 21.842 2.27323 20.8043 3.20014 20.4627C4.06356 20.1463 5.02856 20.5513 5.38409 21.3991Z" fill="#FFB031"/>
<path d="M34.8671 142.492C31.807 142.492 29.3311 144.96 29.3311 148.009C29.3311 151.059 31.807 153.527 34.8671 153.527C37.9272 153.527 40.4032 151.059 40.4032 148.009C40.4032 144.96 37.9145 142.492 34.8671 142.492ZM34.8671 150.237C33.6355 150.237 32.6324 149.237 32.6324 148.009C32.6324 146.782 33.6355 145.782 34.8671 145.782C36.0988 145.782 37.1019 146.782 37.1019 148.009C37.1019 149.237 36.0988 150.237 34.8671 150.237Z" fill="#F2F2F2"/>
<path d="M183.109 164.801C180.049 164.801 177.573 167.268 177.573 170.318C177.573 173.368 180.049 175.835 183.109 175.835C186.169 175.835 188.645 173.368 188.645 170.318C188.645 167.268 186.157 164.801 183.109 164.801ZM183.109 172.545C181.878 172.545 180.875 171.545 180.875 170.318C180.875 169.091 181.878 168.091 183.109 168.091C184.341 168.091 185.344 169.091 185.344 170.318C185.344 171.545 184.341 172.545 183.109 172.545Z" fill="#F2F2F2"/>
<path d="M228.363 79.168C226.026 79.168 224.122 81.0535 224.122 83.3945C224.122 85.7229 226.014 87.621 228.363 87.621C230.699 87.621 232.603 85.7355 232.603 83.3945C232.591 81.0661 230.699 79.168 228.363 79.168ZM228.363 85.1028C227.41 85.1028 226.648 84.3436 226.648 83.3945C226.648 82.4454 227.41 81.6862 228.363 81.6862C229.315 81.6862 230.077 82.4454 230.077 83.3945C230.077 84.3436 229.302 85.1028 228.363 85.1028Z" fill="#F2F2F2"/>
<path d="M153.778 11.6445C151.302 11.6445 149.296 13.6439 149.296 16.1115C149.296 18.5791 151.302 20.5784 153.778 20.5784C156.254 20.5784 158.26 18.5791 158.26 16.1115C158.26 13.6439 156.254 11.6445 153.778 11.6445ZM153.778 17.921C152.775 17.921 151.962 17.1112 151.962 16.1115C151.962 15.1118 152.775 14.3019 153.778 14.3019C154.781 14.3019 155.594 15.1118 155.594 16.1115C155.594 17.1112 154.781 17.921 153.778 17.921Z" fill="#F2F2F2"/>
<path d="M10.5262 115.637C7.9232 115.637 5.81543 117.737 5.81543 120.331C5.81543 122.926 7.9232 125.026 10.5262 125.026C13.1291 125.026 15.2369 122.926 15.2369 120.331C15.2369 117.737 13.1291 115.637 10.5262 115.637Z" fill="#F2F2F2"/>
<path d="M199.438 131.176C197.546 131.176 196.01 132.707 196.01 134.592C196.01 136.478 197.546 138.009 199.438 138.009C201.33 138.009 202.866 136.478 202.866 134.592C202.866 132.694 201.33 131.176 199.438 131.176Z" fill="#F2F2F2"/>
<path d="M86.0252 13.0508C83.2572 13.0508 81.0225 15.2779 81.0225 18.0366C81.0225 20.7952 83.2572 23.0223 86.0252 23.0223C88.7933 23.0223 91.028 20.7952 91.028 18.0366C91.028 15.2779 88.7933 13.0508 86.0252 13.0508Z" fill="#F2F2F2"/>
<path d="M112.829 193.738C110.81 193.738 109.185 195.371 109.185 197.37C109.185 199.382 110.823 201.002 112.829 201.002C114.848 201.002 116.473 199.369 116.473 197.37C116.473 195.371 114.835 193.738 112.829 193.738Z" fill="#F2F2F2"/>
<path d="M183.426 32.2969C181.065 32.2969 179.147 34.2077 179.147 36.5614C179.147 38.915 181.065 40.8258 183.426 40.8258C185.788 40.8258 187.705 38.915 187.705 36.5614C187.705 34.195 185.788 32.2969 183.426 32.2969Z" fill="#F2F2F2"/>
<path d="M31.7943 70.3241C33.1408 70.3241 34.2322 69.2363 34.2322 67.8945C34.2322 66.5526 33.1408 65.4648 31.7943 65.4648C30.4479 65.4648 29.3564 66.5526 29.3564 67.8945C29.3564 69.2363 30.4479 70.3241 31.7943 70.3241Z" fill="#F2F2F2"/>
<path d="M229.836 57.8984C227.537 57.8984 225.684 59.7586 225.684 62.0364C225.684 64.3268 227.55 66.1743 229.836 66.1743C232.134 66.1743 233.988 64.3141 233.988 62.0364C234 59.7586 232.134 57.8984 229.836 57.8984Z" fill="#F2F2F2"/>
<path d="M8.18988 85.1176C9.65551 85.1176 10.8436 83.9335 10.8436 82.4729C10.8436 81.0122 9.65551 79.8281 8.18988 79.8281C6.72426 79.8281 5.53613 81.0122 5.53613 82.4729C5.53613 83.9335 6.72426 85.1176 8.18988 85.1176Z" fill="#F2F2F2"/>
<path d="M119.699 4.19227L121.375 2.53456C121.946 1.96512 121.946 1.01605 121.375 0.446612C120.803 -0.122829 119.851 -0.122829 119.28 0.446612L117.616 2.10432L115.953 0.446612C115.381 -0.122829 114.429 -0.122829 113.858 0.446612C113.286 1.01605 113.286 1.96512 113.858 2.53456L115.521 4.19227L113.858 5.84997C113.286 6.41941 113.286 7.36848 113.858 7.93792C114.429 8.50736 115.381 8.50736 115.953 7.93792L117.616 6.28022L119.28 7.93792C119.851 8.50736 120.803 8.50736 121.375 7.93792C121.946 7.36848 121.946 6.41941 121.375 5.84997L119.699 4.19227Z" fill="#F2F2F2"/>
<path d="M6.29814 54.3651L7.9615 52.7074C8.53288 52.1379 8.53288 51.1889 7.9615 50.6194C7.39012 50.05 6.43781 50.05 5.86643 50.6194L4.20307 52.2645L2.53972 50.6068C1.96834 50.0373 1.01603 50.0373 0.44465 50.6068C-0.126732 51.1762 -0.126732 52.1253 0.44465 52.6947L2.10801 54.3524L0.44465 56.0101C-0.126732 56.5796 -0.126732 57.5286 0.44465 58.0981C1.01603 58.6675 1.96834 58.6675 2.53972 58.0981L4.20307 56.4404L5.86643 58.0981C6.43781 58.6675 7.39012 58.6675 7.9615 58.0981C8.53288 57.5286 8.53288 56.5796 7.9615 56.0101L6.29814 54.3651Z" fill="#F2F2F2"/>
<path d="M202.79 155.738L204.2 154.333C204.695 153.84 204.695 153.042 204.2 152.562C203.704 152.068 202.904 152.068 202.422 152.562L201.013 153.966L199.603 152.562C199.108 152.068 198.308 152.068 197.826 152.562C197.33 153.055 197.33 153.852 197.826 154.333L199.235 155.738L197.826 157.142C197.33 157.636 197.33 158.433 197.826 158.914C198.321 159.407 199.121 159.407 199.603 158.914L201.013 157.509L202.422 158.914C202.917 159.407 203.717 159.407 204.2 158.914C204.695 158.42 204.695 157.623 204.2 157.142L202.79 155.738Z" fill="#F2F2F2"/>
</g>
<defs>
<clipPath id="clip0_4739_5236">
<rect width="234" height="201" fill="white"/>
</clipPath>
</defs>
</svg>
