<svg width="28" height="28" viewBox="0 0 28 28" fill="none" xmlns="http://www.w3.org/2000/svg">
<circle cx="14" cy="14" r="14" fill="#FED533"/>
<g clip-path="url(#clip0_4739_3472)">
<path d="M13.0763 15.5827C12.63 16.4256 12.375 17.3818 12.375 18.3947C12.375 18.9118 12.4388 19.4147 12.5663 19.8893L6 16.3335V9.44141L13.0763 12.891V15.5827Z" fill="#FFCC80"/>
<path d="M20.1666 9.44141V12.636C19.6071 12.466 19.0121 12.3739 18.3958 12.3739C16.1008 12.3739 14.1033 13.6631 13.0904 15.5543V12.891L20.1666 9.44141Z" fill="#FFB74D"/>
<path d="M20.1667 9.4425L13.0904 12.8921L10.335 11.5533L9.1875 10.9938L6 9.4425L13.0763 6L16.0938 7.46625L17.2979 8.04708L20.1667 9.4425Z" fill="#FFA726"/>
<path d="M17.1436 7.97927L10.1431 11.4671V14.9904L9.03314 14.4251V10.9259L15.9394 7.39844L17.1436 7.97927Z" fill="#795548"/>
<path d="M6 9.44141V16.3335L12.5663 19.8893C12.4388 19.4147 12.375 18.9118 12.375 18.3947C12.375 17.3818 12.63 16.4256 13.0763 15.5827V12.891L10.1494 11.4644L10.143 11.4672V14.9905L9.03308 14.4252V10.9261L9.03946 10.9225L6 9.44141Z" fill="#DEB26F"/>
<path d="M13.0833 10.0035L10.1523 11.4641L10.335 11.5533L13.0833 12.8885V10.0035ZM13.0763 6L6 9.4425L9.04158 10.9229L13.0833 8.85813V6.00354L13.0763 6Z" fill="#DE9121"/>
<path d="M13.0834 8.85938L9.04164 10.9242L9.03952 10.9249L9.03314 10.9284V14.4276L10.1431 14.9928V11.4696L10.1495 11.4667L10.1523 11.4653L13.0834 10.0047V8.85938Z" fill="#694A3F"/>
<path d="M18.3958 23.0013C15.8571 23.0013 13.7916 20.9358 13.7916 18.3971C13.7916 15.8585 15.8571 13.793 18.3958 13.793C20.9345 13.793 23 15.8585 23 18.3971C23 20.9358 20.9345 23.0013 18.3958 23.0013Z" fill="#543E5B"/>
<path d="M17.6875 20.3442C17.5465 20.3442 17.4112 20.2882 17.312 20.1883L16.0725 18.9488C15.8649 18.7412 15.8649 18.4048 16.0725 18.1972C16.28 17.9897 16.6165 17.9897 16.824 18.1972L17.6605 19.0331L19.5886 16.8082C19.7806 16.5872 20.1156 16.5624 20.338 16.7543C20.5598 16.9463 20.5838 17.2821 20.3919 17.5038L18.0898 20.16C17.9928 20.2712 17.8546 20.3378 17.7073 20.3428L17.6875 20.3442Z" fill="white"/>
<path d="M16.4479 18.043C16.3119 18.043 16.1759 18.0947 16.0725 18.1988C15.8649 18.4063 15.8649 18.7428 16.0725 18.9503L17.312 20.1899C17.4119 20.2898 17.5472 20.3458 17.6875 20.3458H17.7066C17.8539 20.3408 17.992 20.2742 18.0891 20.163L18.3958 19.8088V18.1861L17.6598 19.0346L16.8233 18.1988C16.7199 18.0947 16.5839 18.043 16.4479 18.043Z" fill="#DEDEDE"/>
</g>
<defs>
<clipPath id="clip0_4739_3472">
<rect width="17" height="17" fill="white" transform="translate(6 6)"/>
</clipPath>
</defs>
</svg>
