<svg width="20" height="20" viewBox="0 0 20 20" fill="none" xmlns="http://www.w3.org/2000/svg">
<path d="M3.33327 3.33398C2.96528 3.33398 2.66663 3.63197 2.66663 4.00063V16.0002C2.66663 16.3689 2.96528 16.6669 3.33327 16.6669H16.6662C17.0341 16.6669 17.3328 16.3689 17.3328 16.0002V4.00063C17.3328 3.63197 17.0341 3.33398 16.6662 3.33398H3.33327ZM15.9995 4.66727V11.0577L13.1376 8.19582C12.877 7.93516 12.4556 7.93516 12.195 8.19582L9.99972 10.3911L6.47117 6.86253C6.21051 6.60188 5.78919 6.60188 5.52853 6.86253L3.99992 8.39115V4.66727H15.9995ZM3.99992 15.3336V10.2764L5.99985 8.27649L11.5283 13.805L12.471 12.8623L10.9424 11.3337L12.6663 9.60978L15.9995 12.943V15.3336H3.99992Z" fill="#343434"/>
<path d="M9.99967 8.66853C10.736 8.66853 11.333 8.0716 11.333 7.33524C11.333 6.59889 10.736 6.00195 9.99967 6.00195C9.26332 6.00195 8.66638 6.59889 8.66638 7.33524C8.66638 8.0716 9.26332 8.66853 9.99967 8.66853Z" fill="#343434"/>
<path d="M18.666 4.66846H19.9993V0.668598C19.9993 0.299943 19.7006 0.00195312 19.3326 0.00195312H15.3328V1.33524H18.666V4.66846Z" fill="#343434"/>
<path d="M1.33329 15.334H0V19.3339C0 19.7025 0.298657 20.0005 0.666645 20.0005H4.66651V18.6672H1.33329V15.334Z" fill="#343434"/>
<path d="M18.6667 15.332V18.6653H15.3335V19.9985H19.3334C19.7014 19.9985 20 19.7006 20 19.3319V15.332H18.6667Z" fill="#343434"/>
<path d="M1.33402 1.33329H4.66724V0H0.667377C0.299389 0 0.000732422 0.29799 0.000732422 0.666645V4.66651H1.33402V1.33329Z" fill="#343434"/>
</svg>
