<svg width="28" height="28" viewBox="0 0 28 28" fill="none" xmlns="http://www.w3.org/2000/svg">
<path d="M25.8802 20.8003C26.8494 18.9466 27.3983 16.8382 27.3983 14.6015C27.3983 7.20174 21.3997 1.20312 14 1.20312C6.6003 1.20312 0.601685 7.2018 0.601685 14.6015C0.601685 16.8383 1.15058 18.9466 2.11986 20.8004L25.8802 20.8003Z" fill="#F6C132"/>
<path d="M12.9954 0.0626319C9.97863 0.473663 9.6919 2.18407 9.69053 2.81166C9.69026 2.94324 9.61736 3.06525 9.49902 3.12278C7.92982 3.88616 8.77583 7.56532 8.77583 7.56532C8.93344 7.57582 9.09838 7.63964 9.22137 7.69925C9.2515 7.51178 9.30067 7.32721 9.37012 7.14877C9.42306 7.01281 9.48918 6.87549 9.57192 6.74572C9.71542 6.52057 9.78077 6.25501 9.7613 5.98944C9.70492 5.22191 9.73204 3.70947 10.7452 3.25365C11.6036 2.86744 12.6564 3.09106 13.3279 3.31435C13.7639 3.45933 14.2362 3.45933 14.6723 3.31435C15.3437 3.09106 16.3966 2.86744 17.2549 3.25365C18.2652 3.70821 18.2951 5.21332 18.2393 5.98288C18.2199 6.25041 18.2835 6.51876 18.4281 6.74566C18.5135 6.87959 18.5812 7.02162 18.635 7.16184C18.7018 7.33618 18.7494 7.51632 18.7787 7.69919C18.9338 7.62405 19.1554 7.54224 19.345 7.56904C19.3682 6.76453 19.4425 5.8973 19.4425 5.8973C20.3365 1.51874 16.2436 -0.379954 12.9954 0.0626319Z" fill="#665364"/>
<path d="M12.9953 0.0624219C9.97853 0.473453 9.69181 2.18386 9.6905 2.8114C9.69022 2.94303 9.61732 3.06498 9.49898 3.12252C7.92972 3.8859 8.77579 7.56505 8.77579 7.56505C8.9334 7.57555 9.09834 7.63937 9.22133 7.69898C9.25146 7.51152 9.30063 7.32694 9.37008 7.1485C9.42302 7.01255 9.48919 6.87523 9.57188 6.74545C9.71538 6.5203 9.78073 6.25474 9.76126 5.98918C9.70488 5.22164 9.732 3.7092 10.7451 3.25338C11.5618 2.88588 12.5544 3.07056 13.2271 3.28171C13.2211 3.27061 13.2157 3.25923 13.2094 3.24824C12.0859 1.2842 13.9867 0.0450313 14.0554 0.00106251C13.6972 -0.00506249 13.3414 0.0152813 12.9953 0.0624219Z" fill="#543E5B"/>
<path d="M19.6841 7.67282C19.4491 7.45746 18.981 7.56662 18.7787 7.69847C18.8231 7.97453 18.8256 8.25699 18.7872 8.5359L18.5484 10.2752C18.5484 10.4154 18.544 10.5529 18.5359 10.6881C19.1182 10.8638 19.4074 10.341 19.4562 9.98222C19.4772 9.82778 19.5115 9.67559 19.559 9.52705C19.714 9.04323 20.2728 8.21231 19.6841 7.67282Z" fill="#FCAD6D"/>
<path d="M19.1784 9.13882C19.011 9.13882 18.8553 9.0907 18.7226 9.00866L18.5484 10.277C18.5484 10.4172 18.544 10.5547 18.5359 10.6899C19.1182 10.8656 19.4074 10.3428 19.4562 9.98402C19.4772 9.82958 19.5115 9.67738 19.559 9.5288C19.6196 9.33958 19.7419 9.09709 19.8332 8.83984C19.6739 9.02272 19.44 9.13882 19.1784 9.13882Z" fill="#FD995B"/>
<path d="M8.31605 7.67282C8.55099 7.45746 9.01906 7.56662 9.2214 7.69847C9.17705 7.97453 9.17454 8.25699 9.21287 8.5359L9.45169 10.2752C9.45169 10.4154 9.45612 10.5529 9.46422 10.6881C8.8819 10.8638 8.59266 10.341 8.54388 9.98222C8.52293 9.82778 8.48865 9.67559 8.44107 9.52705C8.28614 9.04323 7.72734 8.21231 8.31605 7.67282Z" fill="#FCAD6D"/>
<path d="M9.26897 8.94531C9.11989 9.06546 8.93062 9.1377 8.72428 9.1377C8.53506 9.1377 8.36045 9.07656 8.21771 8.9738C8.29952 9.1802 8.39118 9.37198 8.44106 9.52768C8.48863 9.67621 8.52292 9.82846 8.54387 9.9829C8.59259 10.3416 8.88184 10.8645 9.4642 10.6888C9.45606 10.5537 9.45163 10.4161 9.45163 10.2759L9.26897 8.94531Z" fill="#FD995B"/>
<path d="M11.0292 17.2274C11.349 18.0027 11.9165 18.7324 12.716 19.3962C12.814 19.4775 12.8728 19.5972 12.8774 19.7247L12.8802 19.8016H15.1199L15.1227 19.7248C15.1274 19.5972 15.1862 19.4775 15.2841 19.3962C16.0836 18.7324 16.6512 18.0027 16.971 17.2274C17.192 16.6917 17.2538 16.2325 17.2591 15.9012C17.0815 15.3774 17.02 14.7834 17.0039 14.3125C16.7004 14.6659 16.382 14.9615 16.0778 15.1978C15.485 15.6581 14.7535 15.9081 14.0001 15.9081C13.2467 15.9081 12.5152 15.6581 11.9224 15.1978C11.6181 14.9615 11.2997 14.6659 10.9963 14.3125C10.9801 14.7833 10.9186 15.3773 10.7411 15.9011C10.7463 16.2325 10.8082 16.6917 11.0292 17.2274Z" fill="#FCAD6D"/>
<path d="M14 15.9081C13.2466 15.9081 12.515 15.6581 11.9223 15.1978C11.618 14.9615 11.2995 14.6659 10.9962 14.3125C10.98 14.7833 10.9185 15.3773 10.741 15.9011C10.7463 16.2325 10.8082 16.6917 11.0291 17.2274C11.3489 18.0027 11.9164 18.7324 12.716 19.3962C12.7233 19.4023 12.73 19.409 12.7369 19.4156C13.9265 18.3016 14 15.9081 14 15.9081Z" fill="#FD995B"/>
<path d="M15.0802 26.4863C16.2308 24.452 16.9648 22.4382 17.4319 20.6641C17.2547 20.9367 17.0864 21.1824 16.9415 21.3881C16.865 21.4969 16.7447 21.5607 16.6116 21.5633C16.4779 21.5648 16.355 21.5066 16.2739 21.4004L15.8036 20.785L15.3218 21.6421C15.1974 21.891 14.9473 22.0455 14.669 22.0455H13.3396C13.0613 22.0455 12.8112 21.8909 12.6868 21.6421L12.2017 20.7781L11.7261 21.4004C11.645 21.5065 11.5207 21.5647 11.3884 21.5633C11.2553 21.5607 11.1351 21.4968 11.0585 21.3881C10.9136 21.1824 10.7454 20.9366 10.5682 20.6641C11.0353 22.4381 11.7694 24.4519 12.92 26.4863H15.0802V26.4863Z" fill="#BEC8F7"/>
<path d="M14.669 22.0455H13.3396C13.2755 22.0455 13.213 22.0369 13.1531 22.0212C12.8011 22.9614 12.5695 24.356 12.4185 25.5506C12.8305 26.3627 13.3064 27.1835 13.855 27.9989C13.9033 27.9994 13.9515 28.0007 14 28.0007C14.0485 28.0007 14.0967 27.9994 14.1451 27.9989C14.7194 27.1454 15.2142 26.2859 15.6392 25.4367C15.4871 24.2671 15.2571 22.9159 14.9127 22.0039C14.8359 22.0309 14.7538 22.0455 14.669 22.0455Z" fill="#543E5B"/>
<path d="M14.669 22.0455H13.3396C13.2755 22.0455 13.213 22.0369 13.1531 22.0212C12.8011 22.9614 12.5695 24.356 12.4185 25.5506C12.8305 26.3627 13.3064 27.1835 13.855 27.9989C13.9033 27.9994 13.9515 28.0007 14 28.0007C14.0485 28.0007 14.0967 27.9994 14.1451 27.9989C14.7194 27.1454 15.2142 26.2859 15.6392 25.4367C15.4871 24.2671 15.2571 22.9159 14.9127 22.0039C14.8359 22.0309 14.7538 22.0455 14.669 22.0455Z" fill="#543E5B"/>
<path d="M14.0049 24.6927C13.4446 24.6927 12.9503 24.4106 12.6558 23.9808C12.5605 24.5067 12.4822 25.046 12.4186 25.5498C12.8305 26.3619 13.3064 27.1827 13.8551 27.9981C13.9034 27.9986 13.9516 28 14 28C14.0486 28 14.0968 27.9986 14.1452 27.9981C14.7194 27.1446 15.2143 26.2852 15.6392 25.4359C15.5751 24.9427 15.4969 24.4175 15.4024 23.9062C15.1157 24.3778 14.5971 24.6927 14.0049 24.6927Z" fill="#422953"/>
<path d="M15.1712 19.7227C14.4673 19.7227 13.5945 19.7227 12.8906 19.7227L12.1611 20.8739L12.6155 21.7826C12.7526 22.0569 13.033 22.2302 13.3396 22.2302H14.669C14.9757 22.2302 15.2561 22.0569 15.3932 21.7826L15.8476 20.8739L15.1712 19.7227Z" fill="#665364"/>
<path d="M14.1944 21.772C13.9057 21.1947 13.9404 20.5084 14.286 19.9632L14.4384 19.7227C13.9146 19.7227 13.3644 19.7227 12.8906 19.7227L12.1611 20.8739L12.6155 21.7826C12.7526 22.0569 13.033 22.2302 13.3396 22.2302H14.669C14.7139 22.2302 14.7582 22.226 14.8016 22.2189C14.5418 22.1763 14.3145 22.0122 14.1944 21.772Z" fill="#543E5B"/>
<path d="M16.2105 21.4481C16.413 21.713 16.8146 21.7059 17.0067 21.4333C17.1695 21.202 17.37 20.9082 17.5824 20.5762C18.0594 18.683 18.2203 17.1795 18.2837 16.4172L17.3786 15.628C17.2976 15.5573 17.1718 15.6183 17.1768 15.7257C17.2059 16.3472 17.0497 17.8281 15.233 19.3363C15.0157 19.5168 14.9785 19.8364 15.1501 20.0608L16.2105 21.4481Z" fill="#E9EFFF"/>
<path d="M10.4179 20.5768C10.6301 20.9086 10.8304 21.2022 10.9932 21.4333C11.1853 21.706 11.5869 21.7131 11.7894 21.4481L12.8498 20.0608C13.0213 19.8364 12.9842 19.5168 12.7669 19.3364C10.9502 17.8281 10.794 16.3472 10.823 15.7257C10.828 15.6183 10.7023 15.5573 10.6212 15.628L9.71613 16.4172C9.77962 17.1795 9.94067 18.6834 10.4179 20.5768Z" fill="#E9EFFF"/>
<path d="M12.1612 18.7742C10.9141 17.4716 10.7977 16.2696 10.8231 15.7257C10.8282 15.6183 10.7024 15.5573 10.6213 15.628L9.71625 16.4172C9.77066 17.0716 9.89721 18.2725 10.2338 19.7969C10.4382 19.7589 10.6236 19.6405 10.7455 19.4628C11.432 18.4618 12.1612 18.7742 12.1612 18.7742Z" fill="#DAE2FE"/>
<path d="M8.7152 24.6101C8.64678 24.5315 8.63973 24.4161 8.69797 24.3295L9.64368 22.921C9.71188 22.8195 9.72872 22.6947 9.68978 22.5787C9.6509 22.4626 9.56225 22.3732 9.44659 22.3333L7.86574 21.7876C7.78037 21.7582 7.7195 21.6807 7.71064 21.5902C7.5544 19.9999 7.65847 18.6025 7.73438 17.911C7.74745 17.7918 7.78912 17.6781 7.85267 17.5781C7.45159 17.7592 7.05669 17.9606 6.66414 18.1819C6.20734 18.4395 6.00111 18.5898 5.61349 18.6215C3.84899 18.7658 2.76 19.6427 2.09106 20.7451C4.05675 24.5474 7.78967 27.2873 12.2032 27.879C10.4758 26.571 9.14427 25.1034 8.7152 24.6101Z" fill="#422953"/>
<path d="M5.3827 24.8595C5.58002 21.4095 7.55008 20.6625 7.55008 20.6625C7.58076 20.6318 7.61149 20.6023 7.64223 20.5736C7.59881 19.419 7.67515 18.4502 7.73438 17.911C7.74745 17.7918 7.78912 17.6781 7.85266 17.5781C7.45159 17.7592 7.05669 17.9606 6.66414 18.1819C6.20734 18.4395 6.00111 18.5898 5.61349 18.6215C3.84905 18.7658 2.76 19.6427 2.09106 20.7451C2.90859 22.3265 4.03203 23.7238 5.3827 24.8595Z" fill="#30144A"/>
<path d="M9.89699 16.2908C9.8825 16.108 9.67096 16.0146 9.52582 16.1265L7.98517 17.3144C7.79972 17.4574 7.68056 17.6693 7.65502 17.902C7.58387 18.5499 7.47209 19.9782 7.63118 21.5977C7.6431 21.7192 7.72425 21.8229 7.83964 21.8627L9.42055 22.4084C9.61365 22.4751 9.69131 22.7066 9.5774 22.8762L8.63163 24.2846C8.55321 24.4015 8.56256 24.556 8.65493 24.6621C9.08389 25.1552 10.3671 26.5693 12.0409 27.8559C12.6648 27.9474 13.3026 27.996 13.9514 27.9984C10.5639 22.9896 10.0162 17.7936 9.89699 16.2908Z" fill="#543E5B"/>
<path d="M9.89692 16.2908C9.88243 16.108 9.6709 16.0146 9.52576 16.1265L7.9851 17.3144C7.79966 17.4574 7.68049 17.6693 7.65495 17.902C7.59813 18.4194 7.51556 19.4346 7.56554 20.6472C8.47396 19.7489 9.41114 19.7106 9.9678 19.7996C10.1269 19.825 10.2856 19.7997 10.4258 19.7337C10.0668 18.1437 9.94581 16.9068 9.89692 16.2908Z" fill="#422953"/>
<path d="M15.8076 27.8775C20.2165 27.2828 23.945 24.5443 25.909 20.7452C25.2401 19.6428 24.151 18.7658 22.3866 18.6216C21.999 18.5899 21.7927 18.4395 21.3359 18.1819C20.9434 17.9606 20.5485 17.7593 20.1474 17.5781C20.2109 17.6781 20.2526 17.7918 20.2657 17.911C20.3416 18.6025 20.4457 19.9999 20.2895 21.5902C20.2806 21.6806 20.2198 21.7581 20.1344 21.7876L18.5535 22.3333C18.4378 22.3732 18.3492 22.4626 18.3103 22.5787C18.2714 22.6946 18.2882 22.8194 18.3564 22.921L19.3022 24.3295C19.3604 24.4161 19.3532 24.5315 19.2849 24.6101C18.0781 25.9973 16.8685 27.0713 15.8076 27.8775Z" fill="#543E5B"/>
<path d="M20.0149 17.3144L18.4742 16.1265C18.3291 16.0146 18.1176 16.108 18.1031 16.2908C17.9839 17.7936 17.4367 22.9895 14.0493 27.9984C14.6979 27.996 15.3356 27.9474 15.9594 27.8559C17.633 26.5693 18.9162 25.1553 19.3451 24.6621C19.4374 24.556 19.4469 24.4015 19.3684 24.2847L18.4227 22.8762C18.3088 22.7066 18.3864 22.4751 18.5795 22.4085L20.1604 21.8628C20.2758 21.8229 20.357 21.7192 20.3689 21.5977C20.528 19.9783 20.4162 18.5499 20.345 17.9021C20.3195 17.6693 20.2003 17.4574 20.0149 17.3144Z" fill="#665364"/>
<path d="M18.6598 7.15164C18.4899 6.7084 18.2266 6.52492 18.2658 5.98412C18.4065 4.04151 17.6996 3.42392 17.2657 3.22869C16.415 2.84593 15.3813 3.04986 14.6639 3.28835C14.2358 3.43076 13.7642 3.43076 13.3361 3.28835C12.6187 3.04986 11.5852 2.84588 10.7343 3.22869C10.2996 3.42425 9.59171 4.04326 9.73477 5.99074C9.77377 6.5206 9.51438 6.70403 9.3454 7.13835C9.17554 7.57487 9.12052 8.05924 9.18642 8.53912L9.42502 10.2752C9.42502 13.1429 11.16 14.7998 11.906 15.379C13.1298 16.3294 14.8613 16.3363 16.0939 15.379C16.8399 14.7997 18.575 13.1428 18.5747 10.2788L18.8135 8.53956C18.8789 8.06449 18.8256 7.58449 18.6598 7.15164Z" fill="#F9BA8F"/>
<path d="M14.4216 15.379C13.6756 14.7998 11.9406 13.1429 11.9406 10.2752L11.702 8.5391C11.6361 8.05921 11.6911 7.57485 11.861 7.13833C12.03 6.704 12.2894 6.52058 12.2504 5.99071C12.1116 4.10246 12.7729 3.46317 13.2095 3.24775C12.5006 3.0284 11.5364 2.86784 10.7343 3.22867C10.2996 3.42423 9.59169 4.04324 9.73475 5.99071C9.77374 6.52058 9.51436 6.704 9.34538 7.13833C9.17552 7.57485 9.12056 8.05921 9.1864 8.5391L9.42506 10.2752C9.42506 13.1429 11.1601 14.7998 11.9061 15.379C12.8721 16.1292 14.1544 16.291 15.2581 15.8551C14.9629 15.7388 14.6808 15.5803 14.4216 15.379Z" fill="#FCAD6D"/>
<path d="M23.1308 24.4058C22.961 24.2062 22.782 24.0278 22.6064 23.8715C22.1567 23.4715 21.4446 23.7973 21.4446 24.3991V25.7421C22.0425 25.3418 22.6063 24.8945 23.1308 24.4058Z" fill="#422953"/>
<path d="M27.3983 14.6C27.3983 10.2778 25.3511 6.43432 22.1741 3.98438C22.5729 5.33953 22.7557 7.23484 21.851 9.34309C20.462 12.5803 19.6855 14.643 22.2877 15.596C24.1331 16.2718 25.9623 16.6015 27.0458 17.6641C27.2763 16.6801 27.3983 15.6544 27.3983 14.6Z" fill="#FED533"/>
<path d="M0.601685 14.6C0.601685 10.2778 2.64891 6.43432 5.82592 3.98438C5.42714 5.33953 5.24432 7.23484 6.14896 9.34309C7.53802 12.5803 8.31453 14.643 5.71228 15.596C3.86685 16.2718 2.03767 16.6015 0.954145 17.6641C0.723747 16.6801 0.601685 15.6544 0.601685 14.6Z" fill="#FED533"/>
</svg>
