<svg width="20" height="20" viewBox="0 0 20 20" fill="none" xmlns="http://www.w3.org/2000/svg">
<circle cx="10" cy="10" r="10" fill="#C94C43"/>
<path d="M13.6448 6.34573L13.6566 6.35762C13.8103 6.5113 13.8103 6.76046 13.6566 6.91414L10.5681 10.0027L13.6566 13.0912C13.8103 13.2448 13.8103 13.494 13.6566 13.6477L13.6448 13.6596C13.4911 13.8133 13.2419 13.8133 13.0882 13.6596L9.99972 10.5711L6.91121 13.6596C6.75754 13.8133 6.50837 13.8133 6.35469 13.6596L6.3428 13.6477C6.18912 13.494 6.18912 13.2448 6.3428 13.0912L9.43131 10.0027L6.3428 6.91414C6.18912 6.76046 6.18912 6.5113 6.3428 6.35762L6.35469 6.34573C6.50837 6.19205 6.75754 6.19205 6.91121 6.34573L9.99972 9.43424L13.0882 6.34573C13.2419 6.19205 13.4911 6.19205 13.6448 6.34573Z" fill="white"/>
</svg>
