<svg width="18" height="18" viewBox="0 0 18 18" fill="none" xmlns="http://www.w3.org/2000/svg">
<path d="M14.5794 6.375C15.1202 6.375 15.6488 6.21463 16.0985 5.91418C16.5482 5.61372 16.8986 5.18667 17.1056 4.68703C17.3126 4.18738 17.3667 3.63759 17.2612 3.10718C17.1557 2.57676 16.8953 2.08954 16.5129 1.70713C16.1304 1.32472 15.6432 1.0643 15.1128 0.958791C14.5824 0.853285 14.0326 0.907435 13.533 1.11439C13.0333 1.32135 12.6063 1.67182 12.3058 2.12149C12.0054 2.57115 11.845 3.09982 11.845 3.64063C11.8401 3.73431 11.8401 3.82819 11.845 3.92188L6.71217 6.49219C6.20035 6.0383 5.56698 5.74397 4.89002 5.64544C4.21307 5.54691 3.52207 5.64846 2.9021 5.93761C2.28212 6.22676 1.76022 6.69088 1.40064 7.27284C1.04105 7.8548 0.859485 8.5292 0.878277 9.21303C0.89707 9.89686 1.1154 10.5603 1.5064 11.1216C1.89741 11.6829 2.44401 12.1177 3.07893 12.3724C3.71385 12.627 4.40938 12.6905 5.0799 12.5549C5.75042 12.4194 6.36667 12.0907 6.8528 11.6094L11.0637 14.5938C11.0625 15.2492 11.2962 15.8835 11.7223 16.3815C12.1484 16.8796 12.7389 17.2085 13.3867 17.3087C14.0344 17.4089 14.6967 17.2738 15.2534 16.9278C15.8101 16.5818 16.2245 16.0478 16.4214 15.4226C16.6184 14.7975 16.5848 14.1224 16.3269 13.5198C16.069 12.9172 15.6038 12.4269 15.0155 12.1378C14.4272 11.8486 13.7549 11.7798 13.1202 11.9437C12.4856 12.1076 11.9306 12.4934 11.5559 13.0312L7.71999 10.2812C8.02758 9.46773 8.0108 8.56712 7.67311 7.76562L12.4778 5.35938C12.7307 5.67408 13.0505 5.92852 13.414 6.10419C13.7776 6.27987 14.1756 6.37238 14.5794 6.375ZM14.5794 2.46875C14.8111 2.46875 15.0377 2.53748 15.2304 2.66625C15.4231 2.79501 15.5733 2.97804 15.662 3.19217C15.7507 3.4063 15.7739 3.64193 15.7287 3.86925C15.6835 4.09657 15.5719 4.30538 15.408 4.46927C15.2441 4.63316 15.0353 4.74477 14.808 4.78998C14.5807 4.8352 14.345 4.81199 14.1309 4.7233C13.9168 4.6346 13.7338 4.4844 13.605 4.29168C13.4762 4.09897 13.4075 3.8724 13.4075 3.64063C13.4075 3.32983 13.531 3.03175 13.7507 2.81199C13.9705 2.59222 14.2686 2.46875 14.5794 2.46875ZM4.42311 11.0625C4.09019 11.0625 3.76279 10.9774 3.47201 10.8153C3.18123 10.6532 2.93671 10.4194 2.76168 10.1362C2.58666 9.85299 2.48692 9.52975 2.47196 9.19716C2.457 8.86458 2.5273 8.53369 2.67618 8.23591C2.82507 7.93814 3.0476 7.68336 3.32265 7.49578C3.5977 7.3082 3.91613 7.19404 4.24771 7.16414C4.57929 7.13424 4.913 7.1896 5.21717 7.32495C5.52134 7.46031 5.78586 7.67116 5.98561 7.9375C6.20633 8.22688 6.34144 8.57237 6.37559 8.93471C6.40974 9.29705 6.34157 9.6617 6.1788 9.98722C6.01604 10.3127 5.76523 10.5861 5.45487 10.7762C5.14451 10.9662 4.78704 11.0654 4.42311 11.0625ZM13.7981 13.4063C14.0299 13.4063 14.2565 13.475 14.4492 13.6037C14.6419 13.7325 14.7921 13.9155 14.8808 14.1297C14.9695 14.3438 14.9927 14.5794 14.9475 14.8067C14.9023 15.0341 14.7906 15.2429 14.6268 15.4068C14.4629 15.5707 14.2541 15.6823 14.0267 15.7275C13.7994 15.7727 13.5638 15.7495 13.3497 15.6608C13.1355 15.5721 12.9525 15.4219 12.8237 15.2292C12.695 15.0365 12.6262 14.8099 12.6262 14.5781C12.6262 14.2673 12.7497 13.9693 12.9695 13.7495C13.1892 13.5297 13.4873 13.4063 13.7981 13.4063Z" fill="#1B8AF0"/>
</svg>
