<svg width="12" height="12" viewBox="0 0 11 11" fill="none" xmlns="http://www.w3.org/2000/svg">
<path d="M10.4956 4.37317L10.4957 4.37372C10.5064 4.40647 10.4967 4.44169 10.4706 4.46453L10.4702 4.46488L8.07038 6.56915L7.84651 6.76544L7.91242 7.05579L8.62002 10.1728C8.62004 10.1728 8.62006 10.1729 8.62008 10.173C8.62767 10.207 8.61465 10.241 8.58691 10.2611L8.58687 10.2611C8.559 10.2813 8.52343 10.2823 8.49546 10.2655L8.49429 10.2648L5.75664 8.62802L5.5001 8.47464L5.24355 8.62798L2.50489 10.2648L2.50466 10.2649C2.4895 10.274 2.47505 10.2774 2.4617 10.2774C2.44574 10.2774 2.42874 10.2726 2.4122 10.2607C2.38525 10.2412 2.37177 10.2076 2.3796 10.1727C2.37962 10.1726 2.37963 10.1726 2.37964 10.1725L3.08718 7.05579L3.15309 6.76547L2.92927 6.56918L0.529422 4.4645L0.528473 4.46367C0.50369 4.44204 0.493494 4.40714 0.504278 4.37398C0.515 4.34101 0.543283 4.31848 0.577429 4.31525C0.577489 4.31525 0.577549 4.31524 0.577609 4.31524L3.7522 4.02703L4.04948 4.00004L4.16677 3.72555L5.42196 0.788164C5.42199 0.788079 5.42203 0.787995 5.42206 0.78791C5.43624 0.755132 5.46681 0.73584 5.50006 0.73584C5.53348 0.73584 5.56413 0.75533 5.5782 0.787762C5.57824 0.787857 5.57828 0.787953 5.57832 0.788049L6.83333 3.72552L6.95061 4.00003L7.24791 4.02703L10.4228 4.31531L10.4231 4.31534C10.457 4.31839 10.4851 4.34091 10.4956 4.37317Z" stroke="#FECE3E"/>
</svg>
