<svg width="12" height="12" viewBox="0 0 11 11" fill="none" xmlns="http://www.w3.org/2000/svg">
<path d="M10.9713 3.98352C10.8993 3.76078 10.7018 3.60259 10.468 3.58152L7.29312 3.29324L6.03768 0.354753C5.94511 0.1394 5.73429 0 5.50006 0C5.26582 0 5.055 0.1394 4.96243 0.355257L3.70699 3.29324L0.531583 3.58152C0.29827 3.60309 0.101213 3.76078 0.0287851 3.98352C-0.0436427 4.20626 0.023246 4.45057 0.199741 4.60457L2.59959 6.70926L1.89193 9.8265C1.84015 10.0557 1.92911 10.2926 2.11929 10.4301C2.22151 10.5039 2.3411 10.5415 2.4617 10.5415C2.56569 10.5415 2.66883 10.5135 2.7614 10.4581L5.50006 8.82132L8.23771 10.4581C8.43804 10.5786 8.69057 10.5676 8.88032 10.4301C9.07058 10.2922 9.15946 10.0552 9.10768 9.8265L8.40002 6.70926L10.7999 4.60499C10.9764 4.45057 11.0438 4.20668 10.9713 3.98352Z" fill="#FFC107"/>
</svg>
