<svg width="28" height="28" viewBox="0 0 28 28" fill="none" xmlns="http://www.w3.org/2000/svg">
<g clip-path="url(#clip0_4739_4409)">
<path d="M-16 43.3459C-16 5.74677 1.38909 -27.6879 28.3746 -49C24.9873 -37.2115 23.4345 -20.7242 31.1185 -2.38438C42.9171 25.7763 49.5128 43.7198 27.4093 52.0099C11.7343 57.8889 -3.80278 60.7566 -13.0062 70C-14.9632 61.4402 -16 52.5175 -16 43.3459Z" fill="#FED533"/>
<path d="M17.724 16.9667V14.0703H10.2761V16.9667L14 20.2768L17.724 16.9667Z" fill="#E6AF78"/>
<path d="M23.482 18.3223L18.3619 17.1176C18.2846 17.0994 18.2135 17.0685 18.1469 17.0311L14 19.4501L10.0147 16.9141C9.91156 17.0112 9.7835 17.0834 9.63805 17.1176L4.51797 18.3224C3.77032 18.4983 3.24194 19.1654 3.24194 19.9335V23.1741C3.24194 23.6312 3.61244 28.5017 4.06947 28.5017H23.9304C24.3875 28.5017 24.7579 23.6311 24.7579 23.1741V19.9335C24.758 19.1654 24.2296 18.4982 23.482 18.3223Z" fill="#EFF2FA"/>
<path d="M10.2761 14.0704V17.1263C14.9673 18.8164 17.724 14.5864 17.724 14.5864V14.0703H10.2761V14.0704Z" fill="#D29B6E"/>
<path d="M8.62097 4.55469L8.98153 12.4872C9.01519 13.2282 9.37856 13.9155 9.972 14.3605L11.6828 15.6437C12.1126 15.966 12.6352 16.1402 13.1724 16.1402H14.8275C15.3647 16.1402 15.8874 15.966 16.3171 15.6437L18.0279 14.3605C18.6214 13.9154 18.9847 13.2283 19.0184 12.4872L19.379 4.55469C19.3789 4.55469 8.62097 4.55469 8.62097 4.55469Z" fill="#F0C087"/>
<path d="M12.7587 6.20979C14.4138 6.20979 16.8964 5.79602 17.4852 4.55469H8.62097L8.98153 12.4872C9.01519 13.2282 9.37856 13.9154 9.97204 14.3606L11.6829 15.6437C12.1126 15.966 12.6353 16.1402 13.1725 16.1402H14C13.1725 16.1402 11.5174 14.4851 11.5174 12.4163C11.5174 11.4045 11.5174 8.69241 11.5174 7.45108C11.5174 7.03731 11.9311 6.20979 12.7587 6.20979Z" fill="#E6AF78"/>
<path d="M6.27964 21.3148L3.59845 18.9062C3.37378 19.1907 3.24207 19.5487 3.24207 19.932V23.1726C3.24207 23.6297 3.61256 27.5002 4.06959 27.5002H6.96598V22.8539C6.96593 22.2667 6.71642 21.7071 6.27964 21.3148Z" fill="#E4EAF6"/>
<path d="M21.7204 21.3148L24.4016 18.9062C24.6263 19.1907 24.758 19.5487 24.758 19.932V23.1726C24.758 23.6297 24.3875 28.0002 23.9304 28.0002H21.0341V22.8539C21.0341 22.2667 21.2836 21.7071 21.7204 21.3148Z" fill="#E4EAF6"/>
<path d="M15.0344 28.5012H12.9656L13.2242 20.2773H14.7758L15.0344 28.5012Z" fill="#5B5D6E"/>
<path d="M15.0344 19.4492H12.9656V20.228C12.9656 20.4835 13.1727 20.6906 13.4282 20.6906H14.5718C14.8273 20.6906 15.0344 20.4835 15.0344 20.228V19.4492H15.0344Z" fill="#515262"/>
<path d="M10.2181 16.0437L14.0001 19.4476C14.0001 19.4476 12.9409 19.9823 11.6339 21.0599C11.3643 21.2822 10.9564 21.1922 10.8118 20.874L9.03491 16.965L9.59703 16.1218C9.73691 15.9118 10.0305 15.875 10.2181 16.0437Z" fill="#E4EAF6"/>
<path d="M17.7821 16.0437L14.0001 19.4476C14.0001 19.4476 15.0592 19.9823 16.3663 21.0599C16.6359 21.2822 17.0438 21.1922 17.1884 20.874L18.9653 16.965L18.4031 16.1218C18.2632 15.9118 17.9696 15.875 17.7821 16.0437Z" fill="#E4EAF6"/>
<path d="M16.5085 1.81174L16.8964 4.55298C18.6671 4.90711 18.9223 7.68594 18.9591 8.47962C18.9657 8.62367 19.0117 8.76275 19.0898 8.88392L19.7654 9.93194C19.7654 9.93194 19.5342 8.19927 20.593 7.03555C20.593 7.03555 20.9566 0.156642 16.5085 1.81174Z" fill="#785550"/>
<path d="M20.1804 9.75631L19.7133 11.6248C19.6579 11.8463 19.459 12.0016 19.2306 12.0016C18.9797 12.0016 18.7681 11.8148 18.737 11.5658L18.4981 9.65473C18.4341 9.14318 18.833 8.69141 19.3485 8.69141H19.3489C19.9065 8.69145 20.3156 9.21537 20.1804 9.75631Z" fill="#F0C087"/>
<path d="M9.01749 1.07015L9.62949 1.48823C6.86243 3.53122 7.3796 7.03534 7.3796 7.03534C8.20712 7.86286 8.20712 9.93173 8.20712 9.93173L9.03465 9.1042C9.03465 9.1042 8.71529 6.71368 10.2759 5.79405C11.7241 4.94065 12.9913 5.38029 14.2843 5.38029C17.7496 5.38029 18.7194 4.07431 18.5513 2.4839C18.4643 1.66096 17.2061 -0.0532452 13.9999 0.0012701C12.706 0.0232544 10.276 0.415033 9.01749 1.07015Z" fill="#694B4B"/>
<path d="M8.77609 5.01823C8.77609 5.01823 8.33645 3.28555 9.62949 1.48828C6.86243 3.53127 7.3796 7.03539 7.3796 7.03539C8.20712 7.86292 8.20712 9.93178 8.20712 9.93178L9.03465 9.10425C9.03465 9.10425 8.71529 6.71374 10.2759 5.7941C11.7241 4.9407 12.9913 5.38034 14.2843 5.38034C14.8479 5.38034 15.339 5.3426 15.7765 5.27792C13.1078 5.36735 11.5346 3.34588 8.77609 5.01823Z" fill="#5A4146"/>
<path d="M7.81959 9.75631L8.2867 11.6248C8.34206 11.8463 8.54099 12.0016 8.76932 12.0016C9.02024 12.0016 9.23183 11.8148 9.26296 11.5658L9.50188 9.65473C9.56582 9.14318 9.16701 8.69141 8.65148 8.69141H8.6511C8.09348 8.69145 7.68436 9.21537 7.81959 9.75631Z" fill="#E6AF78"/>
<path d="M19.379 23.1719H16.4826C16.2541 23.1719 16.0688 23.3571 16.0688 23.5856V28.4995H19.7928V23.5856C19.7928 23.3572 19.6075 23.1719 19.379 23.1719Z" fill="#E4EAF6"/>
</g>
<defs>
<clipPath id="clip0_4739_4409">
<rect width="28" height="28" rx="14" fill="white"/>
</clipPath>
</defs>
</svg>
