<svg width="12" height="12" viewBox="0 0 12 12" fill="none" xmlns="http://www.w3.org/2000/svg">
<path d="M5.99984 0.666016C3.05892 0.666016 0.666504 3.05843 0.666504 5.99935C0.666504 8.94027 3.05892 11.3327 5.99984 11.3327C8.94075 11.3327 11.3332 8.94027 11.3332 5.99935C11.3332 3.05843 8.94075 0.666016 5.99984 0.666016ZM5.99984 9.11043C5.75448 9.11043 5.55542 8.91138 5.55542 8.66602C5.55542 8.42065 5.75448 8.2216 5.99984 8.2216C6.2452 8.2216 6.44425 8.42065 6.44425 8.66602C6.44425 8.91138 6.2452 9.11043 5.99984 9.11043ZM6.70337 6.28467C6.54606 6.3571 6.44425 6.51579 6.44425 6.68872V6.88826C6.44425 7.13354 6.2456 7.33268 5.99984 7.33268C5.75407 7.33268 5.55542 7.13354 5.55542 6.88826V6.68872C5.55542 6.17 5.86027 5.6945 6.33097 5.47713C6.78385 5.26872 7.11092 4.71533 7.11092 4.44377C7.11092 3.83138 6.61271 3.33268 5.99984 3.33268C5.38696 3.33268 4.88875 3.83138 4.88875 4.44377C4.88875 4.68913 4.69002 4.88826 4.44425 4.88826C4.19849 4.88826 3.99984 4.68913 3.99984 4.44377C3.99984 3.34115 4.89714 2.44377 5.99984 2.44377C7.10254 2.44377 7.99984 3.34115 7.99984 4.44377C7.99984 5.04427 7.47892 5.92692 6.70337 6.28467Z" fill="#999999"/>
</svg>
