<svg width="10" height="7" viewBox="0 0 10 7" fill="none" xmlns="http://www.w3.org/2000/svg">
<path d="M8.41001 0.000297131C8.22303 0.00574672 8.0455 0.0837514 7.91501 0.217797C7.89745 0.235371 7.53963 0.581907 7.07501 1.02405C6.6104 1.46619 6.01001 2.0328 5.41001 2.6028C4.81001 3.1728 4.2104 3.74618 3.74501 4.18904C3.53957 4.38454 3.50072 4.42477 3.36251 4.55654L1.21376 2.7003C1.14291 2.63357 1.05926 2.5819 0.967875 2.54841C0.87649 2.51491 0.779263 2.50029 0.682069 2.50543C0.584875 2.51057 0.489731 2.53535 0.402385 2.57829C0.31504 2.62123 0.237307 2.68143 0.173882 2.75526C0.110457 2.82908 0.0626575 2.91501 0.0333711 3.00783C0.00408462 3.10064 -0.0060807 3.19844 0.0034893 3.29529C0.0130593 3.39215 0.042166 3.48606 0.0890507 3.57136C0.135935 3.65665 0.199625 3.73155 0.276271 3.79154L2.91627 6.07155C3.05406 6.18989 3.23149 6.25179 3.413 6.24484C3.59451 6.23788 3.76668 6.16259 3.89501 6.03405C3.91258 6.01648 4.2704 5.67368 4.73501 5.23154C5.19963 4.7894 5.80001 4.21904 6.40001 3.64904C7.00001 3.07904 7.59963 2.50941 8.06501 2.06655C8.5304 1.62369 8.83258 1.33648 8.93501 1.23405C9.03834 1.13266 9.10871 1.00249 9.13694 0.860504C9.16517 0.718523 9.14995 0.571326 9.09327 0.438124C9.03659 0.304922 8.94108 0.191903 8.81919 0.113801C8.69731 0.0356984 8.55472 -0.00386063 8.41001 0.000297131Z" fill="#FECE3E"/>
</svg>
