<svg width="450" height="358" viewBox="0 0 450 358" fill="none" xmlns="http://www.w3.org/2000/svg">
<g clip-path="url(#clip0)">
<path d="M145.919 346.809C145.919 346.809 146.558 357.154 148.556 357.303C148.822 357.321 158.684 357.321 158.684 357.321L171.273 357.249C171.273 357.249 171.19 354.209 167.509 353.564C163.829 352.92 157.67 350.331 155.442 345.456C153.096 340.326 145.919 346.809 145.919 346.809Z" fill="#343434"/>
<path d="M141.383 226.08C141.383 226.08 146.87 227.492 150.356 226.437C153.841 225.383 159.838 227.116 160.809 228.388C161.78 229.66 161.421 230.169 159.696 230.608C157.971 231.047 151.861 233.661 147.847 232.149C143.833 230.638 138.591 230.583 138.591 230.583L141.383 226.08Z" fill="#E49963"/>
<path d="M93.9712 178.323C93.9712 178.323 100.135 222.226 110.335 226.148C115.37 228.087 137.617 232.484 144.201 232.937C144.201 232.937 145.813 231.624 145.42 226.288C145.42 226.288 122.111 217.711 118.799 213.047C113.871 206.104 121.858 184.687 115.675 178.165C109.491 171.643 99.0827 168.834 93.9712 178.323Z" fill="#1D1D1D"/>
<path d="M94.7684 347.445V337.875H79.7478C79.5526 337.874 79.3657 337.795 79.2279 337.657C79.0901 337.518 79.0124 337.331 79.0118 337.135V335.603C79.0124 335.407 79.0901 335.22 79.2279 335.081C79.3657 334.943 79.5526 334.864 79.7478 334.863H94.7797V280.388C94.7815 279.651 95.0742 278.945 95.5937 278.425C96.1133 277.904 96.8174 277.61 97.5522 277.609H100.519C101.254 277.61 101.958 277.904 102.477 278.425C102.997 278.945 103.29 279.651 103.291 280.388V334.863H118.323C118.518 334.864 118.705 334.943 118.843 335.081C118.981 335.22 119.059 335.407 119.059 335.603V337.135C119.059 337.331 118.981 337.518 118.843 337.657C118.705 337.795 118.518 337.874 118.323 337.875H103.289V347.445C114.164 348.269 122.877 352.198 125.322 357.265H72.7354C75.1805 352.193 83.893 348.262 94.7684 347.445Z" fill="#A3A3A3"/>
<path d="M96.0575 270.797C97.8649 273.808 99.8759 276.692 102.077 279.428C108.698 287.801 115.907 294.717 117.163 301.246C117.447 302.666 117.836 304.063 118.328 305.426C118.851 306.924 119.499 308.497 120.247 310.121C123.057 316.232 127.259 323.095 131.456 329.328C138.708 340.1 145.529 349.088 145.529 349.088L158.036 348.554C157.535 347.298 152.08 332.423 144.781 314.247C141.819 306.867 138.667 299.019 135.626 291.449C135.223 290.437 134.819 289.431 134.416 288.433L131.675 281.616C124.828 264.549 119.368 250.953 119.368 250.953C119.368 250.953 91.9823 240.543 89.1376 247.291C86.7918 252.854 88.7018 258.296 96.0575 270.797Z" fill="#1D1D1D"/>
<path d="M116.957 317.259C116.957 317.259 108.258 322.862 109.1 324.682C109.213 324.924 114.022 333.555 114.022 333.555L120.222 344.537C120.222 344.537 122.832 342.983 121.597 339.448C120.362 335.913 119.619 329.264 122.778 324.933C126.103 320.375 116.957 317.259 116.957 317.259Z" fill="#343434"/>
<path d="M128.74 246.021C128.74 246.021 163.116 267.484 166.952 281.908C170.788 296.333 121.213 327.103 121.213 327.103C121.213 327.103 115.776 322.296 114.817 318.771C114.817 318.771 137.222 291.866 142.081 285.832C145.066 282.13 97.9493 273.01 92.1853 264.037C86.4214 255.064 88.4917 247.517 88.4917 247.517L128.74 246.021Z" fill="#505050"/>
<path d="M134.206 273.583H63.8488C62.436 273.583 61.2908 274.731 61.2908 276.147V290.252C61.2908 291.668 62.436 292.816 63.8488 292.816H134.206C135.619 292.816 136.764 291.668 136.764 290.252V276.147C136.764 274.731 135.619 273.583 134.206 273.583Z" fill="#343434"/>
<path d="M112.832 170.801C114.853 172.051 116.628 173.661 118.068 175.553C109.834 177.687 96.1816 170.038 96.1816 170.038C96.1816 170.038 101.48 166.472 103.454 158.621C103.553 158.226 103.643 157.82 103.725 157.404C104.001 155.987 104.152 154.548 104.176 153.104L107.96 156.499L114.25 162.156C114.25 162.156 114.108 164.501 113.32 168.534C113.174 169.24 113.011 169.995 112.832 170.801Z" fill="#E49963"/>
<path d="M87.4985 209.743C88.6793 225.648 86.6948 249.823 88.0336 254.012C89.1873 257.633 102.779 255.488 108.032 254.282C109.976 253.829 112.322 253.198 114.763 252.442C121.536 250.337 128.939 247.33 129.731 245.098C129.762 245.015 129.786 244.929 129.804 244.842C129.873 244.533 129.868 244.212 129.79 243.906C129.526 242.774 128.508 241.536 128.388 238.721C128.253 235.575 128.273 231.871 128.162 227.888C128.162 227.435 128.162 226.951 128.101 226.505V226.342V226.087C127.988 221.644 127.756 216.976 127.487 212.343C127.318 209.435 127.119 206.555 126.893 203.796C126.3 196.672 125.503 190.338 124.448 186.332C122.723 179.803 118.921 175.544 115.46 172.424L112.936 170.272C110.141 170.883 106.84 170.478 103.851 169.059C100.618 167.52 99.5028 166.418 98.9384 166.832C91.4879 172.607 86.1055 190.304 87.4985 209.743Z" fill="#343434"/>
<path d="M114.724 252.473C121.497 250.369 128.9 247.361 129.693 245.13C129.722 245.046 129.746 244.961 129.765 244.874C129.765 244.562 129.761 244.25 129.752 243.937C129.487 242.806 128.469 241.57 128.349 238.753C128.214 235.607 128.234 231.903 128.124 227.92C128.124 227.467 128.11 226.983 128.063 226.537V226.374V226.118L102.438 214.471C102.438 214.471 100.945 235.17 114.724 252.473Z" fill="#1D1D1D"/>
<path d="M114.234 162.161C114.234 162.161 114.092 164.505 113.304 168.538C107.163 166.542 104.375 160.986 103.454 158.621C103.19 157.954 103.074 157.542 103.074 157.542L103.725 157.404L107.953 156.499L114.234 162.161Z" fill="#D68D5D"/>
<path d="M116.722 162.1C116.722 162.1 103.226 163.625 102.409 155.186C101.591 146.748 99.2951 141.262 107.879 139.931C116.463 138.601 118.45 141.656 119.407 144.408C120.364 147.159 120.211 161.487 116.722 162.1Z" fill="#E49963"/>
<path d="M102.465 155.77C102.465 155.77 103.321 144.568 115.607 143.407C124.022 142.613 119.33 135.353 118.431 134.197C118.431 134.197 111.986 135.082 105.377 136.177C91.5082 138.481 101.103 154.025 102.465 155.77Z" fill="#363636"/>
<path d="M167.787 237.081L168.968 237.466L179.018 206.461L177.837 206.076L167.787 237.081Z" fill="#1D1D1D"/>
<path d="M134.831 236.748L168.954 237.476L168.997 235.431L134.875 234.703L134.831 236.748Z" fill="#1D1D1D"/>
<path d="M138.559 232.826C138.559 232.826 143.856 234.836 147.436 234.184C151.017 233.532 156.79 235.904 157.612 237.277C158.434 238.651 158.023 239.115 156.257 239.362C154.492 239.608 148.129 241.53 144.312 239.588C140.494 237.646 135.281 237.008 135.281 237.008L138.559 232.826Z" fill="#E49963"/>
<path d="M96.7009 180.12C96.7009 180.12 97.9969 224.426 107.705 229.454C112.494 231.943 134.12 238.769 140.613 239.934C140.613 239.934 142.361 238.802 142.557 233.462C142.557 233.462 120.335 222.373 117.555 217.36C113.422 209.915 123.717 189.509 118.287 182.345C112.857 175.18 102.815 171.258 96.7009 180.12Z" fill="#343434"/>
<path d="M220.397 285.943H396.492C408.781 285.943 418.744 275.957 418.744 263.639L418.744 22.3021C418.744 9.98376 408.781 -0.00222778 396.492 -0.00222778H220.397C208.107 -0.00222778 198.145 9.98376 198.145 22.3021L198.145 263.639C198.145 275.957 208.107 285.943 220.397 285.943Z" fill="#F1F1F1"/>
<path d="M219.821 257.002H397.428V29.9692L219.821 29.9692L219.821 257.002Z" fill="#E4E4E4"/>
<path d="M372.244 247.035C369.758 247.035 367.375 246.046 365.617 244.284C363.859 242.522 362.872 240.133 362.872 237.641V107.776C362.872 105.285 363.859 102.895 365.617 101.134C367.375 99.372 369.758 98.3823 372.244 98.3823C374.729 98.3829 377.112 99.3729 378.869 101.135C380.626 102.896 381.613 105.285 381.613 107.776V237.641C381.613 240.132 380.626 242.521 378.869 244.283C377.112 246.045 374.729 247.035 372.244 247.035Z" fill="#343434"/>
<path d="M341.539 247.035C339.053 247.035 336.669 246.046 334.912 244.284C333.154 242.522 332.167 240.133 332.167 237.641V66.3312C332.167 65.0977 332.409 63.8763 332.88 62.7367C333.351 61.5971 334.042 60.5617 334.912 59.6896C335.782 58.8175 336.816 58.1258 337.953 57.6539C339.09 57.1821 340.308 56.9394 341.539 56.9397C344.024 56.9397 346.407 57.9292 348.164 59.6904C349.921 61.4517 350.908 63.8404 350.908 66.3312V237.641C350.908 240.132 349.921 242.521 348.164 244.283C346.407 246.045 344.024 247.035 341.539 247.035Z" fill="#343434"/>
<path d="M308.035 247.035C305.549 247.035 303.166 246.045 301.409 244.283C299.652 242.521 298.665 240.133 298.665 237.642V143.726C298.665 141.235 299.652 138.846 301.409 137.085C303.166 135.323 305.549 134.333 308.035 134.333C310.52 134.333 312.904 135.322 314.661 137.084C316.419 138.846 317.406 141.235 317.406 143.726V237.642C317.406 240.133 316.419 242.522 314.661 244.284C312.904 246.046 310.52 247.035 308.035 247.035Z" fill="#343434"/>
<path d="M275.435 247.035C272.95 247.035 270.566 246.045 268.808 244.284C267.051 242.522 266.063 240.133 266.063 237.641V91.7177C266.063 90.4842 266.306 89.2628 266.777 88.1232C267.248 86.9836 267.938 85.9482 268.809 85.0761C269.679 84.204 270.712 83.5122 271.849 83.0404C272.986 82.5686 274.205 82.3259 275.435 82.3262C277.92 82.3262 280.303 83.3156 282.06 85.0769C283.818 86.8381 284.805 89.2269 284.805 91.7177V237.641C284.805 240.132 283.818 242.521 282.061 244.283C280.304 246.045 277.92 247.035 275.435 247.035Z" fill="#343434"/>
<path d="M252.034 165.784V237.641C252.034 240.132 251.047 242.521 249.29 244.283C247.533 246.045 245.149 247.035 242.664 247.035C240.179 247.035 237.795 246.045 236.037 244.284C234.28 242.522 233.292 240.133 233.292 237.641V165.784C233.292 164.55 233.534 163.329 234.005 162.189C234.476 161.049 235.166 160.013 236.037 159.141C236.907 158.268 237.94 157.577 239.077 157.105C240.215 156.633 241.433 156.39 242.664 156.39C243.895 156.39 245.113 156.633 246.25 157.105C247.387 157.577 248.42 158.269 249.29 159.142C250.16 160.014 250.85 161.05 251.321 162.189C251.792 163.329 252.034 164.55 252.034 165.784Z" fill="#343434"/>
<path d="M266.953 70.692H282.825C283.25 70.7078 283.652 70.8882 283.947 71.1952C284.243 71.5023 284.408 71.912 284.408 72.3384C284.408 72.7648 284.243 73.1745 283.947 73.4815C283.652 73.7886 283.25 73.9689 282.825 73.9847H266.953C266.732 73.9929 266.512 73.9564 266.306 73.8774C266.099 73.7983 265.911 73.6784 265.752 73.5247C265.593 73.371 265.466 73.1868 265.38 72.9829C265.293 72.7791 265.249 72.5599 265.249 72.3384C265.249 72.1169 265.293 71.8977 265.38 71.6939C265.466 71.49 265.593 71.3057 265.752 71.1521C265.911 70.9984 266.099 70.8784 266.306 70.7994C266.512 70.7203 266.732 70.6838 266.953 70.692Z" fill="#A3A3A3"/>
<path d="M279.21 76.6823H282.822C283.258 76.6823 283.675 76.8556 283.983 77.1641C284.291 77.4727 284.464 77.8911 284.464 78.3275C284.464 78.7638 284.291 79.1823 283.983 79.4908C283.675 79.7994 283.258 79.9727 282.822 79.9727H279.21C278.775 79.9727 278.357 79.7994 278.05 79.4908C277.742 79.1823 277.569 78.7638 277.569 78.3275C277.569 77.8911 277.742 77.4727 278.05 77.1641C278.357 76.8556 278.775 76.6823 279.21 76.6823Z" fill="#A3A3A3"/>
<path d="M332.357 45.4323H348.229C348.664 45.4323 349.081 45.6056 349.389 45.9141C349.697 46.2227 349.87 46.6411 349.87 47.0775C349.87 47.5138 349.697 47.9323 349.389 48.2408C349.081 48.5493 348.664 48.7227 348.229 48.7227H332.357C331.922 48.7227 331.504 48.5493 331.196 48.2408C330.889 47.9323 330.716 47.5138 330.716 47.0775C330.716 46.6411 330.889 46.2227 331.196 45.9141C331.504 45.6056 331.922 45.4323 332.357 45.4323Z" fill="#A3A3A3"/>
<path d="M344.614 51.4203H348.226C348.661 51.4221 349.078 51.5963 349.386 51.9049C349.693 52.2136 349.866 52.6316 349.868 53.0678C349.866 53.5037 349.693 53.9215 349.386 54.2298C349.078 54.5381 348.661 54.7118 348.226 54.713H344.614C344.179 54.7118 343.762 54.5381 343.454 54.2299C343.146 53.9217 342.972 53.5039 342.97 53.0678C342.972 52.6314 343.146 52.2134 343.454 51.9048C343.761 51.5962 344.178 51.4221 344.614 51.4203Z" fill="#A3A3A3"/>
<path d="M364.1 86.8387H379.972C380.397 86.8545 380.799 87.0349 381.095 87.3419C381.39 87.649 381.555 88.0587 381.555 88.4851C381.555 88.9115 381.39 89.3212 381.095 89.6282C380.799 89.9353 380.397 90.1156 379.972 90.1314H364.1C363.675 90.1156 363.273 89.9353 362.978 89.6282C362.683 89.3212 362.518 88.9115 362.518 88.4851C362.518 88.0587 362.683 87.649 362.978 87.3419C363.273 87.0349 363.675 86.8545 364.1 86.8387Z" fill="#A3A3A3"/>
<path d="M376.357 92.8289H379.97C380.405 92.8301 380.821 93.0038 381.129 93.312C381.437 93.6203 381.61 94.0381 381.611 94.474C381.61 94.91 381.437 95.3278 381.129 95.6361C380.821 95.9444 380.405 96.1181 379.97 96.1193H376.357C375.922 96.1181 375.506 95.9444 375.198 95.6361C374.891 95.3278 374.717 94.91 374.716 94.474C374.717 94.0381 374.891 93.6203 375.198 93.312C375.506 93.0038 375.922 92.8301 376.357 92.8289Z" fill="#A3A3A3"/>
<path d="M300.101 122.805H315.973C316.408 122.805 316.825 122.978 317.133 123.287C317.441 123.595 317.614 124.014 317.614 124.45C317.614 124.886 317.441 125.305 317.133 125.613C316.825 125.922 316.408 126.095 315.973 126.095H300.101C299.666 126.095 299.248 125.922 298.94 125.613C298.632 125.305 298.459 124.886 298.459 124.45C298.459 124.014 298.632 123.595 298.94 123.287C299.248 122.978 299.666 122.805 300.101 122.805Z" fill="#A3A3A3"/>
<path d="M312.356 128.793H315.968C316.403 128.795 316.82 128.969 317.128 129.277C317.436 129.586 317.61 130.004 317.612 130.44C317.61 130.876 317.436 131.294 317.128 131.602C316.82 131.911 316.403 132.084 315.968 132.085H312.356C311.921 132.084 311.504 131.911 311.196 131.602C310.889 131.294 310.715 130.876 310.714 130.44C310.715 130.004 310.889 129.586 311.196 129.277C311.504 128.969 311.92 128.795 312.356 128.793Z" fill="#A3A3A3"/>
<path d="M234.729 144.797H250.6C251.025 144.813 251.428 144.993 251.723 145.3C252.018 145.607 252.183 146.017 252.183 146.443C252.183 146.869 252.018 147.279 251.723 147.586C251.428 147.893 251.025 148.074 250.6 148.089H234.729C234.508 148.098 234.288 148.061 234.081 147.982C233.875 147.903 233.686 147.783 233.527 147.629C233.368 147.476 233.242 147.291 233.155 147.088C233.069 146.884 233.024 146.665 233.024 146.443C233.024 146.222 233.069 146.002 233.155 145.799C233.242 145.595 233.368 145.41 233.527 145.257C233.686 145.103 233.875 144.983 234.081 144.904C234.288 144.825 234.508 144.789 234.729 144.797Z" fill="#A3A3A3"/>
<path d="M246.986 150.787H250.598C251.033 150.787 251.451 150.96 251.759 151.269C252.066 151.577 252.239 151.996 252.239 152.432C252.239 152.869 252.066 153.287 251.759 153.596C251.451 153.904 251.033 154.077 250.598 154.077H246.986C246.77 154.077 246.557 154.035 246.357 153.952C246.158 153.869 245.977 153.748 245.825 153.596C245.673 153.443 245.552 153.261 245.469 153.062C245.387 152.862 245.344 152.648 245.344 152.432C245.344 152.216 245.387 152.002 245.469 151.803C245.552 151.603 245.673 151.422 245.825 151.269C245.977 151.116 246.158 150.995 246.357 150.912C246.557 150.83 246.77 150.787 246.986 150.787Z" fill="#A3A3A3"/>
<path d="M242.664 140.115C241.511 140.115 240.384 139.772 239.425 139.129C238.466 138.487 237.718 137.574 237.277 136.506C236.835 135.438 236.72 134.263 236.945 133.129C237.17 131.995 237.725 130.953 238.541 130.136C239.356 129.318 240.395 128.762 241.527 128.536C242.658 128.311 243.831 128.426 244.896 128.869C245.962 129.311 246.872 130.06 247.513 131.022C248.154 131.983 248.496 133.113 248.496 134.269C248.494 135.819 247.879 137.305 246.786 138.401C245.693 139.496 244.211 140.113 242.664 140.115ZM242.664 130.687C241.958 130.687 241.267 130.897 240.679 131.291C240.091 131.684 239.633 132.244 239.363 132.898C239.092 133.553 239.021 134.273 239.159 134.968C239.297 135.663 239.637 136.301 240.137 136.802C240.637 137.303 241.274 137.644 241.967 137.783C242.66 137.921 243.379 137.85 244.032 137.579C244.685 137.308 245.243 136.849 245.636 136.259C246.029 135.67 246.238 134.978 246.238 134.269C246.237 133.319 245.86 132.409 245.19 131.737C244.52 131.066 243.612 130.688 242.664 130.687Z" fill="#363636"/>
<path d="M240.181 130.687C240.032 130.687 239.885 130.657 239.748 130.6C239.611 130.543 239.486 130.46 239.382 130.354L221.855 112.786H79.4609C79.1615 112.786 78.8744 112.667 78.6627 112.455C78.451 112.243 78.332 111.955 78.332 111.655C78.332 111.355 78.451 111.067 78.6627 110.855C78.8744 110.643 79.1615 110.523 79.4609 110.523H222.79L240.978 128.75C241.136 128.908 241.244 129.109 241.288 129.329C241.331 129.549 241.309 129.776 241.224 129.983C241.139 130.19 240.994 130.367 240.808 130.491C240.623 130.616 240.404 130.682 240.181 130.682V130.687Z" fill="#363636"/>
<path d="M276.205 263.399C275.051 263.4 273.923 263.057 272.963 262.415C272.004 261.773 271.256 260.859 270.814 259.791C270.372 258.723 270.256 257.547 270.481 256.412C270.706 255.278 271.261 254.236 272.077 253.418C272.893 252.599 273.932 252.042 275.064 251.817C276.196 251.591 277.369 251.706 278.435 252.149C279.501 252.591 280.412 253.341 281.054 254.303C281.695 255.264 282.037 256.395 282.037 257.552C282.035 259.102 281.42 260.588 280.327 261.684C279.234 262.78 277.751 263.397 276.205 263.399ZM276.205 253.969C275.498 253.969 274.806 254.179 274.217 254.572C273.629 254.966 273.17 255.526 272.899 256.181C272.628 256.836 272.557 257.557 272.695 258.253C272.833 258.948 273.174 259.587 273.674 260.089C274.174 260.59 274.812 260.932 275.506 261.07C276.2 261.208 276.919 261.137 277.572 260.865C278.226 260.594 278.785 260.134 279.177 259.544C279.57 258.954 279.78 258.261 279.779 257.552C279.78 257.08 279.688 256.614 279.509 256.178C279.33 255.742 279.067 255.346 278.735 255.013C278.403 254.679 278.009 254.414 277.575 254.233C277.141 254.052 276.675 253.959 276.205 253.958V253.969Z" fill="#363636"/>
<path d="M437.144 281.277H296.077L277.889 263.046C277.684 262.833 277.57 262.547 277.572 262.25C277.575 261.954 277.694 261.67 277.903 261.46C278.112 261.25 278.395 261.131 278.691 261.129C278.987 261.126 279.272 261.24 279.485 261.446L297.012 279.014H437.144C437.443 279.014 437.731 279.133 437.942 279.345C438.154 279.558 438.273 279.845 438.273 280.145C438.273 280.446 438.154 280.733 437.942 280.946C437.731 281.158 437.443 281.277 437.144 281.277Z" fill="#363636"/>
<path d="M340.721 40.9063C339.567 40.9068 338.439 40.5641 337.479 39.9218C336.52 39.2794 335.772 38.3661 335.33 37.2975C334.888 36.2289 334.772 35.053 334.997 33.9184C335.222 32.7839 335.778 31.7417 336.594 30.9238C337.41 30.1058 338.45 29.5489 339.582 29.3233C340.714 29.0978 341.887 29.2137 342.953 29.6566C344.019 30.0995 344.93 30.8493 345.571 31.8113C346.212 32.7733 346.554 33.9042 346.553 35.061C346.551 36.6107 345.936 38.0964 344.843 39.1923C343.75 40.2881 342.268 40.9045 340.721 40.9063ZM340.721 31.4763C340.014 31.4759 339.322 31.6857 338.734 32.0794C338.146 32.473 337.687 33.0327 337.416 33.6876C337.145 34.3426 337.074 35.0634 337.211 35.7589C337.349 36.4544 337.69 37.0933 338.19 37.5949C338.69 38.0964 339.327 38.438 340.021 38.5765C340.714 38.715 341.434 38.6442 342.087 38.3729C342.741 38.1017 343.3 37.6422 343.693 37.0527C344.086 36.4632 344.295 35.77 344.295 35.061C344.294 34.111 343.917 33.2003 343.247 32.5284C342.578 31.8564 341.669 31.4781 340.721 31.4763Z" fill="#363636"/>
<path d="M338.238 31.4763C338.09 31.4765 337.943 31.4475 337.806 31.3908C337.668 31.3341 337.544 31.2509 337.439 31.1459L319.912 13.5781H177.518C177.219 13.5781 176.931 13.4589 176.72 13.2467C176.508 13.0345 176.389 12.7467 176.389 12.4466C176.389 12.1465 176.508 11.8587 176.72 11.6465C176.931 11.4343 177.219 11.3151 177.518 11.3151H320.847L339.035 29.5459C339.192 29.7042 339.299 29.9055 339.343 30.1247C339.386 30.3439 339.364 30.571 339.279 30.7774C339.193 30.9839 339.049 31.1604 338.864 31.2848C338.679 31.4092 338.461 31.4758 338.238 31.4763Z" fill="#363636"/>
<path d="M174.626 107.905H81.0775C80.702 107.905 80.3301 107.831 79.9832 107.687C79.6362 107.543 79.3211 107.331 79.0556 107.065C78.7902 106.799 78.5797 106.483 78.4362 106.135C78.2927 105.787 78.2189 105.414 78.2192 105.038C78.2192 104.278 78.5204 103.549 79.0564 103.012C79.5924 102.475 80.3195 102.173 81.0775 102.173H174.626C175.384 102.173 176.111 102.475 176.647 103.012C177.183 103.549 177.484 104.278 177.484 105.038C177.485 105.414 177.411 105.787 177.267 106.135C177.124 106.483 176.913 106.799 176.648 107.065C176.382 107.331 176.067 107.543 175.72 107.687C175.373 107.831 175.001 107.905 174.626 107.905Z" fill="#343434"/>
<path d="M174.626 98.8531H117.201C116.825 98.8531 116.453 98.7789 116.106 98.6348C115.76 98.4907 115.444 98.2794 115.179 98.0132C114.913 97.7469 114.703 97.4308 114.559 97.0829C114.416 96.7351 114.342 96.3623 114.343 95.9858C114.343 95.226 114.644 94.4973 115.18 93.96C115.716 93.4227 116.443 93.1208 117.201 93.1208H174.626C175.384 93.1208 176.111 93.4227 176.647 93.96C177.183 94.4973 177.484 95.226 177.484 95.9858C177.484 96.3623 177.411 96.7351 177.267 97.0829C177.124 97.4308 176.913 97.7469 176.648 98.0132C176.382 98.2794 176.067 98.4907 175.72 98.6348C175.373 98.7789 175.001 98.8531 174.626 98.8531Z" fill="#343434"/>
<path d="M174.626 89.8011H117.201C116.825 89.8011 116.453 89.7269 116.106 89.5828C115.76 89.4386 115.444 89.2274 115.179 88.9611C114.913 88.6949 114.703 88.3788 114.559 88.0309C114.416 87.683 114.342 87.3102 114.343 86.9338C114.343 86.174 114.644 85.4453 115.18 84.908C115.716 84.3707 116.443 84.0688 117.201 84.0688H174.626C175.384 84.0688 176.111 84.3707 176.647 84.908C177.183 85.4453 177.484 86.174 177.484 86.9338C177.484 87.3102 177.411 87.683 177.267 88.0309C177.124 88.3788 176.913 88.6949 176.648 88.9611C176.382 89.2274 176.067 89.4386 175.72 89.5828C175.373 89.7269 175.001 89.8011 174.626 89.8011Z" fill="#343434"/>
<path d="M272.028 8.11064H178.482C177.723 8.11064 176.996 7.80855 176.459 7.27084C175.923 6.73313 175.622 6.00384 175.622 5.2434C175.622 4.86697 175.696 4.49424 175.839 4.14649C175.983 3.79875 176.194 3.48282 176.46 3.21675C176.725 2.95068 177.041 2.7397 177.388 2.59585C177.735 2.45201 178.107 2.37812 178.482 2.37842H272.028C272.404 2.37812 272.776 2.45201 273.123 2.59585C273.47 2.7397 273.785 2.95068 274.051 3.21675C274.316 3.48282 274.527 3.79875 274.671 4.14649C274.815 4.49424 274.889 4.86697 274.889 5.2434C274.889 6.00384 274.587 6.73313 274.051 7.27084C273.515 7.80855 272.787 8.11064 272.028 8.11064Z" fill="#343434"/>
<path d="M355.668 324.042C363.618 316.073 363.618 303.153 355.668 295.184C347.718 287.215 334.828 287.215 326.878 295.184C318.927 303.153 318.927 316.073 326.878 324.042C334.828 332.011 347.718 332.011 355.668 324.042Z" fill="#FECE3E"/>
<path d="M341.272 292.366C344.664 292.366 347.981 293.37 350.805 295.254C353.629 297.137 355.835 299.815 357.145 302.951C358.456 306.087 358.812 309.541 358.17 312.879C357.528 316.218 355.916 319.292 353.536 321.715L341.272 309.617L325.193 315.768C324.201 313.155 323.856 310.341 324.189 307.566C324.522 304.79 325.522 302.138 327.104 299.836C328.686 297.534 330.801 295.651 333.269 294.35C335.737 293.049 338.484 292.368 341.272 292.366Z" fill="white"/>
<path d="M343.787 300.854H351.125C351.264 300.855 351.396 300.911 351.494 301.009C351.592 301.107 351.647 301.241 351.647 301.379C351.646 301.518 351.591 301.651 351.493 301.749C351.396 301.847 351.263 301.903 351.125 301.904H343.787C343.649 301.904 343.516 301.848 343.418 301.75C343.32 301.652 343.264 301.518 343.264 301.379C343.264 301.24 343.32 301.107 343.418 301.009C343.516 300.91 343.649 300.855 343.787 300.854Z" fill="#FECE3E"/>
<path d="M343.787 302.515H351.125C351.264 302.515 351.397 302.571 351.496 302.669C351.594 302.768 351.649 302.901 351.649 303.04C351.649 303.18 351.594 303.313 351.496 303.412C351.397 303.51 351.264 303.565 351.125 303.565H343.787C343.649 303.565 343.515 303.51 343.417 303.412C343.319 303.313 343.264 303.18 343.264 303.04C343.264 302.901 343.319 302.768 343.417 302.669C343.515 302.571 343.649 302.515 343.787 302.515Z" fill="#FECE3E"/>
<path d="M348.089 304.176H351.125C351.258 304.185 351.382 304.244 351.473 304.341C351.564 304.439 351.615 304.567 351.615 304.7C351.615 304.834 351.564 304.962 351.473 305.059C351.382 305.156 351.258 305.215 351.125 305.224H348.1C348.028 305.229 347.957 305.219 347.889 305.195C347.822 305.171 347.76 305.133 347.708 305.084C347.655 305.034 347.613 304.975 347.585 304.909C347.556 304.843 347.542 304.772 347.542 304.7C347.542 304.628 347.556 304.557 347.585 304.491C347.613 304.426 347.655 304.366 347.708 304.317C347.76 304.268 347.822 304.23 347.889 304.206C347.957 304.182 348.028 304.172 348.1 304.176H348.089Z" fill="#FECE3E"/>
<path d="M323.445 300.035L331.499 291.963H323.445V300.035Z" fill="#FECE3E"/>
<path d="M430.391 310.661C430.952 299.405 422.304 289.825 411.074 289.263C399.845 288.7 390.287 297.369 389.726 308.625C389.165 319.88 397.814 329.461 409.043 330.023C420.272 330.585 429.83 321.917 430.391 310.661Z" fill="#FECE3E"/>
<path d="M392.812 309.612C392.811 305.721 394.124 301.943 396.536 298.894C398.948 295.845 402.318 293.702 406.099 292.816C409.879 291.929 413.847 292.35 417.359 294.009C420.871 295.669 423.719 298.47 425.442 301.958C427.164 305.446 427.66 309.415 426.847 313.22C426.035 317.026 423.962 320.444 420.967 322.919C417.971 325.395 414.228 326.782 410.346 326.856C406.464 326.93 402.672 325.686 399.585 323.326L410.022 309.612L393.94 315.763C393.193 313.799 392.81 311.714 392.812 309.612Z" fill="white"/>
<path d="M412.675 300.854H420.001C420.14 300.855 420.272 300.911 420.37 301.009C420.468 301.107 420.523 301.241 420.523 301.379C420.522 301.518 420.467 301.651 420.369 301.749C420.272 301.847 420.14 301.903 420.001 301.904H412.675C412.536 301.904 412.403 301.848 412.305 301.75C412.207 301.652 412.152 301.518 412.151 301.379C412.152 301.24 412.207 301.107 412.305 301.009C412.403 300.91 412.536 300.855 412.675 300.854Z" fill="#FECE3E"/>
<path d="M412.675 302.515H420.001C420.14 302.515 420.273 302.571 420.372 302.669C420.47 302.768 420.525 302.901 420.525 303.04C420.525 303.18 420.47 303.313 420.372 303.412C420.273 303.51 420.14 303.565 420.001 303.565H412.675C412.536 303.565 412.403 303.51 412.305 303.412C412.206 303.313 412.151 303.18 412.151 303.04C412.151 302.901 412.206 302.768 412.305 302.669C412.403 302.571 412.536 302.515 412.675 302.515Z" fill="#FECE3E"/>
<path d="M416.976 304.176H420.001C420.134 304.185 420.258 304.244 420.349 304.341C420.44 304.439 420.491 304.567 420.491 304.7C420.491 304.834 420.44 304.962 420.349 305.059C420.258 305.156 420.134 305.215 420.001 305.224H416.976C416.904 305.229 416.833 305.219 416.765 305.195C416.698 305.171 416.636 305.133 416.584 305.084C416.531 305.034 416.489 304.975 416.461 304.909C416.432 304.843 416.418 304.772 416.418 304.7C416.418 304.628 416.432 304.557 416.461 304.491C416.489 304.426 416.531 304.366 416.584 304.317C416.636 304.268 416.698 304.23 416.765 304.206C416.833 304.182 416.904 304.172 416.976 304.176Z" fill="#FECE3E"/>
<path d="M392.306 300.035L400.359 291.963H392.306V300.035Z" fill="#FECE3E"/>
</g>
<defs>
<clipPath id="clip0">
<rect width="450" height="358" fill="white"/>
</clipPath>
</defs>
</svg>
