<svg width="108" height="108" viewBox="0 0 108 108" fill="none" xmlns="http://www.w3.org/2000/svg">
<path d="M21.229 0C18.2465 0 15.829 2.41755 15.829 5.4V102.6C15.829 105.582 18.2465 108 21.229 108H100.429C103.411 108 105.829 105.582 105.829 102.6V17.9999L87.8291 0H21.229Z" fill="#ECEDEF"/>
<path d="M93.2291 17.9999H105.829L87.8291 0V12.5999C87.8291 15.5824 90.2467 17.9999 93.2291 17.9999Z" fill="#D9DCDF"/>
<path d="M84.2291 9H15.829V41.4H84.2291C85.2232 41.4 86.029 40.594 86.029 39.6001V10.7999C86.029 9.80578 85.223 9 84.2291 9Z" fill="#C6CACF"/>
<path d="M80.629 37.8004H3.97477C2.37122 37.8004 1.56797 35.8617 2.70197 34.7277L15.829 21.6004L2.70197 8.47312C1.56797 7.33912 2.37122 5.40039 3.97477 5.40039H80.629C81.6232 5.40039 82.429 6.20638 82.429 7.20032V36.0003C82.4292 36.9944 81.6232 37.8004 80.629 37.8004Z" fill="#FECE3E"/>
<path d="M84.229 97.2007H37.429C36.4348 97.2007 35.629 96.3947 35.629 95.4008V48.6007C35.629 47.6066 36.435 46.8008 37.429 46.8008H84.229C85.2232 46.8008 86.029 47.6068 86.029 48.6007V95.4008C86.029 96.3947 85.223 97.2007 84.229 97.2007Z" fill="#C6CACF"/>
<path d="M39.2291 93.6006V46.8008H37.4292C36.4351 46.8008 35.6293 47.6068 35.6293 48.6007V95.4008C35.6293 96.3949 36.4353 97.2007 37.4292 97.2007H84.2293C85.2234 97.2007 86.0292 96.3947 86.0292 95.4008V93.6009H39.2291V93.6006Z" fill="#B3B9BF"/>
<path d="M39.2291 30.601H33.8291C32.835 30.601 32.0292 29.795 32.0292 28.8011V18.0011C32.0292 17.007 32.8352 16.2012 33.8291 16.2012H39.2291C40.2233 16.2012 41.029 17.0072 41.029 18.0011C41.029 18.995 40.223 19.801 39.2291 19.801H35.629V27.001H39.2291C40.2233 27.001 41.029 27.807 41.029 28.8009C41.029 29.7948 40.223 30.601 39.2291 30.601Z" fill="white"/>
<path d="M50.0292 30.6008H44.6292C43.635 30.6008 42.8292 29.7948 42.8292 28.8009C42.8292 27.807 43.6352 27.001 44.6292 27.001H48.2292V25.201H44.6292C43.635 25.201 42.8292 24.395 42.8292 23.4011V18.0011C42.8292 17.007 43.6352 16.2012 44.6292 16.2012H50.0292C51.0233 16.2012 51.8291 17.0072 51.8291 18.0011C51.8291 18.995 51.0231 19.801 50.0292 19.801H46.4291V21.601H50.0292C51.0233 21.601 51.8291 22.407 51.8291 23.4009V28.8009C51.8291 29.7948 51.0231 30.6008 50.0292 30.6008Z" fill="white"/>
<path d="M59.029 30.5999C58.2542 30.5999 57.5663 30.104 57.3212 29.3691L53.7212 18.5691C53.4071 17.6262 53.9165 16.6067 54.8596 16.2922C55.804 15.9775 56.8219 16.4875 57.1367 17.4306L59.029 23.1076L60.9213 17.4306C61.2358 16.4878 62.2549 15.9781 63.1984 16.2922C64.1413 16.6065 64.6509 17.626 64.3368 18.5691L60.7367 29.3691C60.4918 30.104 59.804 30.5999 59.029 30.5999Z" fill="white"/>
<path d="M50.029 57.5999H42.8291C41.835 57.5999 41.0292 56.7939 41.0292 55.7999C41.0292 54.8058 41.8352 54 42.8291 54H50.029C51.0232 54 51.829 54.806 51.829 55.7999C51.829 56.7939 51.023 57.5999 50.029 57.5999Z" fill="#8E959F"/>
<path d="M78.829 57.5999H57.229C56.2349 57.5999 55.4291 56.7939 55.4291 55.7999C55.4291 54.8058 56.2351 54 57.229 54H78.829C79.8232 54 80.6289 54.806 80.6289 55.7999C80.6289 56.7939 79.8229 57.5999 78.829 57.5999Z" fill="#8E959F"/>
<path d="M50.029 68.4006H42.8291C41.835 68.4006 41.0292 67.5947 41.0292 66.6007C41.0292 65.6066 41.8352 64.8008 42.8291 64.8008H50.029C51.0232 64.8008 51.829 65.6068 51.829 66.6007C51.829 67.5947 51.023 68.4006 50.029 68.4006Z" fill="#8E959F"/>
<path d="M78.829 68.4006H57.229C56.2349 68.4006 55.4291 67.5947 55.4291 66.6007C55.4291 65.6066 56.2351 64.8008 57.229 64.8008H78.829C79.8232 64.8008 80.6289 65.6068 80.6289 66.6007C80.6289 67.5947 79.8229 68.4006 78.829 68.4006Z" fill="#8E959F"/>
<path d="M50.029 79.1995H42.8291C41.835 79.1995 41.0292 78.3935 41.0292 77.3995C41.0292 76.4056 41.8352 75.5996 42.8291 75.5996H50.029C51.0232 75.5996 51.829 76.4056 51.829 77.3995C51.829 78.3935 51.023 79.1995 50.029 79.1995Z" fill="#8E959F"/>
<path d="M62.629 79.1995H57.229C56.2349 79.1995 55.4291 78.3935 55.4291 77.3995C55.4291 76.4056 56.2351 75.5996 57.229 75.5996H62.629C63.6232 75.5996 64.4289 76.4056 64.4289 77.3995C64.4289 78.3935 63.6229 79.1995 62.629 79.1995Z" fill="#8E959F"/>
<path d="M50.029 90.0002H42.8291C41.835 90.0002 41.0292 89.1943 41.0292 88.2003C41.0292 87.2064 41.8352 86.4004 42.8291 86.4004H50.029C51.0232 86.4004 51.829 87.2064 51.829 88.2003C51.829 89.1943 51.023 90.0002 50.029 90.0002Z" fill="#8E959F"/>
<path d="M62.629 90.0002H57.229C56.2349 90.0002 55.4291 89.1943 55.4291 88.2003C55.4291 87.2064 56.2351 86.4004 57.229 86.4004H62.629C63.6232 86.4004 64.4289 87.2064 64.4289 88.2003C64.4289 89.1943 63.6229 90.0002 62.629 90.0002Z" fill="#8E959F"/>
<path d="M76.6722 82.7998L80.2119 78.5522C80.8485 77.7884 80.7452 76.6533 79.9816 76.0169C79.2182 75.3805 78.0829 75.4835 77.4465 76.2473L74.3293 79.9878L71.2121 76.2473C70.5757 75.4839 69.4406 75.3805 68.677 76.0169C67.9132 76.6535 67.8099 77.7884 68.4467 78.5522L71.9862 82.7998L68.4465 87.0475C67.8655 87.7446 67.9035 88.8002 68.5361 89.452C69.271 90.2092 70.5369 90.1624 71.2121 89.352L74.3293 85.6114L77.4465 89.352C78.1218 90.1624 79.3876 90.209 80.1225 89.452C80.7549 88.8002 80.7931 87.7444 80.2121 87.0475L76.6722 82.7998Z" fill="#529E44"/>
</svg>
