<svg width="26" height="26" viewBox="0 0 26 26" fill="none" xmlns="http://www.w3.org/2000/svg">
<g clip-path="url(#clip0)">
<path d="M19.4665 15.3943C17.7057 15.3943 16.2732 16.8268 16.2732 18.5876C16.2732 20.3484 17.7057 21.7809 19.4665 21.7809C21.2276 21.7809 22.6598 20.3484 22.6598 18.5876C22.6598 16.8268 21.2273 15.3943 19.4665 15.3943ZM19.4665 20.1842C18.5859 20.1842 17.8698 19.4681 17.8698 18.5876C17.8698 17.707 18.5859 16.9909 19.4665 16.9909C20.347 16.9909 21.0631 17.707 21.0631 18.5876C21.0631 19.4682 20.347 20.1842 19.4665 20.1842Z" fill="#343434"/>
<path d="M8.55608 15.3943C6.79526 15.3943 5.36279 16.8268 5.36279 18.5876C5.36279 20.3484 6.79526 21.7809 8.55608 21.7809C10.3169 21.7809 11.7494 20.3484 11.7494 18.5876C11.7494 16.8268 10.3169 15.3943 8.55608 15.3943ZM8.55608 20.1842C7.67555 20.1842 6.95944 19.4681 6.95944 18.5876C6.95944 17.707 7.67555 16.9909 8.55608 16.9909C9.43636 16.9909 10.1527 17.707 10.1527 18.5876C10.1527 19.4682 9.43661 20.1842 8.55608 20.1842Z" fill="#343434"/>
<path d="M21.6167 6.25359C21.4809 5.98403 21.205 5.81396 20.9032 5.81396H16.6987V7.41061H20.4109L22.5847 11.7343L24.0116 11.0169L21.6167 6.25359Z" fill="#343434"/>
<path d="M17.0714 17.8157H11.0308V19.4123H17.0714V17.8157Z" fill="#343434"/>
<path d="M6.16098 17.8157H3.39351C2.95255 17.8157 2.59521 18.1731 2.59521 18.614C2.59521 19.0549 2.9526 19.4123 3.39351 19.4123H6.16103C6.60199 19.4123 6.95933 19.0549 6.95933 18.614C6.95933 18.173 6.60194 17.8157 6.16098 17.8157Z" fill="#343434"/>
<path d="M25.499 12.9359L23.9287 10.9135C23.7778 10.7187 23.545 10.6048 23.2983 10.6048H17.4971V5.01656C17.4971 4.5756 17.1398 4.21826 16.6988 4.21826H3.39351C2.95255 4.21826 2.59521 4.57565 2.59521 5.01656C2.59521 5.45747 2.9526 5.81486 3.39351 5.81486H15.9005V11.4031C15.9005 11.844 16.2579 12.2014 16.6988 12.2014H22.9073L24.0699 13.699V17.8162H21.8612C21.4203 17.8162 21.063 18.1736 21.063 18.6145C21.063 19.0555 21.4203 19.4128 21.8612 19.4128H24.8682C25.3092 19.4128 25.6665 19.0554 25.6666 18.6145V13.4255C25.6666 13.2483 25.6075 13.0759 25.499 12.9359Z" fill="#343434"/>
<path d="M6.1078 13.7708H2.4355C1.99455 13.7708 1.63721 14.1281 1.63721 14.569C1.63721 15.01 1.99459 15.3673 2.4355 15.3673H6.10775C6.54871 15.3673 6.90605 15.01 6.90605 14.569C6.9061 14.1281 6.54871 13.7708 6.1078 13.7708Z" fill="#343434"/>
<path d="M7.94389 10.6304H1.13155C0.69064 10.6304 0.333252 10.9878 0.333252 11.4287C0.333252 11.8697 0.69064 12.227 1.13155 12.227H7.94389C8.38485 12.227 8.74219 11.8696 8.74219 11.4287C8.74219 10.9878 8.38485 10.6304 7.94389 10.6304Z" fill="#343434"/>
<path d="M9.24785 7.4917H2.4355C1.99455 7.4917 1.63721 7.84909 1.63721 8.29C1.63721 8.73095 1.99459 9.08829 2.4355 9.08829H9.24785C9.6888 9.08829 10.0461 8.73091 10.0461 8.29C10.0462 7.84909 9.6888 7.4917 9.24785 7.4917Z" fill="#343434"/>
</g>
<defs>
<clipPath id="clip0">
<rect width="25.3333" height="25.3333" fill="white" transform="translate(0.333252 0.333252)"/>
</clipPath>
</defs>
</svg>
