<svg width="180" height="149" viewBox="0 0 180 149" fill="none" xmlns="http://www.w3.org/2000/svg">
<path d="M1.81296 0.326172L20.8369 44.5888L34.7558 35.1519L42.8196 46.7674L44.2678 27.1811L61.1039 17.0111L1.81296 0.326172Z" fill="#636363"/>
<path d="M37.8397 33.0662L20.8369 44.5887L34.7558 35.1518L42.8197 46.7673L44.2678 27.181L17.4405 11.353L37.8397 33.0662Z" fill="#363636"/>
<path d="M43.9136 31.9821L17.4405 11.353L44.2678 27.181L43.9136 31.9821Z" fill="#3E3E3E"/>
<path d="M43.153 52.2808C43.0072 51.4135 42.8092 50.5565 42.5904 49.7202L43.8927 49.3691C44.1323 50.2468 44.3303 51.145 44.4866 52.0433L43.153 52.2808Z" fill="#FECE3E"/>
<path d="M27.4004 82.3468C25.4418 82.2126 23.5665 81.5931 21.9725 80.5503L22.7226 79.4352C24.1187 80.3541 25.7648 80.891 27.4942 81.0046L27.4004 82.3468ZM33.0055 81.2524L32.4117 80.0547C33.8181 79.3733 35.1725 78.3098 36.454 76.9056L37.4646 77.8039C36.0685 79.332 34.5683 80.4987 33.0055 81.2524ZM18.2114 76.2758C17.4509 74.7477 17.0446 73.0648 17.0446 71.4128C17.0446 71.2786 17.0446 71.1444 17.055 71.0101L17.0758 70.721L18.4198 70.814L18.4094 71.0618C18.4094 71.1857 18.399 71.2992 18.399 71.4128C18.399 72.8583 18.7532 74.3347 19.42 75.6873L18.2114 76.2758ZM70.4804 75.9764L70.4699 74.6342C72.2306 74.6238 74.0434 74.5516 75.8562 74.4173L75.9604 75.7493C74.1164 75.8938 72.2723 75.9661 70.4804 75.9764ZM65.0003 75.8009L64.1356 75.7389C62.4791 75.6047 60.9684 75.4189 59.5307 75.1711L59.7599 73.8495C61.1559 74.087 62.6249 74.2728 64.2398 74.407L65.0837 74.469L65.0003 75.8009ZM81.3988 75.1917L81.2217 73.8598C82.9616 73.6223 84.7535 73.3332 86.5455 72.9925L86.8059 74.3038C84.9827 74.6548 83.1595 74.9542 81.3988 75.1917ZM54.1756 73.8392C52.592 73.3023 51.1022 72.6518 49.7478 71.8981C49.5395 71.7845 49.3207 71.6606 49.1123 71.5367L49.8103 70.3907C50.0083 70.5042 50.2062 70.6281 50.4042 70.7314C51.6856 71.4438 53.0921 72.0633 54.6028 72.5795L54.1756 73.8392ZM40.6838 73.3023L39.517 72.6311C40.3921 71.1237 41.1423 69.513 41.7465 67.8611L43.0176 68.3154C42.382 70.0499 41.6007 71.7226 40.6838 73.3023ZM92.1401 73.1474L91.8172 71.8465C93.5049 71.4438 95.2656 70.9792 97.0472 70.4732L97.4222 71.7639C95.6199 72.2801 93.8487 72.7447 92.1401 73.1474ZM102.642 70.1842L102.225 68.9142C103.944 68.367 105.653 67.7888 107.351 67.1899L107.799 68.4496C106.09 69.0484 104.371 69.6369 102.642 70.1842ZM44.6012 68.4186C43.3614 67.5203 42.0278 66.5808 40.5797 65.7961L40.1317 65.5586L40.7464 64.3713C40.9026 64.4539 41.0693 64.5365 41.2256 64.6294C42.7467 65.4554 44.174 66.4569 45.3929 67.3448L44.6012 68.4186ZM20.3055 66.4053L19.3575 65.445C20.5452 64.2887 22.1704 63.4214 24.327 62.8019L24.7854 64.0615C22.8059 64.65 21.3265 65.4244 20.3055 66.4053ZM35.1934 63.7931C33.6619 63.4524 32.0783 63.2768 30.5155 63.2768L29.9634 63.2871L29.9321 61.9449C31.797 61.9036 33.6723 62.0791 35.4955 62.4818L35.1934 63.7931ZM44.4449 63.0084L43.1113 62.7709C43.4239 61.0363 43.5802 59.2811 43.5906 57.5259L44.945 57.5362C44.9345 59.3637 44.7678 61.2015 44.4449 63.0084Z" fill="#FECE3E"/>
<path d="M112.966 66.5601L112.487 65.3108C113.331 64.9907 114.165 64.6707 115.008 64.3506L115.498 65.5999C114.665 65.92 113.821 66.24 112.966 66.5601Z" fill="#FECE3E"/>
<path d="M155.505 99.197C154.817 99.197 154.234 98.6808 154.161 97.989C154.088 97.256 154.63 96.5952 155.38 96.5229C163.548 95.7382 171.059 91.8767 176.529 85.6508C177.019 85.0933 177.873 85.0313 178.435 85.5166C178.998 86.0019 179.061 86.8485 178.571 87.4061C172.643 94.1585 164.496 98.3401 155.64 99.1867C155.588 99.1867 155.546 99.197 155.505 99.197Z" fill="#FECE3E"/>
<path d="M139.044 98.2574L91.9735 125.763L44.9033 98.2574C44.9033 98.2367 44.9033 98.2057 44.9137 98.1851C44.9554 98.0096 47.5496 95.862 51.5086 92.6716C51.5502 92.6406 51.5815 92.6097 51.6127 92.5787C64.6149 82.1093 91.9735 60.6956 91.9735 60.6956C91.9735 60.6956 119.332 82.1093 132.334 92.5684C136.356 95.8001 139.002 97.9889 139.044 98.1748C139.044 98.1954 139.044 98.2264 139.044 98.2574Z" fill="#7A4C08"/>
<path d="M111.331 37.9187H60.5413C56.1864 37.9187 52.6546 41.4188 52.6546 45.7346V121.829C52.6546 126.145 56.1864 129.645 60.5413 129.645H124.177C128.532 129.645 132.063 126.145 132.063 121.829V58.4652L111.331 37.9187Z" fill="white"/>
<path d="M111.331 50.6496C111.331 54.9654 114.863 58.4655 119.218 58.4655H132.063L111.331 37.9087V50.6496Z" fill="#E6E8E8"/>
<path d="M84.9932 50.7734H67.4799C65.9276 50.7734 64.6669 52.0227 64.6669 53.5611V70.9276C64.6669 72.466 65.9276 73.7153 67.4799 73.7153H85.0036C86.5559 73.7153 87.8165 72.466 87.8165 70.9276V53.5611C87.8061 52.0227 86.5455 50.7734 84.9932 50.7734Z" fill="#FECE3E"/>
<path d="M108.997 80.0857H66.959C65.7088 80.0857 64.6982 81.0872 64.6982 82.3262C64.6982 83.5652 65.7088 84.5667 66.959 84.5667H108.997C110.247 84.5667 111.258 83.5652 111.258 82.3262C111.258 81.0872 110.247 80.0857 108.997 80.0857Z" fill="#D9DBDB"/>
<path d="M108.997 91.2573H66.959C65.7088 91.2573 64.6982 92.2588 64.6982 93.4978C64.6982 94.7368 65.7088 95.7383 66.959 95.7383H108.997C110.247 95.7383 111.258 94.7368 111.258 93.4978C111.258 92.2588 110.247 91.2573 108.997 91.2573Z" fill="#D9DBDB"/>
<path d="M89.9106 102.098H66.959C65.7088 102.098 64.6982 103.1 64.6982 104.339C64.6982 105.578 65.7088 106.579 66.959 106.579H89.9106C91.1608 106.579 92.1714 105.578 92.1714 104.339C92.1714 103.11 91.1608 102.098 89.9106 102.098Z" fill="#D9DBDB"/>
<path d="M139.044 98.2471V142.995C139.044 146.123 136.46 148.684 133.303 148.684H50.623C47.4662 148.684 44.9033 146.123 44.9033 142.995V98.2471L91.9735 125.752L139.044 98.2471Z" fill="#636363"/>
<path d="M137.45 146.908L107.153 116.883L91.9735 125.752L76.7835 116.873L46.4869 146.898C47.5287 147.992 48.9977 148.684 50.623 148.684H133.303C134.939 148.684 136.408 147.992 137.45 146.908Z" fill="#363636"/>
<path d="M148.556 36.8142C135.001 38.1358 124.177 49.204 123.208 62.6573C122.728 69.3581 124.645 75.5737 128.167 80.6122C129.5 82.512 129.709 84.959 128.823 87.0859L126.594 92.4135L135.731 90.0698C137.22 89.6878 138.794 89.8117 140.2 90.4105C144.43 92.2277 149.202 93.064 154.213 92.5787C167.517 91.2985 178.269 80.6535 179.561 67.479C181.269 49.8029 166.402 35.0796 148.556 36.8142Z" fill="#FECE3E"/>
<path d="M152.108 78.8673L153.661 77.3289C153.661 77.3289 152.431 74.4483 157.599 69.5853C160.683 66.6943 161.37 63.886 161.12 61.5938C160.724 57.9492 157.713 54.9653 154.036 54.5729C151.723 54.3251 148.899 55.0066 145.972 58.0627C141.065 63.1942 138.158 61.9655 138.158 61.9655L136.606 63.5039L152.108 78.8673Z" fill="white"/>
<path d="M140.117 69.4512C138.887 71.1135 139.023 73.4572 140.544 74.9646C142.065 76.4721 144.43 76.6063 146.107 75.388L140.117 69.4512Z" fill="white"/>
<path d="M162.214 56.4419L161.245 57.4021C160.495 56.2147 159.464 55.2029 158.265 54.4595L159.245 53.4889C160.068 52.6733 161.401 52.6733 162.224 53.4889C163.037 54.3046 163.037 55.6262 162.214 56.4419Z" fill="white"/>
<path d="M150.65 36.7005C160.724 39.6844 168.069 48.9355 168.069 59.8902C168.069 73.2609 157.13 84.102 143.638 84.102C136.533 84.102 130.146 81.0768 125.687 76.2757C126.396 77.8038 127.219 79.2596 128.167 80.6225C129.5 82.5223 129.709 84.9693 128.823 87.0962L126.594 92.4238L135.731 90.0801C137.22 89.698 138.794 89.8219 140.2 90.4208C144.43 92.2379 149.202 93.0743 154.213 92.589C167.517 91.3087 178.269 80.6741 179.561 67.4893C181.207 50.5049 167.548 36.2566 150.65 36.7005Z" fill="#FECE3E"/>
<path d="M3.41739 13.4594L9.59548 27.5012C9.90803 28.2136 9.57464 29.0499 8.85577 29.3597L8.63699 29.4526C7.9077 29.7624 7.06382 29.432 6.76168 28.7092L0.80238 14.5642C0.489829 13.8208 0.86489 12.9742 1.62543 12.6954C2.33388 12.4373 3.12567 12.7677 3.41739 13.4594Z" fill="#636363"/>
</svg>
