<svg width="20" height="21" viewBox="0 0 20 21" fill="none" xmlns="http://www.w3.org/2000/svg">
<path d="M17.0201 12.9537C16.0422 12.1342 14.9667 12.1048 14.0702 12.8718C13.4636 13.3876 13.1596 13.6447 12.5495 14.1567C12.5098 14.186 12.4606 14.2001 12.4111 14.1965C12.3616 14.1928 12.3151 14.1717 12.2803 14.1369C11.3224 13.3258 7.31851 9.39745 6.491 8.45677C6.45562 8.42259 6.43408 8.37698 6.43037 8.3284C6.42666 8.27982 6.44103 8.23157 6.47083 8.1926C6.99283 7.59432 7.25472 7.29577 7.77934 6.70175C8.56215 5.82089 8.53221 4.76558 7.69712 3.80639C7.11049 3.12148 6.48759 2.46728 5.831 1.84648C4.54721 0.61034 3.18814 0.56202 2.00373 1.70971C1.35803 2.37128 0.828877 3.13352 0.437894 3.9653C-1.55146 8.1216 3.78219 13.3551 5.53506 15.0749C7.01909 16.531 11.0705 20.5057 14.8491 20.5057C15.5431 20.5107 16.2295 20.3639 16.8584 20.0761C17.7061 19.6923 18.4829 19.1731 19.1572 18.5397C20.3271 17.3777 20.2776 16.044 19.0179 14.7847C18.385 14.1405 17.7182 13.5293 17.0201 12.9537ZM18.367 17.7738C17.7841 18.3151 17.1151 18.7595 16.3863 19.0895C14.0435 20.169 10.6569 18.5587 6.32046 14.3043C1.98442 10.0495 0.343515 6.72677 1.44331 4.4285C1.77959 3.71343 2.23257 3.05701 2.78437 2.4851C2.91094 2.33846 3.06593 2.21795 3.24034 2.13056C3.41476 2.04317 3.60514 1.99064 3.80041 1.97601C4.15038 1.97601 4.56044 2.15014 5.05317 2.62453C5.68662 3.22277 6.28723 3.85362 6.85246 4.5144C7.46517 5.21804 7.22217 5.67018 6.94076 5.98683C6.41332 6.58413 6.15058 6.88355 5.62661 7.48417C5.42323 7.72073 5.31363 8.02133 5.31793 8.33079C5.32224 8.64025 5.44016 8.9378 5.65004 9.16883C6.51963 10.1573 10.548 14.1097 11.5545 14.962C11.79 15.1681 12.0933 15.2839 12.4088 15.2881C12.7243 15.2923 13.0308 15.1846 13.2718 14.9848C13.8839 14.471 14.1891 14.2131 14.799 13.6944C15.1203 13.4199 15.5807 13.1808 16.2985 13.7823C16.972 14.337 17.615 14.9264 18.2249 15.5479L18.2251 15.548C19.2715 16.5942 18.884 17.2603 18.367 17.7738Z" fill="black"/>
</svg>
