<svg width="325" height="286" viewBox="0 0 325 286" fill="none" xmlns="http://www.w3.org/2000/svg">
<g clip-path="url(#clip0)">
<path d="M120.492 285.683C112.609 286.943 103.83 284.422 98.3198 278.846L24.2294 203.852C17.8024 197.346 18.2202 187.322 25.2596 181.257C32.4902 175.03 47.5122 173.878 54.4475 180.599L134.67 258.355C142.637 266.078 141.32 276.842 131.889 282.169C129.606 283.464 123.117 285.263 120.492 285.683Z" fill="#363636"/>
<path style="mix-blend-mode:multiply" opacity="0.3" d="M25.2676 181.254C32.4982 175.027 47.5202 173.874 54.4555 180.595L127.502 251.396C119.765 251.655 111.513 253.886 101.38 250.039C84.8784 243.772 86.2188 229.756 72.0449 221.702C65.6671 218.078 55.5623 215.372 39.0076 218.806L24.2294 203.852C17.8069 197.347 18.2247 187.328 25.2676 181.254Z" fill="url(#paint0_linear)"/>
<path d="M32.1907 220.434C44.5342 215.983 50.8075 201.999 46.2026 189.201C41.5977 176.403 27.8584 169.636 15.515 174.088C3.17163 178.539 -3.1017 192.523 1.50317 205.321C6.10804 218.119 19.8473 224.886 32.1907 220.434Z" fill="#2F2D35"/>
<path d="M14.4441 175.121C14.7955 192.354 20.1992 207.369 30.898 220.844L180.201 231.387L123.891 69.6586L14.4441 175.121Z" fill="#363636"/>
<path style="mix-blend-mode:multiply" opacity="0.3" d="M121.773 197.108C106.48 195.897 95.0656 176.636 80.4774 181.186C69.5279 184.601 70.6576 197.688 60.0893 199.884C49.6641 202.053 43.4362 189.863 31.2791 189.42C25.912 189.224 21.2705 191.444 17.3147 194.856C19.9542 204.104 24.4492 212.723 30.8968 220.844L180.199 231.387L151.026 179.867C139.045 193.925 129.439 197.715 121.773 197.108Z" fill="url(#paint1_linear)"/>
<path d="M181.825 230.693C215.29 218.625 229.449 172.794 213.449 128.329C197.45 83.8628 157.352 57.5996 123.887 69.6681C90.4228 81.7367 76.264 127.567 92.263 172.033C108.262 216.498 148.36 242.762 181.825 230.693Z" fill="#D8DEE8"/>
<path d="M180.852 227.95C187.956 225.388 194.254 220.971 199.57 214.823C204.979 208.565 209.13 200.843 211.903 191.861C217.734 172.986 216.762 150.968 209.167 129.865C201.573 108.763 188.295 91.1804 171.781 80.3604C163.924 75.2151 155.806 71.9137 147.653 70.5488C139.641 69.2069 131.972 69.8258 124.875 72.3824C117.778 74.939 111.473 79.3623 106.157 85.5103C100.746 91.7683 96.5971 99.4908 93.8226 108.473C91.3857 116.365 90.1369 124.806 90.0636 133.501C89.9629 145.6 105.372 152.638 109.79 164.916C114.49 177.974 108.133 195.238 116.603 204.829C121.823 210.74 127.65 215.846 133.946 219.971C141.802 225.116 149.919 228.416 158.073 229.782C166.083 231.132 173.747 230.512 180.852 227.95Z" fill="#2F2D35"/>
<path d="M158.229 149.428C165.57 169.826 154.006 192.295 132.704 199.511C111.734 206.616 118.5 209.5 100.5 172C86 126.685 85.7301 134.353 106.498 126.685C127.589 118.899 150.889 129.03 158.229 149.428Z" fill="#FECE3E"/>
<path style="mix-blend-mode:multiply" opacity="0.3" d="M154.768 150.302C160.219 165.449 156.073 180.532 145.657 183.942C135.402 187.3 122.909 178.046 117.614 163.321C112.319 148.596 116.097 133.641 126.198 129.86C136.46 126.029 149.317 135.155 154.768 150.302Z" fill="url(#paint2_linear)"/>
<path d="M173.232 131.23C173.232 131.23 183.33 123.177 188.434 111.833C177.497 101.952 170.243 89.0845 168.553 74.6605C164.5 40.0737 193.664 7.22408 235.463 1.02682C278.221 -5.31254 318.054 18.3489 324.191 54.5011C324.191 54.5137 324.191 54.5263 324.191 54.5389C324.267 54.987 324.337 55.4385 324.404 55.8911L324.431 56.0882C324.494 56.5329 324.552 56.9775 324.605 57.4255C324.845 59.4694 324.974 61.5248 324.992 63.5827C325 64.4544 324.988 65.3234 324.954 66.1897C324.888 67.9224 324.744 69.6394 324.521 71.3407C324.41 72.191 324.28 73.0371 324.131 73.879C324.032 74.4405 323.924 74.9997 323.808 75.5566C321.086 88.6468 313.808 100.573 303.364 110.06C303.142 110.262 302.919 110.462 302.694 110.661C299.021 113.91 295.059 116.814 290.856 119.337C290.588 119.498 290.321 119.657 290.055 119.815C288.168 120.922 286.225 121.963 284.225 122.938C283.369 123.355 282.503 123.759 281.627 124.15C281.043 124.412 280.455 124.667 279.863 124.916C278.973 125.289 278.075 125.65 277.17 125.996C276.565 126.226 275.957 126.451 275.345 126.673C267.429 129.493 259.169 131.228 250.788 131.829C250.15 131.875 249.512 131.913 248.876 131.944L248.32 131.968C247.863 131.99 247.413 132.01 246.961 132.024C246.76 132.031 246.56 132.034 246.359 132.039C245.919 132.05 245.479 132.061 245.042 132.067C244.853 132.067 244.667 132.067 244.479 132.067C244.021 132.067 243.569 132.067 243.115 132.067L242.632 132.06C242.145 132.053 241.66 132.044 241.176 132.029L240.806 132.017C240.272 131.999 239.741 131.976 239.213 131.95L238.996 131.938C238.4 131.908 237.805 131.869 237.213 131.824H237.203C232.299 131.474 227.432 130.721 222.652 129.572C222.658 129.566 222.663 129.56 222.667 129.553C219.906 128.882 217.213 128.084 214.588 127.158C209.157 132.565 194.845 143.006 173.232 131.23Z" fill="url(#paint3_linear)"/>
<path d="M162.935 75.0788C166.988 109.667 203.006 135.318 245.173 132.242C289.453 129.011 323.422 95.6359 318.993 57.845C314.565 20.054 273.74 -5.06732 229.845 1.44507C188.045 7.64348 158.882 40.4919 162.935 75.0788Z" fill="url(#paint4_linear)"/>
<path d="M162.935 75.0788C166.988 109.667 203.006 135.318 245.173 132.242C289.453 129.011 323.422 95.6359 318.993 57.845C314.565 20.054 273.74 -5.06732 229.845 1.44507C188.045 7.64348 158.882 40.4919 162.935 75.0788Z" fill="white"/>
<path d="M211.419 124.793C211.419 124.793 195.664 146.932 167.613 131.65C167.613 131.65 186.831 116.329 185.644 98.1765L211.419 124.793Z" fill="white"/>
<path d="M231.417 100.862C231.315 97.9075 232.253 95.4456 234.234 93.4769C236.214 91.5082 238.732 90.4715 241.788 90.3668C244.846 90.2614 247.43 91.1224 249.54 92.9498C251.649 94.7772 252.756 97.1687 252.859 100.125C252.96 103.081 252.021 105.543 250.042 107.511C248.063 109.479 245.544 110.516 242.488 110.621C239.43 110.725 236.846 109.864 234.737 108.038C232.628 106.213 231.521 103.821 231.417 100.862ZM249.466 81.6427L233.816 82.1825L229.302 22.6427L249.883 21.9333L249.466 81.6427Z" fill="#363636"/>
<g style="mix-blend-mode:multiply" opacity="0.3">
<path style="mix-blend-mode:multiply" opacity="0.3" d="M224.453 117.131C231.476 97.1577 220.02 80.1725 231.092 66.4327C242.506 52.2722 260.949 62.2007 278.438 49.538C285.299 44.5703 292.605 35.695 296.859 18.6331C308.992 28.6669 317.163 42.2338 318.992 57.845C323.42 95.6359 289.451 129.008 245.172 132.242C235.328 132.959 225.841 132.118 217.033 129.984C220.732 125.613 223.015 121.221 224.453 117.131Z" fill="url(#paint5_linear)"/>
</g>
</g>
<defs>
<linearGradient id="paint0_linear" x1="-295151" y1="145956" x2="-325611" y2="196767" gradientUnits="userSpaceOnUse">
<stop stop-color="#311944"/>
<stop offset="1" stop-color="#893976"/>
</linearGradient>
<linearGradient id="paint1_linear" x1="36.1512" y1="106.439" x2="160.401" y2="320.899" gradientUnits="userSpaceOnUse">
<stop stop-color="#AA80F9"/>
<stop offset="1" stop-color="#6165D7"/>
</linearGradient>
<linearGradient id="paint2_linear" x1="-67071.5" y1="98575.5" x2="-34317.9" y2="148417" gradientUnits="userSpaceOnUse">
<stop stop-color="#FF9085"/>
<stop offset="1" stop-color="#FB6FBB"/>
</linearGradient>
<linearGradient id="paint3_linear" x1="204918" y1="-176055" x2="540423" y2="507953" gradientUnits="userSpaceOnUse">
<stop stop-color="#311944"/>
<stop offset="1" stop-color="#893976"/>
</linearGradient>
<linearGradient id="paint4_linear" x1="432766" y1="60611.7" x2="351749" y2="317487" gradientUnits="userSpaceOnUse">
<stop stop-color="#FF9085"/>
<stop offset="1" stop-color="#FB6FBB"/>
</linearGradient>
<linearGradient id="paint5_linear" x1="312155" y1="70732.6" x2="225484" y2="284321" gradientUnits="userSpaceOnUse">
<stop stop-color="#FF9085"/>
<stop offset="1" stop-color="#FB6FBB"/>
</linearGradient>
<clipPath id="clip0">
<rect width="325" height="286" fill="white"/>
</clipPath>
</defs>
</svg>
