<svg width="391" height="369" viewBox="0 0 391 369" fill="none" xmlns="http://www.w3.org/2000/svg">
<path d="M111.311 37.0076H66.4672V50.2024H111.311V37.0076Z" fill="#EEF6FF"/>
<path d="M111.311 57.319H66.4672V70.5138H111.311V57.319Z" fill="#EEF6FF"/>
<path d="M111.311 78.0553H66.4672V91.2501H111.311V78.0553Z" fill="#EEF6FF"/>
<path d="M111.311 99.119H66.4672V112.314H111.311V99.119Z" fill="#EEF6FF"/>
<path d="M111.311 119.444H66.4672V132.639H111.311V119.444Z" fill="#EEF6FF"/>
<path d="M256.327 78.333H255.215V94.6849H256.327V78.333Z" fill="#DFEBFA"/>
<path d="M55.6626 31.1765H54.9402V37.0075H55.6626V31.1765Z" fill="#DFEBFA"/>
<path d="M70.9429 31.1765H70.2234V37.0075H70.9429V31.1765Z" fill="#DFEBFA"/>
<path d="M105.982 31.1765H105.263V37.0075H105.982V31.1765Z" fill="#DFEBFA"/>
<path d="M92.2826 31.1765H91.563V37.0075H92.2826V31.1765Z" fill="#DFEBFA"/>
<path d="M244.219 2.43225H74.3714C63.6982 2.43225 55.0459 11.0797 55.0459 21.7468V346.477C55.0459 357.144 63.6982 365.791 74.3714 365.791H244.219C254.892 365.791 263.545 357.144 263.545 346.477V21.7468C263.545 11.0797 254.892 2.43225 244.219 2.43225Z" fill="white"/>
<path d="M244.219 368.213H74.3713C68.6044 368.206 63.0755 365.914 58.9975 361.839C54.9194 357.763 52.625 352.238 52.6177 346.474V21.7386C52.625 15.975 54.9194 10.4495 58.9975 6.37424C63.0755 2.29897 68.6044 0.00661262 74.3713 0H244.216C249.984 0.00587923 255.513 2.29799 259.591 6.37342C263.669 10.4489 265.963 15.9747 265.97 21.7386V346.474C265.963 352.238 263.67 357.763 259.592 361.838C255.514 365.914 249.986 368.206 244.219 368.213ZM74.3713 4.85364C69.8922 4.85952 65.5981 6.64026 62.4306 9.80546C59.2631 12.9707 57.4807 17.262 57.4741 21.7386V346.474C57.4792 350.952 59.2614 355.245 62.4297 358.412C65.5979 361.578 69.8935 363.36 74.3741 363.365H244.219C248.7 363.36 252.995 361.578 256.164 358.412C259.332 355.245 261.114 350.952 261.119 346.474V21.7386C261.114 17.2606 259.332 12.9674 256.164 9.8009C252.995 6.63442 248.7 4.85323 244.219 4.84809L74.3713 4.85364Z" fill="#363636"/>
<path d="M134.476 43.9548H64.7197V73.5431H134.476V43.9548Z" fill="#DBDCDD"/>
<path d="M134.476 83.2782H64.7197V112.866H134.476V83.2782Z" fill="#DBDCDD"/>
<path d="M183.337 113.269V43.5521H151.492V113.269H183.337Z" fill="#DBDCDD"/>
<path d="M159.531 220.232C164.421 202.587 154.072 184.322 136.418 179.435C118.764 174.549 100.488 184.891 95.5987 202.536C90.7094 220.18 101.058 238.445 118.712 243.332C136.366 248.219 154.642 237.876 159.531 220.232Z" fill="#DBDCDD"/>
<path d="M254.752 211.4H64.7197V216.548H254.752V211.4Z" fill="#DBDCDD"/>
<path d="M249.601 121.033H64.7197V126.181H249.601V121.033Z" fill="#DBDCDD"/>
<path d="M132 301.989V125.956H126.85L126.85 301.989H132Z" fill="#DBDCDD"/>
<path d="M254.752 216.406V40.3729H249.601V216.406H254.752Z" fill="#DBDCDD"/>
<path d="M196.62 301.992L196.62 43.9548H191.469L191.469 301.992H196.62Z" fill="#DBDCDD"/>
<path d="M147.892 221.548C152.334 210.08 146.633 197.185 135.159 192.746C123.684 188.307 110.782 194.004 106.34 205.472C101.899 216.94 107.6 229.835 119.074 234.275C130.548 238.714 143.451 233.016 147.892 221.548Z" fill="white"/>
<path d="M164.233 132.484H138.754V172.026H164.233V132.484Z" fill="#DBDCDD"/>
<path d="M89.5544 162.241H64.7197V190.658H89.5544V162.241Z" fill="#DBDCDD"/>
<path d="M114.692 132.484H64.7197V157.305H114.692V132.484Z" fill="#DBDCDD"/>
<path d="M186.354 132.484H168.534V157.066H186.354V132.484Z" fill="#DBDCDD"/>
<path d="M186.354 162.241H168.534V203.32H186.354V162.241Z" fill="#DBDCDD"/>
<path d="M186.354 221.421H168.534V245.742H186.354V221.421Z" fill="#DBDCDD"/>
<path d="M222.446 132.484H208.066V203.32H222.446V132.484Z" fill="#DBDCDD"/>
<path d="M244.933 132.484H227.111V203.32H244.933V132.484Z" fill="#DBDCDD"/>
<path d="M243.5 42.994H218.137V113.83H243.5V42.994Z" fill="#DBDCDD"/>
<path d="M254.752 224.011H205.335V301.989H254.752V224.011Z" fill="#DBDCDD"/>
<path d="M186.354 272.498H137.173V301.989H186.354V272.498Z" fill="#DBDCDD"/>
<path d="M186.354 251.303H137.173V266.936H186.354V251.303Z" fill="#DBDCDD"/>
<path d="M108.897 251.303H64.7197V301.989H108.897V251.303Z" fill="#DBDCDD"/>
<path d="M83.3201 219.302H64.7197V246.614H83.3201V219.302Z" fill="#DBDCDD"/>
<path d="M230.298 344.156C224.838 344.147 219.475 342.724 214.73 340.026C209.985 337.328 206.021 333.447 203.224 328.762C199.288 322.262 193.736 316.891 187.106 313.174C180.476 309.457 172.996 307.519 165.395 307.551H64.7197V345.164C64.7197 351.569 70.0262 356.759 76.5689 356.759H245.169C250.448 356.759 254.752 352.561 254.752 347.382V344.156H230.298Z" fill="#363636"/>
<path d="M216.976 323.6C216.975 320.931 217.767 318.321 219.25 316.102C220.733 313.882 222.842 312.152 225.309 311.13C227.776 310.109 230.491 309.841 233.11 310.361C235.73 310.882 238.136 312.167 240.024 314.054C241.913 315.941 243.199 318.346 243.721 320.963C244.242 323.581 243.975 326.295 242.953 328.761C241.931 331.227 240.2 333.334 237.98 334.817C235.759 336.3 233.149 337.092 230.478 337.092C226.897 337.092 223.463 335.67 220.931 333.14C218.399 330.61 216.976 327.178 216.976 323.6Z" fill="#363636"/>
<path d="M222.521 324.222L235.554 317.711L231.539 332.066L228.33 326.576L222.521 324.222Z" fill="white"/>
<path d="M179.025 335.084H105.138V338.241H179.025V335.084Z" fill="white"/>
<path d="M105.138 335.084H71.4597V338.241H105.138V335.084Z" fill="#FECE3E"/>
<path d="M99.4949 325.799L124.71 336.895L98.9587 348.387L103.076 337.095L99.4949 325.799Z" fill="#FECE3E"/>
<path d="M183.54 336.661C183.539 335.623 183.847 334.607 184.424 333.743C185.001 332.88 185.821 332.206 186.781 331.808C187.741 331.41 188.797 331.306 189.817 331.508C190.836 331.711 191.772 332.211 192.507 332.945C193.242 333.679 193.743 334.615 193.946 335.633C194.149 336.652 194.045 337.708 193.647 338.667C193.25 339.627 192.577 340.447 191.712 341.024C190.848 341.601 189.833 341.909 188.793 341.909C187.401 341.909 186.065 341.356 185.079 340.372C184.094 339.388 183.54 338.053 183.54 336.661Z" fill="white"/>
<path d="M73.7489 4.99243H244.705C249.053 4.99243 253.222 6.71843 256.296 9.79073C259.37 12.863 261.097 17.03 261.097 21.3748V31.9262H57.5323V21.1999C57.5323 16.9022 59.2406 12.7804 62.2813 9.74146C65.322 6.70249 69.446 4.99521 73.7462 4.99521L73.7489 4.99243Z" fill="#363636"/>
<path d="M28.6909 122.27C12.8549 122.27 0 135.737 0 152.35C0 168.963 28.6909 201.639 28.6909 201.639C28.6909 201.639 57.3819 168.963 57.3819 152.35C57.3819 135.737 44.538 122.27 28.6909 122.27ZM28.6909 164.628C25.8336 164.628 23.0405 163.781 20.6647 162.195C18.2889 160.608 16.4372 158.353 15.3438 155.715C14.2503 153.077 13.9642 150.174 14.5217 147.373C15.0791 144.572 16.455 141.999 18.4755 139.98C20.4959 137.961 23.0701 136.585 25.8725 136.028C28.6749 135.471 31.5797 135.757 34.2195 136.85C36.8593 137.943 39.1156 139.793 40.7031 142.168C42.2905 144.542 43.1378 147.334 43.1378 150.19C43.1378 152.086 42.7641 153.963 42.0381 155.715C41.3121 157.467 40.2479 159.059 38.9064 160.399C37.5649 161.74 35.9723 162.804 34.2195 163.529C32.4667 164.255 30.5881 164.628 28.6909 164.628Z" fill="#363636"/>
<path d="M194.783 77.9441C185.54 77.9441 178.047 85.7993 178.047 95.4872C178.047 105.175 194.783 124.24 194.783 124.24C194.783 124.24 211.519 105.178 211.519 95.4872C211.519 85.7965 204.026 77.9441 194.783 77.9441ZM194.783 102.657C193.117 102.657 191.487 102.163 190.102 101.237C188.716 100.312 187.636 98.9966 186.998 97.4577C186.36 95.9189 186.193 94.2255 186.519 92.5919C186.844 90.9582 187.646 89.4576 188.825 88.2799C190.003 87.1021 191.505 86.3 193.139 85.975C194.774 85.6501 196.468 85.8169 198.008 86.4543C199.547 87.0917 200.863 88.1711 201.789 89.5561C202.715 90.941 203.209 92.5692 203.209 94.2349C203.208 96.4675 202.32 98.6081 200.739 100.186C199.159 101.764 197.017 102.651 194.783 102.651V102.657Z" fill="#363636"/>
<path d="M196.614 216.603H154.715L154.757 214.743C154.757 214.668 154.879 207.207 151.731 199.804C147.636 190.166 140.113 185.113 129.369 184.78C120.634 184.502 113.747 186.859 108.905 191.771C100.312 200.49 100.848 214.557 100.848 214.698L100.937 216.6H26.1548L23.8265 214.698L27.3855 218.92L26.1548 216.6L23.8265 214.698L27.3855 212.966H97.2222C97.3528 208.49 98.4919 197.169 106.293 189.239C111.877 183.563 119.679 180.842 129.48 181.145C144.841 181.623 151.906 190.841 155.129 198.491C157.596 204.358 158.207 210.106 158.355 212.966H192.963V140.025H196.614V216.603Z" fill="#363636"/>
<path d="M187.212 135.955C187.213 134.458 187.657 132.996 188.49 131.752C189.322 130.508 190.504 129.538 191.888 128.966C193.271 128.394 194.793 128.244 196.262 128.537C197.73 128.829 199.079 129.55 200.137 130.608C201.196 131.666 201.917 133.015 202.209 134.482C202.5 135.95 202.35 137.471 201.777 138.854C201.204 140.236 200.234 141.418 198.989 142.249C197.744 143.08 196.28 143.524 194.783 143.524C193.789 143.524 192.804 143.328 191.885 142.948C190.967 142.567 190.132 142.01 189.429 141.307C188.726 140.604 188.168 139.769 187.788 138.851C187.408 137.933 187.212 136.948 187.212 135.955Z" fill="white"/>
<path d="M194.783 144.937C193.006 144.937 191.268 144.41 189.79 143.423C188.312 142.436 187.16 141.033 186.48 139.392C185.799 137.751 185.621 135.945 185.968 134.202C186.315 132.46 187.171 130.859 188.428 129.603C189.685 128.347 191.286 127.491 193.03 127.145C194.773 126.798 196.58 126.976 198.223 127.656C199.865 128.336 201.269 129.487 202.256 130.964C203.244 132.441 203.771 134.178 203.771 135.955C203.769 138.336 202.821 140.62 201.136 142.304C199.451 143.988 197.166 144.935 194.783 144.937ZM194.783 129.801C193.566 129.801 192.375 130.162 191.363 130.838C190.35 131.514 189.561 132.475 189.095 133.6C188.629 134.724 188.507 135.961 188.745 137.155C188.982 138.349 189.569 139.445 190.43 140.305C191.291 141.166 192.388 141.752 193.582 141.989C194.776 142.227 196.014 142.105 197.139 141.639C198.264 141.174 199.226 140.385 199.902 139.373C200.579 138.361 200.94 137.171 200.94 135.955C200.938 134.323 200.289 132.759 199.135 131.605C197.981 130.452 196.416 129.803 194.783 129.801Z" fill="#363636"/>
<path d="M28.6276 222.548C32.8088 222.548 36.1983 219.16 36.1983 214.981C36.1983 210.803 32.8088 207.415 28.6276 207.415C24.4464 207.415 21.0569 210.803 21.0569 214.981C21.0569 219.16 24.4464 222.548 28.6276 222.548Z" fill="white"/>
<path d="M28.6276 223.964C26.8501 223.964 25.1124 223.437 23.6344 222.45C22.1564 221.463 21.0044 220.06 20.3242 218.419C19.6439 216.777 19.4659 214.971 19.8127 213.229C20.1595 211.486 21.0155 209.886 22.2724 208.63C23.5294 207.373 25.1308 206.518 26.8742 206.171C28.6177 205.825 30.4248 206.003 32.0671 206.683C33.7093 207.362 35.113 208.514 36.1006 209.991C37.0881 211.468 37.6152 213.205 37.6152 214.981C37.6123 217.363 36.6645 219.646 34.9796 221.33C33.2947 223.014 31.0104 223.961 28.6276 223.964ZM28.6276 208.828C27.41 208.828 26.2197 209.189 25.2072 209.865C24.1948 210.541 23.4057 211.502 22.9397 212.627C22.4737 213.751 22.3518 214.988 22.5893 216.182C22.8269 217.375 23.4133 218.472 24.2743 219.332C25.1353 220.193 26.2323 220.779 27.4265 221.016C28.6208 221.254 29.8587 221.132 30.9837 220.666C32.1086 220.2 33.0702 219.412 33.7466 218.4C34.4231 217.388 34.7842 216.198 34.7842 214.981C34.7827 213.35 34.1336 211.786 32.9794 210.632C31.8251 209.478 30.26 208.83 28.6276 208.828Z" fill="#363636"/>
<path d="M91.9298 213.971C91.9304 212.475 92.3749 211.012 93.2071 209.768C94.0393 208.524 95.2219 207.555 96.6053 206.982C97.9887 206.41 99.5108 206.261 100.979 206.553C102.448 206.845 103.796 207.566 104.855 208.624C105.913 209.683 106.634 211.031 106.926 212.499C107.218 213.966 107.068 215.487 106.495 216.87C105.922 218.252 104.951 219.434 103.706 220.265C102.461 221.096 100.998 221.54 99.5006 221.54C98.5061 221.54 97.5214 221.344 96.6027 220.964C95.684 220.583 94.8493 220.026 94.1463 219.323C93.4432 218.62 92.8856 217.786 92.5053 216.867C92.125 215.949 91.9294 214.965 91.9298 213.971Z" fill="white"/>
<path d="M99.5005 222.954C97.7229 222.954 95.9852 222.427 94.5072 221.44C93.0292 220.453 91.8772 219.05 91.197 217.408C90.5167 215.767 90.3387 213.961 90.6855 212.219C91.0323 210.476 91.8883 208.876 93.1453 207.619C94.4022 206.363 96.0037 205.508 97.7471 205.161C99.4905 204.814 101.298 204.992 102.94 205.672C104.582 206.352 105.986 207.503 106.974 208.981C107.961 210.458 108.488 212.194 108.488 213.971C108.486 216.353 107.538 218.636 105.853 220.32C104.168 222.004 101.884 222.951 99.5005 222.954ZM99.5005 207.818C98.2821 207.817 97.0908 208.178 96.0775 208.854C95.0642 209.53 94.2742 210.492 93.8077 211.617C93.3412 212.742 93.219 213.98 93.4566 215.174C93.6941 216.368 94.2808 217.466 95.1424 218.327C96.0039 219.188 97.1017 219.774 98.2968 220.011C99.4918 220.249 100.731 220.127 101.856 219.661C102.982 219.194 103.944 218.405 104.62 217.392C105.297 216.379 105.658 215.189 105.657 213.971C105.656 212.34 105.007 210.775 103.852 209.622C102.698 208.468 101.133 207.819 99.5005 207.818Z" fill="#363636"/>
<path d="M85.8456 24.5153L83.3452 26.3007L80.8447 24.5348C81.1251 24.1327 81.4982 23.8039 81.9326 23.5762C82.3669 23.3486 82.8497 23.2287 83.3401 23.2268C83.8305 23.2249 84.3142 23.341 84.7503 23.5653C85.1864 23.7895 85.5621 24.1154 85.8456 24.5153Z" fill="white"/>
<path d="M83.356 18.8815C82.1685 18.8801 80.9981 19.1641 79.9435 19.7097C78.8889 20.2553 77.9811 21.0465 77.2966 22.0163L78.8775 23.127C79.3809 22.4128 80.0482 21.8294 80.8234 21.4257C81.5987 21.0219 82.4594 20.8096 83.3335 20.8063C84.2077 20.803 85.07 21.009 85.8482 21.4069C86.6264 21.8049 87.298 22.3832 87.8068 23.0937L89.3821 21.9664C88.695 21.0108 87.79 20.2326 86.7421 19.6961C85.6941 19.1597 84.5334 18.8804 83.356 18.8815Z" fill="white"/>
<path d="M83.3561 10.6069C80.8406 10.6071 78.3622 11.2128 76.1304 12.3728C73.8987 13.5327 71.9792 15.2129 70.5345 17.271L72.1154 18.3816C73.3792 16.5878 75.0545 15.1226 77.0011 14.1085C78.9477 13.0944 81.1089 12.561 83.304 12.5528C85.4992 12.5447 87.6644 13.062 89.6184 14.0616C91.5725 15.0612 93.2586 16.514 94.5358 18.2983L96.1055 17.171C94.6566 15.1416 92.7438 13.4873 90.5263 12.3456C88.3088 11.2039 85.8506 10.6078 83.3561 10.6069Z" fill="white"/>
<path d="M83.3562 15.1357C81.5657 15.1352 79.8011 15.5635 78.2103 16.3848C76.6195 17.206 75.2488 18.3964 74.213 19.8561L75.7938 20.9668C76.6489 19.767 77.7776 18.7878 79.0864 18.1104C80.3952 17.433 81.8465 17.0767 83.3204 17.071C84.7943 17.0653 86.2483 17.4103 87.5623 18.0776C88.8763 18.7449 90.0125 19.7153 90.8769 20.9085L92.4466 19.7978C91.4099 18.3559 90.0448 17.1812 88.4642 16.3706C86.8836 15.56 85.1327 15.1367 83.3562 15.1357Z" fill="white"/>
<path d="M185.687 94.8986C185.687 93.1006 186.221 91.343 187.22 89.848C188.22 88.353 189.64 87.1878 191.302 86.4997C192.964 85.8117 194.793 85.6316 196.558 85.9824C198.322 86.3332 199.943 87.199 201.215 88.4704C202.487 89.7418 203.354 91.3616 203.704 93.1251C204.055 94.8885 203.875 96.7164 203.187 98.3775C202.498 100.039 201.333 101.458 199.837 102.457C198.341 103.456 196.582 103.989 194.783 103.989C192.371 103.989 190.057 103.032 188.351 101.327C186.646 99.6219 185.687 97.3096 185.687 94.8986Z" fill="white"/>
<path d="M384.202 150.915C383.024 154.089 380.977 157.77 378.829 158.69C376.395 159.725 375.378 161.189 375.378 161.189L373.414 160.047L371.067 158.684C371.067 158.684 371.122 158.423 371.236 157.998C371.35 157.573 371.514 156.987 371.764 156.332C371.976 156.032 372.111 155.686 372.16 155.322C372.208 154.959 372.168 154.589 372.042 154.244C371.603 153.083 371.689 151.287 372.442 150.193C373.195 149.099 373.923 146.405 374.387 146.483C375.484 146.672 373.848 150.371 374.317 151.065C374.414 151.248 374.577 151.388 374.773 151.455C374.969 151.523 375.184 151.512 375.373 151.426H375.39C378.471 150.073 382.207 142.776 383.86 143.759C384.469 144.123 384.705 149.565 384.202 150.915Z" fill="#FFB27D"/>
<path d="M373.547 155.335L377.406 158.045C377.537 158.134 377.697 158.169 377.853 158.141C378.009 158.114 378.148 158.027 378.24 157.898L388.125 143.84C388.213 143.709 388.247 143.549 388.22 143.394C388.192 143.238 388.105 143.099 387.978 143.007L384.127 140.289C383.996 140.199 383.836 140.165 383.68 140.192C383.524 140.22 383.386 140.307 383.293 140.436L373.409 154.494C373.317 154.624 373.28 154.786 373.306 154.943C373.332 155.1 373.419 155.241 373.547 155.335Z" fill="#505050"/>
<path d="M377.076 157.815L379.34 159.403C379.44 159.473 379.564 159.501 379.684 159.48C379.804 159.459 379.911 159.392 379.982 159.292L390.034 145.009C390.069 144.96 390.094 144.904 390.107 144.845C390.121 144.786 390.122 144.725 390.112 144.665C390.102 144.605 390.079 144.548 390.047 144.497C390.014 144.446 389.972 144.402 389.922 144.368L387.661 142.779C387.561 142.709 387.437 142.681 387.317 142.702C387.197 142.723 387.09 142.791 387.019 142.89L376.968 157.185C376.901 157.284 376.875 157.404 376.896 157.521C376.916 157.639 376.98 157.744 377.076 157.815Z" fill="#464646"/>
<path d="M318.191 135.163C318.191 135.163 337.825 169.391 344.948 175.702L371.064 156.241C371.064 156.241 374.853 157.401 376.515 161.202C376.515 161.202 360.654 193.498 345.037 194.867C329.421 196.236 307.503 156.16 307.503 156.16L318.191 135.163Z" fill="#464646"/>
<path d="M273.758 367.957H262.415C260.987 367.179 259.715 365.408 259.312 362.762C258.756 359.108 254.661 357.117 253.775 354.126C252.888 351.136 257.428 346.937 257.428 346.937L258.189 345.957L258.978 344.944L266.507 346.715C266.507 346.715 266.696 348.509 266.807 350.792C266.906 352.53 266.917 354.272 266.841 356.012C266.618 359.993 267.952 364.283 271.497 365.061C274.117 365.633 274.003 367.185 273.758 367.957Z" fill="#464646"/>
<path d="M339.597 367.957H313.654C312.407 366.435 312.865 360.818 313.054 358.985C313.093 358.616 313.121 358.4 313.121 358.4C313.121 358.4 321.981 351.319 323.197 356.734C323.234 356.903 323.278 357.07 323.328 357.233C324.862 362.306 331.738 364.611 335.708 365.252C338.289 365.68 339.245 367.021 339.597 367.957Z" fill="#464646"/>
<path d="M334.655 223.22C334.655 223.22 333.307 239.996 331.727 260.15C329.579 287.539 327.004 321.184 326.74 327.559C326.298 338.627 324.517 356.331 324.517 356.331C324.517 356.331 320.313 360.538 311.895 358.763C311.895 358.763 304.394 333.496 302.252 306.751L302.152 305.429C300.16 278.217 297.062 220.885 297.062 220.885L334.655 223.22Z" fill="#363636"/>
<path d="M334.655 223.22C334.655 223.22 333.307 239.996 331.727 260.15L302.258 306.762L302.158 305.44C300.166 278.229 297.068 220.896 297.068 220.896L334.655 223.22Z" fill="#2F2F2F"/>
<path d="M328.512 225.213C328.512 225.213 304.264 285.964 288.319 314.514C272.375 343.064 267.394 351.039 267.394 351.039C267.394 351.039 258.259 347.387 257.428 344.897C257.428 344.897 263.526 289.779 274.203 276.346C280.235 268.752 287.322 245.969 287.655 238.003C287.989 230.036 289.814 214.265 289.814 214.265L328.512 225.213Z" fill="#363636"/>
<path d="M322.475 136.651C312.998 139.639 296.604 131.575 296.604 131.575C296.604 131.575 305.342 125.022 304.883 111.397L312.209 117.298L317.185 121.304C317.12 123.481 316.934 125.652 316.63 127.807C316.485 128.899 316.307 130.112 316.074 131.439C318.508 132.771 320.678 134.537 322.475 136.651Z" fill="#FFB27D"/>
<path d="M317.185 121.304C317.12 123.481 316.934 125.652 316.63 127.807C311.115 126.863 304.861 117.956 304.861 117.956C307.667 117.145 310.126 117.001 312.218 117.298L317.185 121.304Z" fill="#ED975D"/>
<path d="M320.083 121.08C320.083 121.08 304.433 123.679 302.963 113.913C301.494 104.147 298.485 97.9054 308.414 95.834C318.344 93.7626 320.852 97.1945 322.136 100.335C323.42 103.475 324.117 120.152 320.083 121.08Z" fill="#FFB27D"/>
<path d="M335.7 224.619C335.424 224.859 335.071 224.993 334.705 224.997C331.146 224.95 320.769 226.924 311.99 226.024C304.589 225.313 298.038 223.123 291.003 219.971C290.07 219.552 287.919 218.405 287.967 217.361C287.997 216.217 288.111 214.562 288.244 212.474C288.744 205.216 289.611 192.735 288.767 178.321C288.614 175.639 288.533 172.979 288.525 170.36C288.453 150.843 292.323 133.675 300.105 127.877C300.769 127.402 304.85 129.393 308.598 131.242C312.062 132.95 315.527 133.139 318.8 132.478L322.072 135.368C326.059 139.067 330.424 144.095 332.321 151.729C333.935 158.226 334.883 169.941 335.405 182.08C335.644 187.581 335.833 193.129 335.883 198.393V198.582C335.927 199.104 335.927 199.674 335.927 200.196C336.127 213.71 335.936 224.422 335.7 224.619Z" fill="#505050"/>
<path d="M288.253 212.482C288.753 205.224 289.62 192.743 288.775 178.329C288.622 175.647 288.542 172.987 288.533 170.368C291.773 162.51 294.423 156.813 294.423 156.813H302.594C302.594 156.813 308.584 197.705 288.253 212.482Z" fill="#464646"/>
<path d="M246.401 258.817L281.249 263.779C283.434 264.083 285.652 263.511 287.417 262.187C289.182 260.863 290.352 258.895 290.67 256.712L292.82 241.621C293.125 239.436 292.552 237.22 291.228 235.455C289.903 233.691 287.933 232.523 285.749 232.205L250.905 227.243C248.719 226.938 246.501 227.511 244.736 228.835C242.971 230.159 241.802 232.127 241.484 234.31L239.333 249.401C239.028 251.585 239.599 253.802 240.924 255.566C242.248 257.33 244.217 258.499 246.401 258.817Z" fill="#464646"/>
<path d="M287.716 236.706C287.224 235.468 286.444 234.365 285.441 233.489C284.437 232.613 283.239 231.988 281.946 231.666C281.682 231.602 281.415 231.55 281.14 231.511L274.195 230.525L274.659 227.268C274.756 226.545 274.566 225.813 274.127 225.229C273.689 224.646 273.038 224.258 272.316 224.15L270.505 223.892L263.221 222.853L261.906 222.667C261.183 222.569 260.45 222.76 259.866 223.198C259.282 223.636 258.895 224.286 258.786 225.008L258.323 228.265L246.348 226.557C244.156 226.255 241.933 226.831 240.163 228.16C238.394 229.489 237.222 231.463 236.902 233.652L234.727 248.923C234.422 251.115 234.997 253.337 236.327 255.106C237.656 256.875 239.632 258.046 241.823 258.364L276.606 263.321C277.207 263.408 277.815 263.427 278.42 263.379C279.358 263.307 280.276 263.075 281.135 262.693C282.437 262.121 283.572 261.228 284.434 260.096C285.295 258.965 285.854 257.633 286.058 256.226L288.233 240.954C288.437 239.517 288.259 238.052 287.716 236.706ZM260.49 225.247C260.522 225.03 260.622 224.829 260.776 224.672C260.93 224.516 261.129 224.412 261.345 224.375C261.448 224.361 261.553 224.361 261.656 224.375L263.204 224.594L268.938 225.427L272.064 225.871C272.334 225.911 272.577 226.055 272.741 226.273C272.905 226.491 272.976 226.765 272.939 227.035L272.475 230.292L260.026 228.518L260.49 225.247Z" fill="#505050"/>
<path d="M272.892 213.871C272.892 213.871 271.061 216.306 270.989 217.28C270.497 223.878 273.514 224.777 265.71 228.456C265.71 228.456 262.376 229.725 262.318 227.14C262.259 224.555 264.632 224.511 264.199 220.887C263.698 216.722 263.749 216.672 266.493 214.501L268.31 211.502L272.892 213.871Z" fill="#FFB27D"/>
<path d="M268.246 215.745C270.27 216.094 272.328 216.209 274.378 216.086C274.378 216.086 283.113 189.119 284.238 186.654C285.363 184.188 310.181 155.033 310.181 155.033L299.841 129.182C299.841 129.182 272.997 174 270.269 180.298C265.765 190.705 264.201 214.034 264.201 214.034C265.424 214.865 266.799 215.446 268.246 215.745Z" fill="#505050"/>
<path d="M302.949 112.974C302.949 112.974 304.558 112.697 304.297 110.495C304.036 108.293 304.041 105.394 305.842 105.933C307.642 106.471 307.728 107.91 308.467 107.068C309.206 106.227 309.22 102.687 314.579 102.44C319.938 102.192 322.108 104.056 324.595 102.962C327.081 101.868 327.215 98.1052 327.215 98.1052C327.215 98.1052 326.509 99.4491 325.439 99.8767C325.439 99.8767 329.59 94.2012 324.784 90.3083C319.977 86.4154 315.077 88.9644 312.282 89.1338C306.153 89.5031 302.194 89.8723 300.191 93.8958C298.188 97.9192 299.007 109.098 302.949 112.974Z" fill="#505050"/>
<path d="M270.013 216.781C270.013 216.781 271.775 218.616 271.886 219.38C272.244 221.831 273.064 222.889 272.653 223.159C271.8 223.714 270.669 221.895 270.13 220.268C269.591 218.641 270.013 216.781 270.013 216.781Z" fill="#FFB27D"/>
</svg>
