<svg width="350" height="171" viewBox="0 0 350 171" fill="none" xmlns="http://www.w3.org/2000/svg">
<path d="M313.916 66.9111V79.138C313.916 80.2249 313.659 81.2743 313.198 82.1953C312.076 84.4415 309.735 85.9888 307.064 85.9888H304.871C301.112 85.9888 298.019 82.9128 298.019 79.1403V66.9135C298.019 65.6232 298.388 64.4288 299.012 63.3957C299.012 63.377 299.012 63.377 299.012 63.377C300.229 61.3879 302.403 60.0626 304.871 60.0626H307.064C310.841 60.0626 313.916 63.155 313.916 66.9111Z" fill="#363636"/>
<path opacity="0.3" d="M313.198 82.1954C312.076 84.4416 309.735 85.989 307.064 85.989H304.871C301.113 85.989 298.019 82.913 298.019 79.1405V66.9136C298.019 65.6234 298.388 64.429 299.013 63.3959C299.141 64.1508 302.053 80.9239 313.198 82.1954Z" fill="#363636"/>
<path d="M205.271 156.398H239.146V122.225H203.805L205.271 156.398Z" fill="#FFF8E1"/>
<path d="M312.09 84.1634L145.659 88.2655V0.546021H254.949C265.368 0.546021 274.909 6.37543 279.661 15.6431L286.812 29.595L312.09 84.1634Z" fill="#363636"/>
<path d="M217.542 150.839C217.542 160.116 222.329 170.347 222.329 170.347C222.329 170.347 229.445 170.347 230.434 170.347C237.555 170.347 243.327 161.612 243.327 150.839C243.327 140.066 229.45 131.332 222.329 131.332C215.208 131.332 217.542 140.064 217.542 150.839Z" fill="#525252"/>
<path d="M222.329 170.347C229.449 170.347 235.221 161.613 235.221 150.839C235.221 140.066 229.449 131.332 222.329 131.332C215.209 131.332 209.437 140.066 209.437 150.839C209.437 161.613 215.209 170.347 222.329 170.347Z" fill="#363636"/>
<path d="M222.492 165.535C227.856 165.535 232.204 158.955 232.204 150.84C232.204 142.724 227.856 136.144 222.492 136.144C217.129 136.144 212.78 142.724 212.78 150.84C212.78 158.955 217.129 165.535 222.492 165.535Z" fill="#FFF8E1"/>
<path d="M310.729 150.839C310.729 160.116 315.516 170.347 315.516 170.347C315.516 170.347 322.633 170.347 323.622 170.347C330.743 170.347 336.514 161.612 336.514 150.839C336.514 140.066 322.637 131.332 315.516 131.332C308.395 131.332 310.729 140.064 310.729 150.839Z" fill="#525252"/>
<path d="M302.623 150.839C302.623 161.612 308.395 170.347 315.516 170.347C322.637 170.347 328.408 161.612 328.408 150.839C328.408 140.066 322.637 131.332 315.516 131.332C308.395 131.332 302.623 140.064 302.623 150.839Z" fill="#363636"/>
<path d="M305.968 150.84C305.968 158.955 310.315 165.535 315.678 165.535C321.04 165.535 325.39 158.955 325.39 150.84C325.39 142.724 321.042 136.144 315.678 136.144C310.315 136.144 305.968 142.724 305.968 150.84Z" fill="#FFF8E1"/>
<path d="M96.7339 150.839C96.7339 160.116 101.521 170.347 101.521 170.347C101.521 170.347 108.637 170.347 109.626 170.347C116.747 170.347 122.519 161.612 122.519 150.839C122.519 140.066 108.642 131.332 101.523 131.332C94.4 131.332 96.7339 140.064 96.7339 150.839Z" fill="#525252"/>
<path d="M88.6285 150.839C88.6285 161.612 94.4001 170.347 101.521 170.347C108.642 170.347 114.413 161.612 114.413 150.839C114.413 140.066 108.642 131.332 101.521 131.332C94.4001 131.332 88.6285 140.064 88.6285 150.839Z" fill="#363636"/>
<path d="M91.9725 150.84C91.9725 158.955 96.3199 165.535 101.682 165.535C107.045 165.535 111.394 158.955 111.394 150.84C111.394 142.724 107.047 136.144 101.682 136.144C96.3176 136.144 91.9725 142.724 91.9725 150.84Z" fill="#FFF8E1"/>
<path d="M349.35 141.633C349.369 149.79 342.755 156.4 334.613 156.4H239.148C239.424 154.799 239.571 153.142 239.571 151.429C239.571 138.816 231.999 128.578 222.677 128.578C213.337 128.578 205.765 138.816 205.765 151.429C205.765 153.142 205.894 154.799 206.17 156.4H150.388C150.388 156.4 148.14 131.507 148.416 119.021C148.639 108.157 148.639 86.8725 147.993 81.6789C147.993 80.9052 201.787 80.8117 215.365 80.758C217.208 80.7393 218.311 80.7393 218.424 80.7393L218.608 80.8678L218.812 81.0151C221.316 82.7634 235.355 92.5968 244.068 98.3608C251.75 103.424 308.453 105.487 330.691 106.114C336.217 106.261 339.626 106.317 339.626 106.317C339.626 106.317 342.667 109.428 345.356 114.346C347.419 118.158 349.261 123.055 349.299 128.415C349.317 131.748 349.336 135.761 349.336 139.702C349.35 140.342 349.35 140.988 349.35 141.633Z" fill="#363636"/>
<path d="M298.669 80.7392H223.875C222.144 80.7392 220.577 79.7271 219.859 78.161L201.345 36.9904C200.737 35.6464 201.733 34.1178 203.206 34.1178H282.11C283.842 34.1178 285.426 35.1486 286.125 36.7497L299.389 67.0398L302.705 74.6082C303.956 77.4996 301.838 80.7392 298.669 80.7392Z" fill="#A2C2DD"/>
<path d="M263.834 139.697C263.815 140.987 263.761 142.2 263.686 143.287C263.153 150.449 255.948 156.398 255.948 156.398H239.148C239.424 154.797 239.571 153.139 239.571 151.426C239.571 147.135 238.687 143.121 237.176 139.697C234.211 133.031 228.83 128.576 222.677 128.576C216.506 128.576 211.127 133.033 208.16 139.697C206.649 143.121 205.765 147.137 205.765 151.426C205.765 153.139 205.893 154.797 206.169 156.398H0.696533V0.550659H194.231V31.4835C194.231 31.4835 208.803 65.6957 215.362 80.7578C216.983 84.514 218.126 87.0734 218.421 87.625C219.876 90.4042 253.736 107.53 259.337 112.574C262.452 115.374 263.997 129.92 263.834 139.697Z" fill="#363636"/>
<path d="M194.776 41.5249L210.709 80.7461H183.371C183.371 80.7461 177.763 79.8088 177.045 68.3533C176.278 56.1242 176.278 35.0223 176.278 35.0223L188.277 34.9639C192.851 35.6557 193.567 38.1661 194.776 41.5249Z" fill="#A2C2DD"/>
<path d="M339.622 106.315H250.974L218.606 80.8678L218.421 80.7393H307.843L333.303 101.215L339.622 106.315Z" fill="#363636"/>
<path d="M345.351 114.344C344.834 115.19 344.173 115.744 343.455 115.872L331.021 118.175C329.971 118.378 329.159 116.555 329.435 114.676L330.651 106.317L330.688 106.114L330.927 104.401C331.147 102.928 331.792 101.804 332.585 101.491L333.303 101.215L339.622 106.315C339.622 106.315 342.662 109.428 345.351 114.344Z" fill="#C4D9ED"/>
<path d="M262.451 121.267L254.437 120.474C251.638 120.199 249.372 118.1 248.874 115.337L247.031 105.209C246.994 105.043 246.975 104.896 246.994 104.73C252.704 108.007 257.512 110.936 259.336 112.574C260.665 113.773 261.712 117.088 262.451 121.267Z" fill="#363636"/>
<path d="M277.668 122.777L262.47 121.267H262.451L254.437 120.474C251.638 120.199 249.372 118.1 248.874 115.337L247.031 105.209C246.994 105.043 246.975 104.896 246.994 104.73V104.711C246.902 102.575 248.855 100.845 251.046 101.287L274.72 106.093C276.23 106.406 277.428 107.528 277.832 109.003L280.615 119.278C281.132 121.157 279.602 122.98 277.668 122.777Z" fill="#C4D9ED"/>
<path d="M286.817 29.5926H194.465C194.465 29.5926 194.107 23.6861 191.79 16.9404C189.727 10.9824 186.161 4.33959 179.922 0.546021H255.387C267.688 0.546021 278.59 7.11404 282.919 16.9404C283.122 17.3471 283.3 17.7538 283.454 18.1628C284.754 21.5731 285.926 25.3923 286.817 29.5926Z" fill="#363636"/>
<path d="M262.47 121.267L254.437 120.475C251.638 120.199 249.372 118.1 248.874 115.337L247.031 105.209C246.994 105.043 246.975 104.877 246.994 104.711C252.704 108.007 257.512 110.936 259.336 112.574C260.665 113.773 261.712 117.088 262.47 121.267Z" fill="#A2C2DD"/>
<path opacity="0.3" d="M349.35 141.633C349.369 149.79 342.442 156.4 333.894 156.4H239.148C239.424 154.799 239.571 153.142 239.571 151.429C239.571 147.137 238.687 143.124 237.176 139.7H349.331C349.35 140.342 349.35 140.987 349.35 141.633Z" fill="#525252"/>
<path opacity="0.3" d="M205.765 151.429C205.765 153.142 205.893 154.799 206.169 156.4H80.6288V139.7H208.159C206.649 143.124 205.765 147.137 205.765 151.429Z" fill="#525252"/>
<path opacity="0.3" d="M286.936 107.035H323.186C324.344 107.035 325.23 108.596 325.052 110.326L323.766 122.917C323.577 124.768 322.522 126.136 321.283 126.136H291.417C289.502 126.136 287.813 124.242 287.257 121.473L285.105 110.767C284.731 108.909 285.65 107.035 286.936 107.035Z" fill="#525252"/>
<path d="M299.387 67.0398C256.628 64.8497 227.705 41.9807 218.973 34.1178H282.107C283.84 34.1178 285.423 35.1486 286.122 36.7497L299.387 67.0398Z" fill="#C4D9ED"/>
<path d="M162.736 0.409912H0.946533V139.68H162.736V0.409912Z" fill="#363636"/>
<path d="M202.601 60.6073C202.601 60.6073 203.985 76.4594 196.153 80.7999H210.781L202.601 60.6073Z" fill="#525252"/>
<path d="M204.75 71.2166C204.75 71.2166 201.448 68.8676 201.163 66.9205V78.0067H205.484L204.75 71.2166Z" fill="#525252"/>
<path d="M201.161 66.9111V79.138C201.161 80.2249 200.903 81.2743 200.443 82.1953C199.32 84.4415 196.979 85.9888 194.309 85.9888H192.115C188.357 85.9888 185.263 82.9128 185.263 79.1403V66.9135C185.263 65.6232 185.63 64.4288 186.257 63.3957C186.257 63.377 186.257 63.377 186.257 63.377C187.473 61.3879 189.648 60.0626 192.115 60.0626H194.309C198.083 60.0626 201.161 63.155 201.161 66.9111Z" fill="#363636"/>
<path opacity="0.3" d="M200.442 82.1954C199.32 84.4416 196.979 85.989 194.308 85.989H192.115C188.357 85.989 185.263 82.913 185.263 79.1405V66.9136C185.263 65.6234 185.63 64.429 186.257 63.3959C186.385 64.1508 189.297 80.9239 200.442 82.1954Z" fill="#525252"/>
<path d="M53.8497 156.409H14.0661C13.2265 152.819 10.6962 127.262 32.9897 127.262C53.251 127.262 54.7407 150.58 53.8497 156.409Z" fill="#FFF8E1"/>
<path d="M26.5183 150.839C26.5183 160.116 31.3053 170.347 31.3053 170.347C31.3053 170.347 38.4216 170.347 39.4108 170.347C46.5317 170.347 52.3033 161.612 52.3033 150.839C52.3033 140.066 38.4263 131.332 31.3053 131.332C24.1868 131.332 26.5183 140.064 26.5183 150.839Z" fill="#525252"/>
<path d="M18.4156 150.839C18.4156 161.612 24.1872 170.347 31.3081 170.347C38.4291 170.347 44.2006 161.612 44.2006 150.839C44.2006 140.066 38.4291 131.332 31.3081 131.332C24.1872 131.332 18.4156 140.064 18.4156 150.839Z" fill="#363636"/>
<path d="M21.757 150.84C21.757 158.955 26.1043 165.535 31.469 165.535C36.8313 165.535 41.1787 158.955 41.1787 150.84C41.1787 142.724 36.8313 136.144 31.469 136.144C26.1043 136.144 21.757 142.724 21.757 150.84Z" fill="#FFF8E1"/>
<path opacity="0.3" d="M286.817 29.5927H194.465C194.465 29.5927 194.107 23.6861 191.79 16.9404H282.919C283.122 17.3471 283.3 17.7538 283.454 18.1629C284.754 21.5731 285.926 25.3924 286.817 29.5927Z" fill="#525252"/>
</svg>
